  0
SECTION
  2
HEADER
  9
$ANGBASE
  50
0.0
  9
$ANGDIR
  70
1
  9
$MEASUREMENT
  70
1
  0
ENDSEC
  0
SECTION
  2
TABLES
  0
TABLE
  2
LTYPE
  70
4
  0
LTYPE
  5
40F
  2
CONTINUOUS
  70
0
  3
Solid line
  72
65
  73
0
  40
0.0
  0
LTYPE
  5
410
  2
DASHDOT
 70
0
  3
Dash Dot ____ _ ____ _
 72
65
 73
4
 40
2.0
 49
1.25
 49
-0.25
 49
0.25
 49
-0.25
  0
LTYPE
  5
411
  2
DASHED
 70
0
  3
Dashed __ __ __ __ __
 72
65
 73
2
 40
0.75
 49
0.5
 49
-0.25
  0
LTYPE
  5
43B
  2
DOTTED
 70
0
  3
Dotted .  .  .  .
 72
65
 73
2
 40
0.2
 49
0.0
 49
-0.2
  0
ENDTAB
  0
TABLE
  2
STYLE
  70
4
  0
STYLE
  2
KICAD
  70
0
  40
0
  41
1
  42
1
  50
0
  71
0
  3
isocp.shx
  0
STYLE
  2
KICADB
  70
0
  40
0
  41
1
  42
1
  50
0
  71
0
  3
isocp.shx
  0
STYLE
  2
KICADI
  70
0
  40
0
  41
1
  42
1
  50
15
  71
0
  3
isocp.shx
  0
STYLE
  2
KICADBI
  70
0
  40
0
  41
1
  42
1
  50
15
  71
0
  3
isocp.shx
  0
ENDTAB
  0
TABLE
  2
LAYER
  70
1
  0
LAYER
  2
BLACK
  70
0
  62
7
  6
CONTINUOUS
  0
ENDTAB
  0
ENDSEC
  0
SECTION
  2
ENTITIES
0
LINE
8
BLACK
6
CONTINUOUS
10
117.396
20
-71.0768
11
117.56
21
-71.1266
0
LINE
8
BLACK
6
CONTINUOUS
10
117.56
20
-71.1266
11
117.711
21
-71.2075
0
LINE
8
BLACK
6
CONTINUOUS
10
117.711
20
-71.2075
11
117.844
21
-71.3163
0
LINE
8
BLACK
6
CONTINUOUS
10
117.844
20
-71.3163
11
117.953
21
-71.4489
0
LINE
8
BLACK
6
CONTINUOUS
10
117.953
20
-71.4489
11
118.033
21
-71.6002
0
LINE
8
BLACK
6
CONTINUOUS
10
118.033
20
-71.6002
11
118.083
21
-71.7643
0
LINE
8
BLACK
6
CONTINUOUS
10
118.083
20
-71.7643
11
118.1
21
-71.935
0
LINE
8
BLACK
6
CONTINUOUS
10
118.1
20
-71.935
11
118.1
21
-73.685
0
LINE
8
BLACK
6
CONTINUOUS
10
118.1
20
-73.685
11
118.083
21
-73.8557
0
LINE
8
BLACK
6
CONTINUOUS
10
118.083
20
-73.8557
11
118.033
21
-74.0198
0
LINE
8
BLACK
6
CONTINUOUS
10
118.033
20
-74.0198
11
117.953
21
-74.1711
0
LINE
8
BLACK
6
CONTINUOUS
10
117.953
20
-74.1711
11
117.844
21
-74.3037
0
LINE
8
BLACK
6
CONTINUOUS
10
117.844
20
-74.3037
11
117.711
21
-74.4125
0
LINE
8
BLACK
6
CONTINUOUS
10
117.711
20
-74.4125
11
117.56
21
-74.4934
0
LINE
8
BLACK
6
CONTINUOUS
10
117.56
20
-74.4934
11
117.396
21
-74.5432
0
LINE
8
BLACK
6
CONTINUOUS
10
117.396
20
-74.5432
11
117.225
21
-74.56
0
LINE
8
BLACK
6
CONTINUOUS
10
117.225
20
-74.56
11
115.475
21
-74.56
0
LINE
8
BLACK
6
CONTINUOUS
10
115.475
20
-74.56
11
115.304
21
-74.5432
0
LINE
8
BLACK
6
CONTINUOUS
10
115.304
20
-74.5432
11
115.14
21
-74.4934
0
LINE
8
BLACK
6
CONTINUOUS
10
115.14
20
-74.4934
11
114.989
21
-74.4125
0
LINE
8
BLACK
6
CONTINUOUS
10
114.989
20
-74.4125
11
114.856
21
-74.3037
0
LINE
8
BLACK
6
CONTINUOUS
10
114.856
20
-74.3037
11
114.747
21
-74.1711
0
LINE
8
BLACK
6
CONTINUOUS
10
114.747
20
-74.1711
11
114.667
21
-74.0198
0
LINE
8
BLACK
6
CONTINUOUS
10
114.667
20
-74.0198
11
114.617
21
-73.8557
0
LINE
8
BLACK
6
CONTINUOUS
10
114.617
20
-73.8557
11
114.6
21
-73.685
0
LINE
8
BLACK
6
CONTINUOUS
10
114.6
20
-73.685
11
114.6
21
-71.935
0
LINE
8
BLACK
6
CONTINUOUS
10
114.6
20
-71.935
11
114.617
21
-71.7643
0
LINE
8
BLACK
6
CONTINUOUS
10
114.617
20
-71.7643
11
114.667
21
-71.6002
0
LINE
8
BLACK
6
CONTINUOUS
10
114.667
20
-71.6002
11
114.747
21
-71.4489
0
LINE
8
BLACK
6
CONTINUOUS
10
114.747
20
-71.4489
11
114.856
21
-71.3163
0
LINE
8
BLACK
6
CONTINUOUS
10
114.856
20
-71.3163
11
114.989
21
-71.2075
0
LINE
8
BLACK
6
CONTINUOUS
10
114.989
20
-71.2075
11
115.14
21
-71.1266
0
LINE
8
BLACK
6
CONTINUOUS
10
115.14
20
-71.1266
11
115.304
21
-71.0768
0
LINE
8
BLACK
6
CONTINUOUS
10
115.304
20
-71.0768
11
115.475
21
-71.06
0
LINE
8
BLACK
6
CONTINUOUS
10
115.475
20
-71.06
11
117.225
21
-71.06
0
LINE
8
BLACK
6
CONTINUOUS
10
117.225
20
-71.06
11
117.396
21
-71.0768
0
LINE
8
BLACK
6
CONTINUOUS
10
114.246
20
-66.3744
11
114.387
21
-66.4171
0
LINE
8
BLACK
6
CONTINUOUS
10
114.387
20
-66.4171
11
114.517
21
-66.4864
0
LINE
8
BLACK
6
CONTINUOUS
10
114.517
20
-66.4864
11
114.63
21
-66.5797
0
LINE
8
BLACK
6
CONTINUOUS
10
114.63
20
-66.5797
11
114.724
21
-66.6933
0
LINE
8
BLACK
6
CONTINUOUS
10
114.724
20
-66.6933
11
114.793
21
-66.823
0
LINE
8
BLACK
6
CONTINUOUS
10
114.793
20
-66.823
11
114.836
21
-66.9637
0
LINE
8
BLACK
6
CONTINUOUS
10
114.836
20
-66.9637
11
114.85
21
-67.11
0
LINE
8
BLACK
6
CONTINUOUS
10
114.85
20
-67.11
11
114.85
21
-69.11
0
LINE
8
BLACK
6
CONTINUOUS
10
114.85
20
-69.11
11
114.836
21
-69.2563
0
LINE
8
BLACK
6
CONTINUOUS
10
114.836
20
-69.2563
11
114.793
21
-69.397
0
LINE
8
BLACK
6
CONTINUOUS
10
114.793
20
-69.397
11
114.724
21
-69.5267
0
LINE
8
BLACK
6
CONTINUOUS
10
114.724
20
-69.5267
11
114.63
21
-69.6403
0
LINE
8
BLACK
6
CONTINUOUS
10
114.63
20
-69.6403
11
114.517
21
-69.7336
0
LINE
8
BLACK
6
CONTINUOUS
10
114.517
20
-69.7336
11
114.387
21
-69.8029
0
LINE
8
BLACK
6
CONTINUOUS
10
114.387
20
-69.8029
11
114.246
21
-69.8456
0
LINE
8
BLACK
6
CONTINUOUS
10
114.246
20
-69.8456
11
114.1
21
-69.86
0
LINE
8
BLACK
6
CONTINUOUS
10
114.1
20
-69.86
11
112.6
21
-69.86
0
LINE
8
BLACK
6
CONTINUOUS
10
112.6
20
-69.86
11
112.454
21
-69.8456
0
LINE
8
BLACK
6
CONTINUOUS
10
112.454
20
-69.8456
11
112.313
21
-69.8029
0
LINE
8
BLACK
6
CONTINUOUS
10
112.313
20
-69.8029
11
112.183
21
-69.7336
0
LINE
8
BLACK
6
CONTINUOUS
10
112.183
20
-69.7336
11
112.07
21
-69.6403
0
LINE
8
BLACK
6
CONTINUOUS
10
112.07
20
-69.6403
11
111.976
21
-69.5267
0
LINE
8
BLACK
6
CONTINUOUS
10
111.976
20
-69.5267
11
111.907
21
-69.397
0
LINE
8
BLACK
6
CONTINUOUS
10
111.907
20
-69.397
11
111.864
21
-69.2563
0
LINE
8
BLACK
6
CONTINUOUS
10
111.864
20
-69.2563
11
111.85
21
-69.11
0
LINE
8
BLACK
6
CONTINUOUS
10
111.85
20
-69.11
11
111.85
21
-67.11
0
LINE
8
BLACK
6
CONTINUOUS
10
111.85
20
-67.11
11
111.864
21
-66.9637
0
LINE
8
BLACK
6
CONTINUOUS
10
111.864
20
-66.9637
11
111.907
21
-66.823
0
LINE
8
BLACK
6
CONTINUOUS
10
111.907
20
-66.823
11
111.976
21
-66.6933
0
LINE
8
BLACK
6
CONTINUOUS
10
111.976
20
-66.6933
11
112.07
21
-66.5797
0
LINE
8
BLACK
6
CONTINUOUS
10
112.07
20
-66.5797
11
112.183
21
-66.4864
0
LINE
8
BLACK
6
CONTINUOUS
10
112.183
20
-66.4864
11
112.313
21
-66.4171
0
LINE
8
BLACK
6
CONTINUOUS
10
112.313
20
-66.4171
11
112.454
21
-66.3744
0
LINE
8
BLACK
6
CONTINUOUS
10
112.454
20
-66.3744
11
112.6
21
-66.36
0
LINE
8
BLACK
6
CONTINUOUS
10
112.6
20
-66.36
11
114.1
21
-66.36
0
LINE
8
BLACK
6
CONTINUOUS
10
114.1
20
-66.36
11
114.246
21
-66.3744
0
LINE
8
BLACK
6
CONTINUOUS
10
121.1
20
-69.86
11
117.6
21
-69.86
0
LINE
8
BLACK
6
CONTINUOUS
10
117.6
20
-69.86
11
117.6
21
-66.36
0
LINE
8
BLACK
6
CONTINUOUS
10
117.6
20
-66.36
11
121.1
21
-66.36
0
LINE
8
BLACK
6
CONTINUOUS
10
121.1
20
-66.36
11
121.1
21
-69.86
0
LINE
8
BLACK
6
CONTINUOUS
10
170.213
20
-66.2546
11
170.376
21
-66.3224
0
LINE
8
BLACK
6
CONTINUOUS
10
170.376
20
-66.3224
11
170.524
21
-66.4209
0
LINE
8
BLACK
6
CONTINUOUS
10
170.524
20
-66.4209
11
170.649
21
-66.5463
0
LINE
8
BLACK
6
CONTINUOUS
10
170.649
20
-66.5463
11
170.748
21
-66.6937
0
LINE
8
BLACK
6
CONTINUOUS
10
170.748
20
-66.6937
11
170.815
21
-66.8575
0
LINE
8
BLACK
6
CONTINUOUS
10
170.815
20
-66.8575
11
170.85
21
-67.0314
0
LINE
8
BLACK
6
CONTINUOUS
10
170.85
20
-67.0314
11
170.85
21
-67.2086
0
LINE
8
BLACK
6
CONTINUOUS
10
170.85
20
-67.2086
11
170.815
21
-67.3825
0
LINE
8
BLACK
6
CONTINUOUS
10
170.815
20
-67.3825
11
170.748
21
-67.5463
0
LINE
8
BLACK
6
CONTINUOUS
10
170.748
20
-67.5463
11
170.649
21
-67.6937
0
LINE
8
BLACK
6
CONTINUOUS
10
170.649
20
-67.6937
11
170.524
21
-67.8191
0
LINE
8
BLACK
6
CONTINUOUS
10
170.524
20
-67.8191
11
170.376
21
-67.9176
0
LINE
8
BLACK
6
CONTINUOUS
10
170.376
20
-67.9176
11
170.213
21
-67.9854
0
LINE
8
BLACK
6
CONTINUOUS
10
170.213
20
-67.9854
11
170.039
21
-68.02
0
LINE
8
BLACK
6
CONTINUOUS
10
170.039
20
-68.02
11
169.861
21
-68.02
0
LINE
8
BLACK
6
CONTINUOUS
10
169.861
20
-68.02
11
169.687
21
-67.9854
0
LINE
8
BLACK
6
CONTINUOUS
10
169.687
20
-67.9854
11
169.524
21
-67.9176
0
LINE
8
BLACK
6
CONTINUOUS
10
169.524
20
-67.9176
11
169.376
21
-67.8191
0
LINE
8
BLACK
6
CONTINUOUS
10
169.376
20
-67.8191
11
169.251
21
-67.6937
0
LINE
8
BLACK
6
CONTINUOUS
10
169.251
20
-67.6937
11
169.152
21
-67.5463
0
LINE
8
BLACK
6
CONTINUOUS
10
169.152
20
-67.5463
11
169.085
21
-67.3825
0
LINE
8
BLACK
6
CONTINUOUS
10
169.085
20
-67.3825
11
169.05
21
-67.2086
0
LINE
8
BLACK
6
CONTINUOUS
10
169.05
20
-67.2086
11
169.05
21
-67.0314
0
LINE
8
BLACK
6
CONTINUOUS
10
169.05
20
-67.0314
11
169.085
21
-66.8575
0
LINE
8
BLACK
6
CONTINUOUS
10
169.085
20
-66.8575
11
169.152
21
-66.6937
0
LINE
8
BLACK
6
CONTINUOUS
10
169.152
20
-66.6937
11
169.251
21
-66.5463
0
LINE
8
BLACK
6
CONTINUOUS
10
169.251
20
-66.5463
11
169.376
21
-66.4209
0
LINE
8
BLACK
6
CONTINUOUS
10
169.376
20
-66.4209
11
169.524
21
-66.3224
0
LINE
8
BLACK
6
CONTINUOUS
10
169.524
20
-66.3224
11
169.687
21
-66.2546
0
LINE
8
BLACK
6
CONTINUOUS
10
169.687
20
-66.2546
11
169.861
21
-66.22
0
LINE
8
BLACK
6
CONTINUOUS
10
169.861
20
-66.22
11
170.039
21
-66.22
0
LINE
8
BLACK
6
CONTINUOUS
10
170.039
20
-66.22
11
170.213
21
-66.2546
0
LINE
8
BLACK
6
CONTINUOUS
10
170.213
20
-61.2546
11
170.376
21
-61.3224
0
LINE
8
BLACK
6
CONTINUOUS
10
170.376
20
-61.3224
11
170.524
21
-61.4209
0
LINE
8
BLACK
6
CONTINUOUS
10
170.524
20
-61.4209
11
170.649
21
-61.5463
0
LINE
8
BLACK
6
CONTINUOUS
10
170.649
20
-61.5463
11
170.748
21
-61.6937
0
LINE
8
BLACK
6
CONTINUOUS
10
170.748
20
-61.6937
11
170.815
21
-61.8575
0
LINE
8
BLACK
6
CONTINUOUS
10
170.815
20
-61.8575
11
170.85
21
-62.0314
0
LINE
8
BLACK
6
CONTINUOUS
10
170.85
20
-62.0314
11
170.85
21
-62.2086
0
LINE
8
BLACK
6
CONTINUOUS
10
170.85
20
-62.2086
11
170.815
21
-62.3825
0
LINE
8
BLACK
6
CONTINUOUS
10
170.815
20
-62.3825
11
170.748
21
-62.5463
0
LINE
8
BLACK
6
CONTINUOUS
10
170.748
20
-62.5463
11
170.649
21
-62.6937
0
LINE
8
BLACK
6
CONTINUOUS
10
170.649
20
-62.6937
11
170.524
21
-62.8191
0
LINE
8
BLACK
6
CONTINUOUS
10
170.524
20
-62.8191
11
170.376
21
-62.9176
0
LINE
8
BLACK
6
CONTINUOUS
10
170.376
20
-62.9176
11
170.213
21
-62.9854
0
LINE
8
BLACK
6
CONTINUOUS
10
170.213
20
-62.9854
11
170.039
21
-63.02
0
LINE
8
BLACK
6
CONTINUOUS
10
170.039
20
-63.02
11
169.861
21
-63.02
0
LINE
8
BLACK
6
CONTINUOUS
10
169.861
20
-63.02
11
169.687
21
-62.9854
0
LINE
8
BLACK
6
CONTINUOUS
10
169.687
20
-62.9854
11
169.524
21
-62.9176
0
LINE
8
BLACK
6
CONTINUOUS
10
169.524
20
-62.9176
11
169.376
21
-62.8191
0
LINE
8
BLACK
6
CONTINUOUS
10
169.376
20
-62.8191
11
169.251
21
-62.6937
0
LINE
8
BLACK
6
CONTINUOUS
10
169.251
20
-62.6937
11
169.152
21
-62.5463
0
LINE
8
BLACK
6
CONTINUOUS
10
169.152
20
-62.5463
11
169.085
21
-62.3825
0
LINE
8
BLACK
6
CONTINUOUS
10
169.085
20
-62.3825
11
169.05
21
-62.2086
0
LINE
8
BLACK
6
CONTINUOUS
10
169.05
20
-62.2086
11
169.05
21
-62.0314
0
LINE
8
BLACK
6
CONTINUOUS
10
169.05
20
-62.0314
11
169.085
21
-61.8575
0
LINE
8
BLACK
6
CONTINUOUS
10
169.085
20
-61.8575
11
169.152
21
-61.6937
0
LINE
8
BLACK
6
CONTINUOUS
10
169.152
20
-61.6937
11
169.251
21
-61.5463
0
LINE
8
BLACK
6
CONTINUOUS
10
169.251
20
-61.5463
11
169.376
21
-61.4209
0
LINE
8
BLACK
6
CONTINUOUS
10
169.376
20
-61.4209
11
169.524
21
-61.3224
0
LINE
8
BLACK
6
CONTINUOUS
10
169.524
20
-61.3224
11
169.687
21
-61.2546
0
LINE
8
BLACK
6
CONTINUOUS
10
169.687
20
-61.2546
11
169.861
21
-61.22
0
LINE
8
BLACK
6
CONTINUOUS
10
169.861
20
-61.22
11
170.039
21
-61.22
0
LINE
8
BLACK
6
CONTINUOUS
10
170.039
20
-61.22
11
170.213
21
-61.2546
0
LINE
8
BLACK
6
CONTINUOUS
10
112.673
20
-59.4146
11
112.836
21
-59.4824
0
LINE
8
BLACK
6
CONTINUOUS
10
112.836
20
-59.4824
11
112.984
21
-59.5809
0
LINE
8
BLACK
6
CONTINUOUS
10
112.984
20
-59.5809
11
113.109
21
-59.7063
0
LINE
8
BLACK
6
CONTINUOUS
10
113.109
20
-59.7063
11
113.208
21
-59.8537
0
LINE
8
BLACK
6
CONTINUOUS
10
113.208
20
-59.8537
11
113.275
21
-60.0175
0
LINE
8
BLACK
6
CONTINUOUS
10
113.275
20
-60.0175
11
113.31
21
-60.1914
0
LINE
8
BLACK
6
CONTINUOUS
10
113.31
20
-60.1914
11
113.31
21
-60.3686
0
LINE
8
BLACK
6
CONTINUOUS
10
113.31
20
-60.3686
11
113.275
21
-60.5425
0
LINE
8
BLACK
6
CONTINUOUS
10
113.275
20
-60.5425
11
113.208
21
-60.7063
0
LINE
8
BLACK
6
CONTINUOUS
10
113.208
20
-60.7063
11
113.109
21
-60.8537
0
LINE
8
BLACK
6
CONTINUOUS
10
113.109
20
-60.8537
11
112.984
21
-60.9791
0
LINE
8
BLACK
6
CONTINUOUS
10
112.984
20
-60.9791
11
112.836
21
-61.0776
0
LINE
8
BLACK
6
CONTINUOUS
10
112.836
20
-61.0776
11
112.673
21
-61.1454
0
LINE
8
BLACK
6
CONTINUOUS
10
112.673
20
-61.1454
11
112.499
21
-61.18
0
LINE
8
BLACK
6
CONTINUOUS
10
112.499
20
-61.18
11
112.321
21
-61.18
0
LINE
8
BLACK
6
CONTINUOUS
10
112.321
20
-61.18
11
112.147
21
-61.1454
0
LINE
8
BLACK
6
CONTINUOUS
10
112.147
20
-61.1454
11
111.984
21
-61.0776
0
LINE
8
BLACK
6
CONTINUOUS
10
111.984
20
-61.0776
11
111.836
21
-60.9791
0
LINE
8
BLACK
6
CONTINUOUS
10
111.836
20
-60.9791
11
111.711
21
-60.8537
0
LINE
8
BLACK
6
CONTINUOUS
10
111.711
20
-60.8537
11
111.612
21
-60.7063
0
LINE
8
BLACK
6
CONTINUOUS
10
111.612
20
-60.7063
11
111.545
21
-60.5425
0
LINE
8
BLACK
6
CONTINUOUS
10
111.545
20
-60.5425
11
111.51
21
-60.3686
0
LINE
8
BLACK
6
CONTINUOUS
10
111.51
20
-60.3686
11
111.51
21
-60.1914
0
LINE
8
BLACK
6
CONTINUOUS
10
111.51
20
-60.1914
11
111.545
21
-60.0175
0
LINE
8
BLACK
6
CONTINUOUS
10
111.545
20
-60.0175
11
111.612
21
-59.8537
0
LINE
8
BLACK
6
CONTINUOUS
10
111.612
20
-59.8537
11
111.711
21
-59.7063
0
LINE
8
BLACK
6
CONTINUOUS
10
111.711
20
-59.7063
11
111.836
21
-59.5809
0
LINE
8
BLACK
6
CONTINUOUS
10
111.836
20
-59.5809
11
111.984
21
-59.4824
0
LINE
8
BLACK
6
CONTINUOUS
10
111.984
20
-59.4824
11
112.147
21
-59.4146
0
LINE
8
BLACK
6
CONTINUOUS
10
112.147
20
-59.4146
11
112.321
21
-59.38
0
LINE
8
BLACK
6
CONTINUOUS
10
112.321
20
-59.38
11
112.499
21
-59.38
0
LINE
8
BLACK
6
CONTINUOUS
10
112.499
20
-59.38
11
112.673
21
-59.4146
0
LINE
8
BLACK
6
CONTINUOUS
10
112.673
20
-54.4146
11
112.836
21
-54.4824
0
LINE
8
BLACK
6
CONTINUOUS
10
112.836
20
-54.4824
11
112.984
21
-54.5809
0
LINE
8
BLACK
6
CONTINUOUS
10
112.984
20
-54.5809
11
113.109
21
-54.7063
0
LINE
8
BLACK
6
CONTINUOUS
10
113.109
20
-54.7063
11
113.208
21
-54.8537
0
LINE
8
BLACK
6
CONTINUOUS
10
113.208
20
-54.8537
11
113.275
21
-55.0175
0
LINE
8
BLACK
6
CONTINUOUS
10
113.275
20
-55.0175
11
113.31
21
-55.1914
0
LINE
8
BLACK
6
CONTINUOUS
10
113.31
20
-55.1914
11
113.31
21
-55.3686
0
LINE
8
BLACK
6
CONTINUOUS
10
113.31
20
-55.3686
11
113.275
21
-55.5425
0
LINE
8
BLACK
6
CONTINUOUS
10
113.275
20
-55.5425
11
113.208
21
-55.7063
0
LINE
8
BLACK
6
CONTINUOUS
10
113.208
20
-55.7063
11
113.109
21
-55.8537
0
LINE
8
BLACK
6
CONTINUOUS
10
113.109
20
-55.8537
11
112.984
21
-55.9791
0
LINE
8
BLACK
6
CONTINUOUS
10
112.984
20
-55.9791
11
112.836
21
-56.0776
0
LINE
8
BLACK
6
CONTINUOUS
10
112.836
20
-56.0776
11
112.673
21
-56.1454
0
LINE
8
BLACK
6
CONTINUOUS
10
112.673
20
-56.1454
11
112.499
21
-56.18
0
LINE
8
BLACK
6
CONTINUOUS
10
112.499
20
-56.18
11
112.321
21
-56.18
0
LINE
8
BLACK
6
CONTINUOUS
10
112.321
20
-56.18
11
112.147
21
-56.1454
0
LINE
8
BLACK
6
CONTINUOUS
10
112.147
20
-56.1454
11
111.984
21
-56.0776
0
LINE
8
BLACK
6
CONTINUOUS
10
111.984
20
-56.0776
11
111.836
21
-55.9791
0
LINE
8
BLACK
6
CONTINUOUS
10
111.836
20
-55.9791
11
111.711
21
-55.8537
0
LINE
8
BLACK
6
CONTINUOUS
10
111.711
20
-55.8537
11
111.612
21
-55.7063
0
LINE
8
BLACK
6
CONTINUOUS
10
111.612
20
-55.7063
11
111.545
21
-55.5425
0
LINE
8
BLACK
6
CONTINUOUS
10
111.545
20
-55.5425
11
111.51
21
-55.3686
0
LINE
8
BLACK
6
CONTINUOUS
10
111.51
20
-55.3686
11
111.51
21
-55.1914
0
LINE
8
BLACK
6
CONTINUOUS
10
111.51
20
-55.1914
11
111.545
21
-55.0175
0
LINE
8
BLACK
6
CONTINUOUS
10
111.545
20
-55.0175
11
111.612
21
-54.8537
0
LINE
8
BLACK
6
CONTINUOUS
10
111.612
20
-54.8537
11
111.711
21
-54.7063
0
LINE
8
BLACK
6
CONTINUOUS
10
111.711
20
-54.7063
11
111.836
21
-54.5809
0
LINE
8
BLACK
6
CONTINUOUS
10
111.836
20
-54.5809
11
111.984
21
-54.4824
0
LINE
8
BLACK
6
CONTINUOUS
10
111.984
20
-54.4824
11
112.147
21
-54.4146
0
LINE
8
BLACK
6
CONTINUOUS
10
112.147
20
-54.4146
11
112.321
21
-54.38
0
LINE
8
BLACK
6
CONTINUOUS
10
112.321
20
-54.38
11
112.499
21
-54.38
0
LINE
8
BLACK
6
CONTINUOUS
10
112.499
20
-54.38
11
112.673
21
-54.4146
  0
ENDSEC
  0
EOF
