  0
SECTION
  2
HEADER
  9
$ANGBASE
  50
0.0
  9
$ANGDIR
  70
1
  9
$MEASUREMENT
  70
1
  0
ENDSEC
  0
SECTION
  2
TABLES
  0
TABLE
  2
LTYPE
  70
4
  0
LTYPE
  5
40F
  2
CONTINUOUS
  70
0
  3
Solid line
  72
65
  73
0
  40
0.0
  0
LTYPE
  5
410
  2
DASHDOT
 70
0
  3
Dash Dot ____ _ ____ _
 72
65
 73
4
 40
2.0
 49
1.25
 49
-0.25
 49
0.25
 49
-0.25
  0
LTYPE
  5
411
  2
DASHED
 70
0
  3
Dashed __ __ __ __ __
 72
65
 73
2
 40
0.75
 49
0.5
 49
-0.25
  0
LTYPE
  5
43B
  2
DOTTED
 70
0
  3
Dotted .  .  .  .
 72
65
 73
2
 40
0.2
 49
0.0
 49
-0.2
  0
ENDTAB
  0
TABLE
  2
STYLE
  70
4
  0
STYLE
  2
KICAD
  70
0
  40
0
  41
1
  42
1
  50
0
  71
0
  3
isocp.shx
  0
STYLE
  2
KICADB
  70
0
  40
0
  41
1
  42
1
  50
0
  71
0
  3
isocp.shx
  0
STYLE
  2
KICADI
  70
0
  40
0
  41
1
  42
1
  50
15
  71
0
  3
isocp.shx
  0
STYLE
  2
KICADBI
  70
0
  40
0
  41
1
  42
1
  50
15
  71
0
  3
isocp.shx
  0
ENDTAB
  0
TABLE
  2
LAYER
  70
1
  0
LAYER
  2
BLACK
  70
0
  62
7
  6
CONTINUOUS
  0
ENDTAB
  0
ENDSEC
  0
SECTION
  2
ENTITIES
0
LINE
8
BLACK
6
CONTINUOUS
10
160.88
20
-74.925
11
148.56
21
-74.925
0
LINE
8
BLACK
6
CONTINUOUS
10
148.56
20
-74.925
11
148.56
21
-70.925
0
LINE
8
BLACK
6
CONTINUOUS
10
148.56
20
-70.925
11
160.88
21
-70.925
0
LINE
8
BLACK
6
CONTINUOUS
10
160.88
20
-70.925
11
160.88
21
-74.925
0
LINE
8
BLACK
6
CONTINUOUS
10
117.396
20
-71.0768
11
117.56
21
-71.1266
0
LINE
8
BLACK
6
CONTINUOUS
10
117.56
20
-71.1266
11
117.711
21
-71.2075
0
LINE
8
BLACK
6
CONTINUOUS
10
117.711
20
-71.2075
11
117.844
21
-71.3163
0
LINE
8
BLACK
6
CONTINUOUS
10
117.844
20
-71.3163
11
117.953
21
-71.4489
0
LINE
8
BLACK
6
CONTINUOUS
10
117.953
20
-71.4489
11
118.033
21
-71.6002
0
LINE
8
BLACK
6
CONTINUOUS
10
118.033
20
-71.6002
11
118.083
21
-71.7643
0
LINE
8
BLACK
6
CONTINUOUS
10
118.083
20
-71.7643
11
118.1
21
-71.935
0
LINE
8
BLACK
6
CONTINUOUS
10
118.1
20
-71.935
11
118.1
21
-73.685
0
LINE
8
BLACK
6
CONTINUOUS
10
118.1
20
-73.685
11
118.083
21
-73.8557
0
LINE
8
BLACK
6
CONTINUOUS
10
118.083
20
-73.8557
11
118.033
21
-74.0198
0
LINE
8
BLACK
6
CONTINUOUS
10
118.033
20
-74.0198
11
117.953
21
-74.1711
0
LINE
8
BLACK
6
CONTINUOUS
10
117.953
20
-74.1711
11
117.844
21
-74.3037
0
LINE
8
BLACK
6
CONTINUOUS
10
117.844
20
-74.3037
11
117.711
21
-74.4125
0
LINE
8
BLACK
6
CONTINUOUS
10
117.711
20
-74.4125
11
117.56
21
-74.4934
0
LINE
8
BLACK
6
CONTINUOUS
10
117.56
20
-74.4934
11
117.396
21
-74.5432
0
LINE
8
BLACK
6
CONTINUOUS
10
117.396
20
-74.5432
11
117.225
21
-74.56
0
LINE
8
BLACK
6
CONTINUOUS
10
117.225
20
-74.56
11
115.475
21
-74.56
0
LINE
8
BLACK
6
CONTINUOUS
10
115.475
20
-74.56
11
115.304
21
-74.5432
0
LINE
8
BLACK
6
CONTINUOUS
10
115.304
20
-74.5432
11
115.14
21
-74.4934
0
LINE
8
BLACK
6
CONTINUOUS
10
115.14
20
-74.4934
11
114.989
21
-74.4125
0
LINE
8
BLACK
6
CONTINUOUS
10
114.989
20
-74.4125
11
114.856
21
-74.3037
0
LINE
8
BLACK
6
CONTINUOUS
10
114.856
20
-74.3037
11
114.747
21
-74.1711
0
LINE
8
BLACK
6
CONTINUOUS
10
114.747
20
-74.1711
11
114.667
21
-74.0198
0
LINE
8
BLACK
6
CONTINUOUS
10
114.667
20
-74.0198
11
114.617
21
-73.8557
0
LINE
8
BLACK
6
CONTINUOUS
10
114.617
20
-73.8557
11
114.6
21
-73.685
0
LINE
8
BLACK
6
CONTINUOUS
10
114.6
20
-73.685
11
114.6
21
-71.935
0
LINE
8
BLACK
6
CONTINUOUS
10
114.6
20
-71.935
11
114.617
21
-71.7643
0
LINE
8
BLACK
6
CONTINUOUS
10
114.617
20
-71.7643
11
114.667
21
-71.6002
0
LINE
8
BLACK
6
CONTINUOUS
10
114.667
20
-71.6002
11
114.747
21
-71.4489
0
LINE
8
BLACK
6
CONTINUOUS
10
114.747
20
-71.4489
11
114.856
21
-71.3163
0
LINE
8
BLACK
6
CONTINUOUS
10
114.856
20
-71.3163
11
114.989
21
-71.2075
0
LINE
8
BLACK
6
CONTINUOUS
10
114.989
20
-71.2075
11
115.14
21
-71.1266
0
LINE
8
BLACK
6
CONTINUOUS
10
115.14
20
-71.1266
11
115.304
21
-71.0768
0
LINE
8
BLACK
6
CONTINUOUS
10
115.304
20
-71.0768
11
115.475
21
-71.06
0
LINE
8
BLACK
6
CONTINUOUS
10
115.475
20
-71.06
11
117.225
21
-71.06
0
LINE
8
BLACK
6
CONTINUOUS
10
117.225
20
-71.06
11
117.396
21
-71.0768
0
LINE
8
BLACK
6
CONTINUOUS
10
131.53
20
-63.1468
11
131.388
21
-63.005
0
LINE
8
BLACK
6
CONTINUOUS
10
131.388
20
-63.005
11
130.809
21
-63.005
0
LINE
8
BLACK
6
CONTINUOUS
10
130.809
20
-63.005
11
130.79
21
-63.0032
0
LINE
8
BLACK
6
CONTINUOUS
10
130.79
20
-63.0032
11
130.767
21
-62.996
0
LINE
8
BLACK
6
CONTINUOUS
10
130.767
20
-62.996
11
130.745
21
-62.9844
0
LINE
8
BLACK
6
CONTINUOUS
10
130.745
20
-62.9844
11
130.74
21
-62.98
0
LINE
8
BLACK
6
CONTINUOUS
10
130.74
20
-62.98
11
130.535
21
-62.98
0
LINE
8
BLACK
6
CONTINUOUS
10
130.535
20
-62.98
11
130.52
21
-62.9786
0
LINE
8
BLACK
6
CONTINUOUS
10
130.52
20
-62.9786
11
130.502
21
-62.9728
0
LINE
8
BLACK
6
CONTINUOUS
10
130.502
20
-62.9728
11
130.484
21
-62.9635
0
LINE
8
BLACK
6
CONTINUOUS
10
130.484
20
-62.9635
11
130.469
21
-62.9511
0
LINE
8
BLACK
6
CONTINUOUS
10
130.469
20
-62.9511
11
130.456
21
-62.9358
0
LINE
8
BLACK
6
CONTINUOUS
10
130.456
20
-62.9358
11
130.447
21
-62.9185
0
LINE
8
BLACK
6
CONTINUOUS
10
130.447
20
-62.9185
11
130.441
21
-62.8996
0
LINE
8
BLACK
6
CONTINUOUS
10
130.441
20
-62.8996
11
130.44
21
-62.88
0
LINE
8
BLACK
6
CONTINUOUS
10
130.44
20
-62.88
11
130.441
21
-62.8604
0
LINE
8
BLACK
6
CONTINUOUS
10
130.441
20
-62.8604
11
130.447
21
-62.8415
0
LINE
8
BLACK
6
CONTINUOUS
10
130.447
20
-62.8415
11
130.456
21
-62.8242
0
LINE
8
BLACK
6
CONTINUOUS
10
130.456
20
-62.8242
11
130.469
21
-62.8089
0
LINE
8
BLACK
6
CONTINUOUS
10
130.469
20
-62.8089
11
130.484
21
-62.7965
0
LINE
8
BLACK
6
CONTINUOUS
10
130.484
20
-62.7965
11
130.502
21
-62.7872
0
LINE
8
BLACK
6
CONTINUOUS
10
130.502
20
-62.7872
11
130.52
21
-62.7814
0
LINE
8
BLACK
6
CONTINUOUS
10
130.52
20
-62.7814
11
130.535
21
-62.78
0
LINE
8
BLACK
6
CONTINUOUS
10
130.535
20
-62.78
11
130.74
21
-62.78
0
LINE
8
BLACK
6
CONTINUOUS
10
130.74
20
-62.78
11
130.745
21
-62.7756
0
LINE
8
BLACK
6
CONTINUOUS
10
130.745
20
-62.7756
11
130.767
21
-62.764
0
LINE
8
BLACK
6
CONTINUOUS
10
130.767
20
-62.764
11
130.79
21
-62.7568
0
LINE
8
BLACK
6
CONTINUOUS
10
130.79
20
-62.7568
11
130.809
21
-62.755
0
LINE
8
BLACK
6
CONTINUOUS
10
130.809
20
-62.755
11
131.434
21
-62.755
0
LINE
8
BLACK
6
CONTINUOUS
10
131.434
20
-62.755
11
131.44
21
-62.7544
0
LINE
8
BLACK
6
CONTINUOUS
10
131.44
20
-62.7544
11
131.446
21
-62.755
0
LINE
8
BLACK
6
CONTINUOUS
10
131.446
20
-62.755
11
131.446
21
-62.755
0
LINE
8
BLACK
6
CONTINUOUS
10
131.446
20
-62.755
11
131.465
21
-62.7568
0
LINE
8
BLACK
6
CONTINUOUS
10
131.465
20
-62.7568
11
131.488
21
-62.764
0
LINE
8
BLACK
6
CONTINUOUS
10
131.488
20
-62.764
11
131.51
21
-62.7756
0
LINE
8
BLACK
6
CONTINUOUS
10
131.51
20
-62.7756
11
131.529
21
-62.7912
0
LINE
8
BLACK
6
CONTINUOUS
10
131.529
20
-62.7912
11
131.53
21
-62.7926
0
LINE
8
BLACK
6
CONTINUOUS
10
131.53
20
-62.7926
11
131.53
21
-62.719
0
LINE
8
BLACK
6
CONTINUOUS
10
131.53
20
-62.719
11
131.532
21
-62.7016
0
LINE
8
BLACK
6
CONTINUOUS
10
131.532
20
-62.7016
11
131.537
21
-62.6849
0
LINE
8
BLACK
6
CONTINUOUS
10
131.537
20
-62.6849
11
131.545
21
-62.6696
0
LINE
8
BLACK
6
CONTINUOUS
10
131.545
20
-62.6696
11
131.556
21
-62.6561
0
LINE
8
BLACK
6
CONTINUOUS
10
131.556
20
-62.6561
11
131.57
21
-62.645
0
LINE
8
BLACK
6
CONTINUOUS
10
131.57
20
-62.645
11
131.585
21
-62.6368
0
LINE
8
BLACK
6
CONTINUOUS
10
131.585
20
-62.6368
11
131.602
21
-62.6317
0
LINE
8
BLACK
6
CONTINUOUS
10
131.602
20
-62.6317
11
131.619
21
-62.63
0
LINE
8
BLACK
6
CONTINUOUS
10
131.619
20
-62.63
11
132.445
21
-62.63
0
LINE
8
BLACK
6
CONTINUOUS
10
132.445
20
-62.63
11
132.445
21
-61.8989
0
LINE
8
BLACK
6
CONTINUOUS
10
132.445
20
-61.8989
11
132.447
21
-61.8805
0
LINE
8
BLACK
6
CONTINUOUS
10
132.447
20
-61.8805
11
132.454
21
-61.8569
0
LINE
8
BLACK
6
CONTINUOUS
10
132.454
20
-61.8569
11
132.466
21
-61.8352
0
LINE
8
BLACK
6
CONTINUOUS
10
132.466
20
-61.8352
11
132.47
21
-61.8298
0
LINE
8
BLACK
6
CONTINUOUS
10
132.47
20
-61.8298
11
132.47
21
-61.6251
0
LINE
8
BLACK
6
CONTINUOUS
10
132.47
20
-61.6251
11
132.471
21
-61.6104
0
LINE
8
BLACK
6
CONTINUOUS
10
132.471
20
-61.6104
11
132.477
21
-61.5915
0
LINE
8
BLACK
6
CONTINUOUS
10
132.477
20
-61.5915
11
132.486
21
-61.5742
0
LINE
8
BLACK
6
CONTINUOUS
10
132.486
20
-61.5742
11
132.499
21
-61.5589
0
LINE
8
BLACK
6
CONTINUOUS
10
132.499
20
-61.5589
11
132.514
21
-61.5465
0
LINE
8
BLACK
6
CONTINUOUS
10
132.514
20
-61.5465
11
132.532
21
-61.5372
0
LINE
8
BLACK
6
CONTINUOUS
10
132.532
20
-61.5372
11
132.55
21
-61.5314
0
LINE
8
BLACK
6
CONTINUOUS
10
132.55
20
-61.5314
11
132.57
21
-61.5295
0
LINE
8
BLACK
6
CONTINUOUS
10
132.57
20
-61.5295
11
132.59
21
-61.5314
0
LINE
8
BLACK
6
CONTINUOUS
10
132.59
20
-61.5314
11
132.608
21
-61.5372
0
LINE
8
BLACK
6
CONTINUOUS
10
132.608
20
-61.5372
11
132.626
21
-61.5465
0
LINE
8
BLACK
6
CONTINUOUS
10
132.626
20
-61.5465
11
132.641
21
-61.5589
0
LINE
8
BLACK
6
CONTINUOUS
10
132.641
20
-61.5589
11
132.654
21
-61.5742
0
LINE
8
BLACK
6
CONTINUOUS
10
132.654
20
-61.5742
11
132.663
21
-61.5915
0
LINE
8
BLACK
6
CONTINUOUS
10
132.663
20
-61.5915
11
132.669
21
-61.6104
0
LINE
8
BLACK
6
CONTINUOUS
10
132.669
20
-61.6104
11
132.67
21
-61.6251
0
LINE
8
BLACK
6
CONTINUOUS
10
132.67
20
-61.6251
11
132.67
21
-61.8298
0
LINE
8
BLACK
6
CONTINUOUS
10
132.67
20
-61.8298
11
132.674
21
-61.8352
0
LINE
8
BLACK
6
CONTINUOUS
10
132.674
20
-61.8352
11
132.686
21
-61.8569
0
LINE
8
BLACK
6
CONTINUOUS
10
132.686
20
-61.8569
11
132.693
21
-61.8805
0
LINE
8
BLACK
6
CONTINUOUS
10
132.693
20
-61.8805
11
132.695
21
-61.8989
0
LINE
8
BLACK
6
CONTINUOUS
10
132.695
20
-61.8989
11
132.695
21
-62.63
0
LINE
8
BLACK
6
CONTINUOUS
10
132.695
20
-62.63
11
133.221
21
-62.63
0
LINE
8
BLACK
6
CONTINUOUS
10
133.221
20
-62.63
11
133.238
21
-62.6317
0
LINE
8
BLACK
6
CONTINUOUS
10
133.238
20
-62.6317
11
133.255
21
-62.6368
0
LINE
8
BLACK
6
CONTINUOUS
10
133.255
20
-62.6368
11
133.27
21
-62.645
0
LINE
8
BLACK
6
CONTINUOUS
10
133.27
20
-62.645
11
133.284
21
-62.6561
0
LINE
8
BLACK
6
CONTINUOUS
10
133.284
20
-62.6561
11
133.295
21
-62.6696
0
LINE
8
BLACK
6
CONTINUOUS
10
133.295
20
-62.6696
11
133.303
21
-62.6849
0
LINE
8
BLACK
6
CONTINUOUS
10
133.303
20
-62.6849
11
133.308
21
-62.7016
0
LINE
8
BLACK
6
CONTINUOUS
10
133.308
20
-62.7016
11
133.31
21
-62.719
0
LINE
8
BLACK
6
CONTINUOUS
10
133.31
20
-62.719
11
133.31
21
-63.66
0
LINE
8
BLACK
6
CONTINUOUS
10
133.31
20
-63.66
11
137.74
21
-63.66
0
LINE
8
BLACK
6
CONTINUOUS
10
137.74
20
-63.66
11
137.75
21
-63.661
0
LINE
8
BLACK
6
CONTINUOUS
10
137.75
20
-63.661
11
137.759
21
-63.6638
0
LINE
8
BLACK
6
CONTINUOUS
10
137.759
20
-63.6638
11
137.768
21
-63.6684
0
LINE
8
BLACK
6
CONTINUOUS
10
137.768
20
-63.6684
11
137.775
21
-63.6746
0
LINE
8
BLACK
6
CONTINUOUS
10
137.775
20
-63.6746
11
137.782
21
-63.6822
0
LINE
8
BLACK
6
CONTINUOUS
10
137.782
20
-63.6822
11
137.786
21
-63.6909
0
LINE
8
BLACK
6
CONTINUOUS
10
137.786
20
-63.6909
11
137.787
21
-63.695
0
LINE
8
BLACK
6
CONTINUOUS
10
137.787
20
-63.695
11
137.936
21
-63.695
0
LINE
8
BLACK
6
CONTINUOUS
10
137.936
20
-63.695
11
137.967
21
-63.6981
0
LINE
8
BLACK
6
CONTINUOUS
10
137.967
20
-63.6981
11
138.008
21
-63.7104
0
LINE
8
BLACK
6
CONTINUOUS
10
138.008
20
-63.7104
11
138.045
21
-63.7304
0
LINE
8
BLACK
6
CONTINUOUS
10
138.045
20
-63.7304
11
138.078
21
-63.7572
0
LINE
8
BLACK
6
CONTINUOUS
10
138.078
20
-63.7572
11
138.105
21
-63.79
0
LINE
8
BLACK
6
CONTINUOUS
10
138.105
20
-63.79
11
138.125
21
-63.8273
0
LINE
8
BLACK
6
CONTINUOUS
10
138.125
20
-63.8273
11
138.137
21
-63.8679
0
LINE
8
BLACK
6
CONTINUOUS
10
138.137
20
-63.8679
11
138.141
21
-63.91
0
LINE
8
BLACK
6
CONTINUOUS
10
138.141
20
-63.91
11
138.137
21
-63.9521
0
LINE
8
BLACK
6
CONTINUOUS
10
138.137
20
-63.9521
11
138.125
21
-63.9927
0
LINE
8
BLACK
6
CONTINUOUS
10
138.125
20
-63.9927
11
138.105
21
-64.03
0
LINE
8
BLACK
6
CONTINUOUS
10
138.105
20
-64.03
11
138.078
21
-64.0628
0
LINE
8
BLACK
6
CONTINUOUS
10
138.078
20
-64.0628
11
138.045
21
-64.0896
0
LINE
8
BLACK
6
CONTINUOUS
10
138.045
20
-64.0896
11
138.008
21
-64.1096
0
LINE
8
BLACK
6
CONTINUOUS
10
138.008
20
-64.1096
11
137.967
21
-64.1219
0
LINE
8
BLACK
6
CONTINUOUS
10
137.967
20
-64.1219
11
137.936
21
-64.125
0
LINE
8
BLACK
6
CONTINUOUS
10
137.936
20
-64.125
11
137.787
21
-64.125
0
LINE
8
BLACK
6
CONTINUOUS
10
137.787
20
-64.125
11
137.786
21
-64.1291
0
LINE
8
BLACK
6
CONTINUOUS
10
137.786
20
-64.1291
11
137.782
21
-64.1378
0
LINE
8
BLACK
6
CONTINUOUS
10
137.782
20
-64.1378
11
137.775
21
-64.1454
0
LINE
8
BLACK
6
CONTINUOUS
10
137.775
20
-64.1454
11
137.768
21
-64.1516
0
LINE
8
BLACK
6
CONTINUOUS
10
137.768
20
-64.1516
11
137.759
21
-64.1562
0
LINE
8
BLACK
6
CONTINUOUS
10
137.759
20
-64.1562
11
137.75
21
-64.159
0
LINE
8
BLACK
6
CONTINUOUS
10
137.75
20
-64.159
11
137.74
21
-64.16
0
LINE
8
BLACK
6
CONTINUOUS
10
137.74
20
-64.16
11
137.44
21
-64.16
0
LINE
8
BLACK
6
CONTINUOUS
10
137.44
20
-64.16
11
137.44
21
-65.13
0
LINE
8
BLACK
6
CONTINUOUS
10
137.44
20
-65.13
11
137.74
21
-65.13
0
LINE
8
BLACK
6
CONTINUOUS
10
137.74
20
-65.13
11
137.75
21
-65.131
0
LINE
8
BLACK
6
CONTINUOUS
10
137.75
20
-65.131
11
137.759
21
-65.1338
0
LINE
8
BLACK
6
CONTINUOUS
10
137.759
20
-65.1338
11
137.768
21
-65.1384
0
LINE
8
BLACK
6
CONTINUOUS
10
137.768
20
-65.1384
11
137.775
21
-65.1446
0
LINE
8
BLACK
6
CONTINUOUS
10
137.775
20
-65.1446
11
137.782
21
-65.1522
0
LINE
8
BLACK
6
CONTINUOUS
10
137.782
20
-65.1522
11
137.786
21
-65.1609
0
LINE
8
BLACK
6
CONTINUOUS
10
137.786
20
-65.1609
11
137.787
21
-65.165
0
LINE
8
BLACK
6
CONTINUOUS
10
137.787
20
-65.165
11
137.936
21
-65.165
0
LINE
8
BLACK
6
CONTINUOUS
10
137.936
20
-65.165
11
137.967
21
-65.1681
0
LINE
8
BLACK
6
CONTINUOUS
10
137.967
20
-65.1681
11
138.008
21
-65.1804
0
LINE
8
BLACK
6
CONTINUOUS
10
138.008
20
-65.1804
11
138.045
21
-65.2004
0
LINE
8
BLACK
6
CONTINUOUS
10
138.045
20
-65.2004
11
138.078
21
-65.2272
0
LINE
8
BLACK
6
CONTINUOUS
10
138.078
20
-65.2272
11
138.105
21
-65.26
0
LINE
8
BLACK
6
CONTINUOUS
10
138.105
20
-65.26
11
138.125
21
-65.2973
0
LINE
8
BLACK
6
CONTINUOUS
10
138.125
20
-65.2973
11
138.137
21
-65.3379
0
LINE
8
BLACK
6
CONTINUOUS
10
138.137
20
-65.3379
11
138.141
21
-65.38
0
LINE
8
BLACK
6
CONTINUOUS
10
138.141
20
-65.38
11
138.137
21
-65.4221
0
LINE
8
BLACK
6
CONTINUOUS
10
138.137
20
-65.4221
11
138.125
21
-65.4627
0
LINE
8
BLACK
6
CONTINUOUS
10
138.125
20
-65.4627
11
138.105
21
-65.5
0
LINE
8
BLACK
6
CONTINUOUS
10
138.105
20
-65.5
11
138.078
21
-65.5328
0
LINE
8
BLACK
6
CONTINUOUS
10
138.078
20
-65.5328
11
138.045
21
-65.5596
0
LINE
8
BLACK
6
CONTINUOUS
10
138.045
20
-65.5596
11
138.008
21
-65.5796
0
LINE
8
BLACK
6
CONTINUOUS
10
138.008
20
-65.5796
11
137.967
21
-65.5919
0
LINE
8
BLACK
6
CONTINUOUS
10
137.967
20
-65.5919
11
137.936
21
-65.595
0
LINE
8
BLACK
6
CONTINUOUS
10
137.936
20
-65.595
11
137.787
21
-65.595
0
LINE
8
BLACK
6
CONTINUOUS
10
137.787
20
-65.595
11
137.786
21
-65.5991
0
LINE
8
BLACK
6
CONTINUOUS
10
137.786
20
-65.5991
11
137.782
21
-65.6078
0
LINE
8
BLACK
6
CONTINUOUS
10
137.782
20
-65.6078
11
137.775
21
-65.6154
0
LINE
8
BLACK
6
CONTINUOUS
10
137.775
20
-65.6154
11
137.768
21
-65.6216
0
LINE
8
BLACK
6
CONTINUOUS
10
137.768
20
-65.6216
11
137.759
21
-65.6262
0
LINE
8
BLACK
6
CONTINUOUS
10
137.759
20
-65.6262
11
137.75
21
-65.629
0
LINE
8
BLACK
6
CONTINUOUS
10
137.75
20
-65.629
11
137.74
21
-65.63
0
LINE
8
BLACK
6
CONTINUOUS
10
137.74
20
-65.63
11
135.499
21
-65.63
0
LINE
8
BLACK
6
CONTINUOUS
10
135.499
20
-65.63
11
135.49
21
-65.6291
0
LINE
8
BLACK
6
CONTINUOUS
10
135.49
20
-65.6291
11
135.48
21
-65.6263
0
LINE
8
BLACK
6
CONTINUOUS
10
135.48
20
-65.6263
11
135.472
21
-65.6217
0
LINE
8
BLACK
6
CONTINUOUS
10
135.472
20
-65.6217
11
135.464
21
-65.6156
0
LINE
8
BLACK
6
CONTINUOUS
10
135.464
20
-65.6156
11
135.458
21
-65.6081
0
LINE
8
BLACK
6
CONTINUOUS
10
135.458
20
-65.6081
11
135.454
21
-65.5996
0
LINE
8
BLACK
6
CONTINUOUS
10
135.454
20
-65.5996
11
135.451
21
-65.5904
0
LINE
8
BLACK
6
CONTINUOUS
10
135.451
20
-65.5904
11
135.45
21
-65.5807
0
LINE
8
BLACK
6
CONTINUOUS
10
135.45
20
-65.5807
11
135.45
21
-64.49
0
LINE
8
BLACK
6
CONTINUOUS
10
135.45
20
-64.49
11
133.31
21
-64.49
0
LINE
8
BLACK
6
CONTINUOUS
10
133.31
20
-64.49
11
133.31
21
-66.041
0
LINE
8
BLACK
6
CONTINUOUS
10
133.31
20
-66.041
11
133.308
21
-66.0584
0
LINE
8
BLACK
6
CONTINUOUS
10
133.308
20
-66.0584
11
133.303
21
-66.0751
0
LINE
8
BLACK
6
CONTINUOUS
10
133.303
20
-66.0751
11
133.295
21
-66.0904
0
LINE
8
BLACK
6
CONTINUOUS
10
133.295
20
-66.0904
11
133.284
21
-66.1039
0
LINE
8
BLACK
6
CONTINUOUS
10
133.284
20
-66.1039
11
133.27
21
-66.115
0
LINE
8
BLACK
6
CONTINUOUS
10
133.27
20
-66.115
11
133.255
21
-66.1232
0
LINE
8
BLACK
6
CONTINUOUS
10
133.255
20
-66.1232
11
133.238
21
-66.1283
0
LINE
8
BLACK
6
CONTINUOUS
10
133.238
20
-66.1283
11
133.221
21
-66.13
0
LINE
8
BLACK
6
CONTINUOUS
10
133.221
20
-66.13
11
131.619
21
-66.13
0
LINE
8
BLACK
6
CONTINUOUS
10
131.619
20
-66.13
11
131.602
21
-66.1283
0
LINE
8
BLACK
6
CONTINUOUS
10
131.602
20
-66.1283
11
131.585
21
-66.1232
0
LINE
8
BLACK
6
CONTINUOUS
10
131.585
20
-66.1232
11
131.57
21
-66.115
0
LINE
8
BLACK
6
CONTINUOUS
10
131.57
20
-66.115
11
131.556
21
-66.1039
0
LINE
8
BLACK
6
CONTINUOUS
10
131.556
20
-66.1039
11
131.545
21
-66.0904
0
LINE
8
BLACK
6
CONTINUOUS
10
131.545
20
-66.0904
11
131.537
21
-66.0751
0
LINE
8
BLACK
6
CONTINUOUS
10
131.537
20
-66.0751
11
131.532
21
-66.0584
0
LINE
8
BLACK
6
CONTINUOUS
10
131.532
20
-66.0584
11
131.53
21
-66.041
0
LINE
8
BLACK
6
CONTINUOUS
10
131.53
20
-66.041
11
131.53
21
-65.505
0
LINE
8
BLACK
6
CONTINUOUS
10
131.53
20
-65.505
11
127.262
21
-65.505
0
LINE
8
BLACK
6
CONTINUOUS
10
127.262
20
-65.505
11
127.085
21
-65.6818
0
LINE
8
BLACK
6
CONTINUOUS
10
127.085
20
-65.6818
11
127.085
21
-65.87
0
LINE
8
BLACK
6
CONTINUOUS
10
127.085
20
-65.87
11
127.31
21
-65.87
0
LINE
8
BLACK
6
CONTINUOUS
10
127.31
20
-65.87
11
127.359
21
-65.8748
0
LINE
8
BLACK
6
CONTINUOUS
10
127.359
20
-65.8748
11
127.406
21
-65.889
0
LINE
8
BLACK
6
CONTINUOUS
10
127.406
20
-65.889
11
127.449
21
-65.9121
0
LINE
8
BLACK
6
CONTINUOUS
10
127.449
20
-65.9121
11
127.487
21
-65.9432
0
LINE
8
BLACK
6
CONTINUOUS
10
127.487
20
-65.9432
11
127.518
21
-65.9811
0
LINE
8
BLACK
6
CONTINUOUS
10
127.518
20
-65.9811
11
127.541
21
-66.0243
0
LINE
8
BLACK
6
CONTINUOUS
10
127.541
20
-66.0243
11
127.555
21
-66.0712
0
LINE
8
BLACK
6
CONTINUOUS
10
127.555
20
-66.0712
11
127.56
21
-66.12
0
LINE
8
BLACK
6
CONTINUOUS
10
127.56
20
-66.12
11
127.56
21
-67.02
0
LINE
8
BLACK
6
CONTINUOUS
10
127.56
20
-67.02
11
127.555
21
-67.0688
0
LINE
8
BLACK
6
CONTINUOUS
10
127.555
20
-67.0688
11
127.541
21
-67.1157
0
LINE
8
BLACK
6
CONTINUOUS
10
127.541
20
-67.1157
11
127.518
21
-67.1589
0
LINE
8
BLACK
6
CONTINUOUS
10
127.518
20
-67.1589
11
127.487
21
-67.1968
0
LINE
8
BLACK
6
CONTINUOUS
10
127.487
20
-67.1968
11
127.449
21
-67.2279
0
LINE
8
BLACK
6
CONTINUOUS
10
127.449
20
-67.2279
11
127.406
21
-67.251
0
LINE
8
BLACK
6
CONTINUOUS
10
127.406
20
-67.251
11
127.359
21
-67.2652
0
LINE
8
BLACK
6
CONTINUOUS
10
127.359
20
-67.2652
11
127.31
21
-67.27
0
LINE
8
BLACK
6
CONTINUOUS
10
127.31
20
-67.27
11
127.085
21
-67.27
0
LINE
8
BLACK
6
CONTINUOUS
10
127.085
20
-67.27
11
127.085
21
-70.0682
0
LINE
8
BLACK
6
CONTINUOUS
10
127.085
20
-70.0682
11
128.499
21
-71.4825
0
LINE
8
BLACK
6
CONTINUOUS
10
128.499
20
-71.4825
11
130.235
21
-71.4825
0
LINE
8
BLACK
6
CONTINUOUS
10
130.235
20
-71.4825
11
130.235
21
-71.27
0
LINE
8
BLACK
6
CONTINUOUS
10
130.235
20
-71.27
11
130.24
21
-71.2212
0
LINE
8
BLACK
6
CONTINUOUS
10
130.24
20
-71.2212
11
130.254
21
-71.1743
0
LINE
8
BLACK
6
CONTINUOUS
10
130.254
20
-71.1743
11
130.277
21
-71.1311
0
LINE
8
BLACK
6
CONTINUOUS
10
130.277
20
-71.1311
11
130.308
21
-71.0932
0
LINE
8
BLACK
6
CONTINUOUS
10
130.308
20
-71.0932
11
130.346
21
-71.0621
0
LINE
8
BLACK
6
CONTINUOUS
10
130.346
20
-71.0621
11
130.389
21
-71.039
0
LINE
8
BLACK
6
CONTINUOUS
10
130.389
20
-71.039
11
130.436
21
-71.0248
0
LINE
8
BLACK
6
CONTINUOUS
10
130.436
20
-71.0248
11
130.485
21
-71.02
0
LINE
8
BLACK
6
CONTINUOUS
10
130.485
20
-71.02
11
131.435
21
-71.02
0
LINE
8
BLACK
6
CONTINUOUS
10
131.435
20
-71.02
11
131.484
21
-71.0248
0
LINE
8
BLACK
6
CONTINUOUS
10
131.484
20
-71.0248
11
131.531
21
-71.039
0
LINE
8
BLACK
6
CONTINUOUS
10
131.531
20
-71.039
11
131.574
21
-71.0621
0
LINE
8
BLACK
6
CONTINUOUS
10
131.574
20
-71.0621
11
131.612
21
-71.0932
0
LINE
8
BLACK
6
CONTINUOUS
10
131.612
20
-71.0932
11
131.643
21
-71.1311
0
LINE
8
BLACK
6
CONTINUOUS
10
131.643
20
-71.1311
11
131.666
21
-71.1743
0
LINE
8
BLACK
6
CONTINUOUS
10
131.666
20
-71.1743
11
131.68
21
-71.2212
0
LINE
8
BLACK
6
CONTINUOUS
10
131.68
20
-71.2212
11
131.685
21
-71.27
0
LINE
8
BLACK
6
CONTINUOUS
10
131.685
20
-71.27
11
131.685
21
-71.4725
0
LINE
8
BLACK
6
CONTINUOUS
10
131.685
20
-71.4725
11
132.365
21
-71.4725
0
LINE
8
BLACK
6
CONTINUOUS
10
132.365
20
-71.4725
11
132.365
21
-71.26
0
LINE
8
BLACK
6
CONTINUOUS
10
132.365
20
-71.26
11
132.37
21
-71.2112
0
LINE
8
BLACK
6
CONTINUOUS
10
132.37
20
-71.2112
11
132.384
21
-71.1643
0
LINE
8
BLACK
6
CONTINUOUS
10
132.384
20
-71.1643
11
132.407
21
-71.1211
0
LINE
8
BLACK
6
CONTINUOUS
10
132.407
20
-71.1211
11
132.438
21
-71.0832
0
LINE
8
BLACK
6
CONTINUOUS
10
132.438
20
-71.0832
11
132.476
21
-71.0521
0
LINE
8
BLACK
6
CONTINUOUS
10
132.476
20
-71.0521
11
132.519
21
-71.029
0
LINE
8
BLACK
6
CONTINUOUS
10
132.519
20
-71.029
11
132.566
21
-71.0148
0
LINE
8
BLACK
6
CONTINUOUS
10
132.566
20
-71.0148
11
132.615
21
-71.01
0
LINE
8
BLACK
6
CONTINUOUS
10
132.615
20
-71.01
11
133.565
21
-71.01
0
LINE
8
BLACK
6
CONTINUOUS
10
133.565
20
-71.01
11
133.614
21
-71.0148
0
LINE
8
BLACK
6
CONTINUOUS
10
133.614
20
-71.0148
11
133.661
21
-71.029
0
LINE
8
BLACK
6
CONTINUOUS
10
133.661
20
-71.029
11
133.704
21
-71.0521
0
LINE
8
BLACK
6
CONTINUOUS
10
133.704
20
-71.0521
11
133.742
21
-71.0832
0
LINE
8
BLACK
6
CONTINUOUS
10
133.742
20
-71.0832
11
133.773
21
-71.1211
0
LINE
8
BLACK
6
CONTINUOUS
10
133.773
20
-71.1211
11
133.796
21
-71.1643
0
LINE
8
BLACK
6
CONTINUOUS
10
133.796
20
-71.1643
11
133.81
21
-71.2112
0
LINE
8
BLACK
6
CONTINUOUS
10
133.81
20
-71.2112
11
133.815
21
-71.26
0
LINE
8
BLACK
6
CONTINUOUS
10
133.815
20
-71.26
11
133.815
21
-71.4725
0
LINE
8
BLACK
6
CONTINUOUS
10
133.815
20
-71.4725
11
134.475
21
-71.4725
0
LINE
8
BLACK
6
CONTINUOUS
10
134.475
20
-71.4725
11
134.475
21
-71.26
0
LINE
8
BLACK
6
CONTINUOUS
10
134.475
20
-71.26
11
134.48
21
-71.2112
0
LINE
8
BLACK
6
CONTINUOUS
10
134.48
20
-71.2112
11
134.494
21
-71.1643
0
LINE
8
BLACK
6
CONTINUOUS
10
134.494
20
-71.1643
11
134.517
21
-71.1211
0
LINE
8
BLACK
6
CONTINUOUS
10
134.517
20
-71.1211
11
134.548
21
-71.0832
0
LINE
8
BLACK
6
CONTINUOUS
10
134.548
20
-71.0832
11
134.586
21
-71.0521
0
LINE
8
BLACK
6
CONTINUOUS
10
134.586
20
-71.0521
11
134.629
21
-71.029
0
LINE
8
BLACK
6
CONTINUOUS
10
134.629
20
-71.029
11
134.676
21
-71.0148
0
LINE
8
BLACK
6
CONTINUOUS
10
134.676
20
-71.0148
11
134.725
21
-71.01
0
LINE
8
BLACK
6
CONTINUOUS
10
134.725
20
-71.01
11
135.675
21
-71.01
0
LINE
8
BLACK
6
CONTINUOUS
10
135.675
20
-71.01
11
135.724
21
-71.0148
0
LINE
8
BLACK
6
CONTINUOUS
10
135.724
20
-71.0148
11
135.771
21
-71.029
0
LINE
8
BLACK
6
CONTINUOUS
10
135.771
20
-71.029
11
135.814
21
-71.0521
0
LINE
8
BLACK
6
CONTINUOUS
10
135.814
20
-71.0521
11
135.852
21
-71.0832
0
LINE
8
BLACK
6
CONTINUOUS
10
135.852
20
-71.0832
11
135.883
21
-71.1211
0
LINE
8
BLACK
6
CONTINUOUS
10
135.883
20
-71.1211
11
135.906
21
-71.1643
0
LINE
8
BLACK
6
CONTINUOUS
10
135.906
20
-71.1643
11
135.92
21
-71.2112
0
LINE
8
BLACK
6
CONTINUOUS
10
135.92
20
-71.2112
11
135.925
21
-71.26
0
LINE
8
BLACK
6
CONTINUOUS
10
135.925
20
-71.26
11
135.925
21
-71.935
0
LINE
8
BLACK
6
CONTINUOUS
10
135.925
20
-71.935
11
135.92
21
-71.9838
0
LINE
8
BLACK
6
CONTINUOUS
10
135.92
20
-71.9838
11
135.906
21
-72.0307
0
LINE
8
BLACK
6
CONTINUOUS
10
135.906
20
-72.0307
11
135.883
21
-72.0739
0
LINE
8
BLACK
6
CONTINUOUS
10
135.883
20
-72.0739
11
135.852
21
-72.1118
0
LINE
8
BLACK
6
CONTINUOUS
10
135.852
20
-72.1118
11
135.814
21
-72.1429
0
LINE
8
BLACK
6
CONTINUOUS
10
135.814
20
-72.1429
11
135.771
21
-72.166
0
LINE
8
BLACK
6
CONTINUOUS
10
135.771
20
-72.166
11
135.724
21
-72.1802
0
LINE
8
BLACK
6
CONTINUOUS
10
135.724
20
-72.1802
11
135.675
21
-72.185
0
LINE
8
BLACK
6
CONTINUOUS
10
135.675
20
-72.185
11
134.725
21
-72.185
0
LINE
8
BLACK
6
CONTINUOUS
10
134.725
20
-72.185
11
134.676
21
-72.1802
0
LINE
8
BLACK
6
CONTINUOUS
10
134.676
20
-72.1802
11
134.629
21
-72.166
0
LINE
8
BLACK
6
CONTINUOUS
10
134.629
20
-72.166
11
134.586
21
-72.1429
0
LINE
8
BLACK
6
CONTINUOUS
10
134.586
20
-72.1429
11
134.548
21
-72.1118
0
LINE
8
BLACK
6
CONTINUOUS
10
134.548
20
-72.1118
11
134.517
21
-72.0739
0
LINE
8
BLACK
6
CONTINUOUS
10
134.517
20
-72.0739
11
134.494
21
-72.0307
0
LINE
8
BLACK
6
CONTINUOUS
10
134.494
20
-72.0307
11
134.48
21
-71.9838
0
LINE
8
BLACK
6
CONTINUOUS
10
134.48
20
-71.9838
11
134.475
21
-71.935
0
LINE
8
BLACK
6
CONTINUOUS
10
134.475
20
-71.935
11
134.475
21
-71.7225
0
LINE
8
BLACK
6
CONTINUOUS
10
134.475
20
-71.7225
11
133.815
21
-71.7225
0
LINE
8
BLACK
6
CONTINUOUS
10
133.815
20
-71.7225
11
133.815
21
-71.935
0
LINE
8
BLACK
6
CONTINUOUS
10
133.815
20
-71.935
11
133.81
21
-71.9838
0
LINE
8
BLACK
6
CONTINUOUS
10
133.81
20
-71.9838
11
133.796
21
-72.0307
0
LINE
8
BLACK
6
CONTINUOUS
10
133.796
20
-72.0307
11
133.773
21
-72.0739
0
LINE
8
BLACK
6
CONTINUOUS
10
133.773
20
-72.0739
11
133.742
21
-72.1118
0
LINE
8
BLACK
6
CONTINUOUS
10
133.742
20
-72.1118
11
133.704
21
-72.1429
0
LINE
8
BLACK
6
CONTINUOUS
10
133.704
20
-72.1429
11
133.661
21
-72.166
0
LINE
8
BLACK
6
CONTINUOUS
10
133.661
20
-72.166
11
133.614
21
-72.1802
0
LINE
8
BLACK
6
CONTINUOUS
10
133.614
20
-72.1802
11
133.565
21
-72.185
0
LINE
8
BLACK
6
CONTINUOUS
10
133.565
20
-72.185
11
132.615
21
-72.185
0
LINE
8
BLACK
6
CONTINUOUS
10
132.615
20
-72.185
11
132.566
21
-72.1802
0
LINE
8
BLACK
6
CONTINUOUS
10
132.566
20
-72.1802
11
132.519
21
-72.166
0
LINE
8
BLACK
6
CONTINUOUS
10
132.519
20
-72.166
11
132.476
21
-72.1429
0
LINE
8
BLACK
6
CONTINUOUS
10
132.476
20
-72.1429
11
132.438
21
-72.1118
0
LINE
8
BLACK
6
CONTINUOUS
10
132.438
20
-72.1118
11
132.407
21
-72.0739
0
LINE
8
BLACK
6
CONTINUOUS
10
132.407
20
-72.0739
11
132.384
21
-72.0307
0
LINE
8
BLACK
6
CONTINUOUS
10
132.384
20
-72.0307
11
132.37
21
-71.9838
0
LINE
8
BLACK
6
CONTINUOUS
10
132.37
20
-71.9838
11
132.365
21
-71.935
0
LINE
8
BLACK
6
CONTINUOUS
10
132.365
20
-71.935
11
132.365
21
-71.7225
0
LINE
8
BLACK
6
CONTINUOUS
10
132.365
20
-71.7225
11
131.685
21
-71.7225
0
LINE
8
BLACK
6
CONTINUOUS
10
131.685
20
-71.7225
11
131.685
21
-71.945
0
LINE
8
BLACK
6
CONTINUOUS
10
131.685
20
-71.945
11
131.68
21
-71.9938
0
LINE
8
BLACK
6
CONTINUOUS
10
131.68
20
-71.9938
11
131.666
21
-72.0407
0
LINE
8
BLACK
6
CONTINUOUS
10
131.666
20
-72.0407
11
131.643
21
-72.0839
0
LINE
8
BLACK
6
CONTINUOUS
10
131.643
20
-72.0839
11
131.612
21
-72.1218
0
LINE
8
BLACK
6
CONTINUOUS
10
131.612
20
-72.1218
11
131.574
21
-72.1529
0
LINE
8
BLACK
6
CONTINUOUS
10
131.574
20
-72.1529
11
131.531
21
-72.176
0
LINE
8
BLACK
6
CONTINUOUS
10
131.531
20
-72.176
11
131.484
21
-72.1902
0
LINE
8
BLACK
6
CONTINUOUS
10
131.484
20
-72.1902
11
131.435
21
-72.195
0
LINE
8
BLACK
6
CONTINUOUS
10
131.435
20
-72.195
11
130.485
21
-72.195
0
LINE
8
BLACK
6
CONTINUOUS
10
130.485
20
-72.195
11
130.436
21
-72.1902
0
LINE
8
BLACK
6
CONTINUOUS
10
130.436
20
-72.1902
11
130.389
21
-72.176
0
LINE
8
BLACK
6
CONTINUOUS
10
130.389
20
-72.176
11
130.346
21
-72.1529
0
LINE
8
BLACK
6
CONTINUOUS
10
130.346
20
-72.1529
11
130.308
21
-72.1218
0
LINE
8
BLACK
6
CONTINUOUS
10
130.308
20
-72.1218
11
130.277
21
-72.0839
0
LINE
8
BLACK
6
CONTINUOUS
10
130.277
20
-72.0839
11
130.254
21
-72.0407
0
LINE
8
BLACK
6
CONTINUOUS
10
130.254
20
-72.0407
11
130.24
21
-71.9938
0
LINE
8
BLACK
6
CONTINUOUS
10
130.24
20
-71.9938
11
130.235
21
-71.945
0
LINE
8
BLACK
6
CONTINUOUS
10
130.235
20
-71.945
11
130.235
21
-71.7325
0
LINE
8
BLACK
6
CONTINUOUS
10
130.235
20
-71.7325
11
128.454
21
-71.7325
0
LINE
8
BLACK
6
CONTINUOUS
10
128.454
20
-71.7325
11
128.447
21
-71.7331
0
LINE
8
BLACK
6
CONTINUOUS
10
128.447
20
-71.7331
11
128.441
21
-71.7325
0
LINE
8
BLACK
6
CONTINUOUS
10
128.441
20
-71.7325
11
128.441
21
-71.7325
0
LINE
8
BLACK
6
CONTINUOUS
10
128.441
20
-71.7325
11
128.423
21
-71.7307
0
LINE
8
BLACK
6
CONTINUOUS
10
128.423
20
-71.7307
11
128.399
21
-71.7235
0
LINE
8
BLACK
6
CONTINUOUS
10
128.399
20
-71.7235
11
128.381
21
-71.7135
0
LINE
8
BLACK
6
CONTINUOUS
10
128.381
20
-71.7135
11
128.378
21
-71.7119
0
LINE
8
BLACK
6
CONTINUOUS
10
128.378
20
-71.7119
11
128.363
21
-71.7002
0
LINE
8
BLACK
6
CONTINUOUS
10
128.363
20
-71.7002
11
128.359
21
-71.6963
0
LINE
8
BLACK
6
CONTINUOUS
10
128.359
20
-71.6963
11
128.355
21
-71.6916
0
LINE
8
BLACK
6
CONTINUOUS
10
128.355
20
-71.6916
11
126.876
21
-70.2127
0
LINE
8
BLACK
6
CONTINUOUS
10
126.876
20
-70.2127
11
126.871
21
-70.2088
0
LINE
8
BLACK
6
CONTINUOUS
10
126.871
20
-70.2088
11
126.856
21
-70.1898
0
LINE
8
BLACK
6
CONTINUOUS
10
126.856
20
-70.1898
11
126.844
21
-70.1681
0
LINE
8
BLACK
6
CONTINUOUS
10
126.844
20
-70.1681
11
126.837
21
-70.1445
0
LINE
8
BLACK
6
CONTINUOUS
10
126.837
20
-70.1445
11
126.835
21
-70.1261
0
LINE
8
BLACK
6
CONTINUOUS
10
126.835
20
-70.1261
11
126.835
21
-70.1261
0
LINE
8
BLACK
6
CONTINUOUS
10
126.835
20
-70.1261
11
126.834
21
-70.12
0
LINE
8
BLACK
6
CONTINUOUS
10
126.834
20
-70.12
11
126.835
21
-70.1139
0
LINE
8
BLACK
6
CONTINUOUS
10
126.835
20
-70.1139
11
126.835
21
-67.27
0
LINE
8
BLACK
6
CONTINUOUS
10
126.835
20
-67.27
11
126.61
21
-67.27
0
LINE
8
BLACK
6
CONTINUOUS
10
126.61
20
-67.27
11
126.561
21
-67.2652
0
LINE
8
BLACK
6
CONTINUOUS
10
126.561
20
-67.2652
11
126.514
21
-67.251
0
LINE
8
BLACK
6
CONTINUOUS
10
126.514
20
-67.251
11
126.471
21
-67.2279
0
LINE
8
BLACK
6
CONTINUOUS
10
126.471
20
-67.2279
11
126.433
21
-67.1968
0
LINE
8
BLACK
6
CONTINUOUS
10
126.433
20
-67.1968
11
126.402
21
-67.1589
0
LINE
8
BLACK
6
CONTINUOUS
10
126.402
20
-67.1589
11
126.379
21
-67.1157
0
LINE
8
BLACK
6
CONTINUOUS
10
126.379
20
-67.1157
11
126.365
21
-67.0688
0
LINE
8
BLACK
6
CONTINUOUS
10
126.365
20
-67.0688
11
126.36
21
-67.02
0
LINE
8
BLACK
6
CONTINUOUS
10
126.36
20
-67.02
11
126.36
21
-66.12
0
LINE
8
BLACK
6
CONTINUOUS
10
126.36
20
-66.12
11
126.365
21
-66.0712
0
LINE
8
BLACK
6
CONTINUOUS
10
126.365
20
-66.0712
11
126.379
21
-66.0243
0
LINE
8
BLACK
6
CONTINUOUS
10
126.379
20
-66.0243
11
126.402
21
-65.9811
0
LINE
8
BLACK
6
CONTINUOUS
10
126.402
20
-65.9811
11
126.433
21
-65.9432
0
LINE
8
BLACK
6
CONTINUOUS
10
126.433
20
-65.9432
11
126.471
21
-65.9121
0
LINE
8
BLACK
6
CONTINUOUS
10
126.471
20
-65.9121
11
126.514
21
-65.889
0
LINE
8
BLACK
6
CONTINUOUS
10
126.514
20
-65.889
11
126.561
21
-65.8748
0
LINE
8
BLACK
6
CONTINUOUS
10
126.561
20
-65.8748
11
126.61
21
-65.87
0
LINE
8
BLACK
6
CONTINUOUS
10
126.61
20
-65.87
11
126.835
21
-65.87
0
LINE
8
BLACK
6
CONTINUOUS
10
126.835
20
-65.87
11
126.835
21
-65.6361
0
LINE
8
BLACK
6
CONTINUOUS
10
126.835
20
-65.6361
11
126.834
21
-65.63
0
LINE
8
BLACK
6
CONTINUOUS
10
126.834
20
-65.63
11
126.837
21
-65.6055
0
LINE
8
BLACK
6
CONTINUOUS
10
126.837
20
-65.6055
11
126.844
21
-65.5819
0
LINE
8
BLACK
6
CONTINUOUS
10
126.844
20
-65.5819
11
126.856
21
-65.5602
0
LINE
8
BLACK
6
CONTINUOUS
10
126.856
20
-65.5602
11
126.867
21
-65.5459
0
LINE
8
BLACK
6
CONTINUOUS
10
126.867
20
-65.5459
11
126.867
21
-65.5459
0
LINE
8
BLACK
6
CONTINUOUS
10
126.867
20
-65.5459
11
126.871
21
-65.5412
0
LINE
8
BLACK
6
CONTINUOUS
10
126.871
20
-65.5412
11
126.876
21
-65.5373
0
LINE
8
BLACK
6
CONTINUOUS
10
126.876
20
-65.5373
11
127.033
21
-65.38
0
LINE
8
BLACK
6
CONTINUOUS
10
127.033
20
-65.38
11
126.866
21
-65.2127
0
LINE
8
BLACK
6
CONTINUOUS
10
126.866
20
-65.2127
11
126.861
21
-65.2088
0
LINE
8
BLACK
6
CONTINUOUS
10
126.861
20
-65.2088
11
126.846
21
-65.1898
0
LINE
8
BLACK
6
CONTINUOUS
10
126.846
20
-65.1898
11
126.834
21
-65.1681
0
LINE
8
BLACK
6
CONTINUOUS
10
126.834
20
-65.1681
11
126.827
21
-65.1445
0
LINE
8
BLACK
6
CONTINUOUS
10
126.827
20
-65.1445
11
126.825
21
-65.1261
0
LINE
8
BLACK
6
CONTINUOUS
10
126.825
20
-65.1261
11
126.825
21
-65.1261
0
LINE
8
BLACK
6
CONTINUOUS
10
126.825
20
-65.1261
11
126.824
21
-65.12
0
LINE
8
BLACK
6
CONTINUOUS
10
126.824
20
-65.12
11
126.825
21
-65.1139
0
LINE
8
BLACK
6
CONTINUOUS
10
126.825
20
-65.1139
11
126.825
21
-64.86
0
LINE
8
BLACK
6
CONTINUOUS
10
126.825
20
-64.86
11
126.6
21
-64.86
0
LINE
8
BLACK
6
CONTINUOUS
10
126.6
20
-64.86
11
126.551
21
-64.8552
0
LINE
8
BLACK
6
CONTINUOUS
10
126.551
20
-64.8552
11
126.504
21
-64.841
0
LINE
8
BLACK
6
CONTINUOUS
10
126.504
20
-64.841
11
126.461
21
-64.8179
0
LINE
8
BLACK
6
CONTINUOUS
10
126.461
20
-64.8179
11
126.423
21
-64.7868
0
LINE
8
BLACK
6
CONTINUOUS
10
126.423
20
-64.7868
11
126.392
21
-64.7489
0
LINE
8
BLACK
6
CONTINUOUS
10
126.392
20
-64.7489
11
126.369
21
-64.7057
0
LINE
8
BLACK
6
CONTINUOUS
10
126.369
20
-64.7057
11
126.355
21
-64.6588
0
LINE
8
BLACK
6
CONTINUOUS
10
126.355
20
-64.6588
11
126.35
21
-64.61
0
LINE
8
BLACK
6
CONTINUOUS
10
126.35
20
-64.61
11
126.35
21
-63.71
0
LINE
8
BLACK
6
CONTINUOUS
10
126.35
20
-63.71
11
126.355
21
-63.6612
0
LINE
8
BLACK
6
CONTINUOUS
10
126.355
20
-63.6612
11
126.369
21
-63.6143
0
LINE
8
BLACK
6
CONTINUOUS
10
126.369
20
-63.6143
11
126.392
21
-63.5711
0
LINE
8
BLACK
6
CONTINUOUS
10
126.392
20
-63.5711
11
126.423
21
-63.5332
0
LINE
8
BLACK
6
CONTINUOUS
10
126.423
20
-63.5332
11
126.461
21
-63.5021
0
LINE
8
BLACK
6
CONTINUOUS
10
126.461
20
-63.5021
11
126.504
21
-63.479
0
LINE
8
BLACK
6
CONTINUOUS
10
126.504
20
-63.479
11
126.551
21
-63.4648
0
LINE
8
BLACK
6
CONTINUOUS
10
126.551
20
-63.4648
11
126.6
21
-63.46
0
LINE
8
BLACK
6
CONTINUOUS
10
126.6
20
-63.46
11
126.825
21
-63.46
0
LINE
8
BLACK
6
CONTINUOUS
10
126.825
20
-63.46
11
126.825
21
-62.82
0
LINE
8
BLACK
6
CONTINUOUS
10
126.825
20
-62.82
11
126.59
21
-62.82
0
LINE
8
BLACK
6
CONTINUOUS
10
126.59
20
-62.82
11
126.541
21
-62.8152
0
LINE
8
BLACK
6
CONTINUOUS
10
126.541
20
-62.8152
11
126.494
21
-62.801
0
LINE
8
BLACK
6
CONTINUOUS
10
126.494
20
-62.801
11
126.451
21
-62.7779
0
LINE
8
BLACK
6
CONTINUOUS
10
126.451
20
-62.7779
11
126.413
21
-62.7468
0
LINE
8
BLACK
6
CONTINUOUS
10
126.413
20
-62.7468
11
126.382
21
-62.7089
0
LINE
8
BLACK
6
CONTINUOUS
10
126.382
20
-62.7089
11
126.359
21
-62.6657
0
LINE
8
BLACK
6
CONTINUOUS
10
126.359
20
-62.6657
11
126.345
21
-62.6188
0
LINE
8
BLACK
6
CONTINUOUS
10
126.345
20
-62.6188
11
126.34
21
-62.57
0
LINE
8
BLACK
6
CONTINUOUS
10
126.34
20
-62.57
11
126.34
21
-61.67
0
LINE
8
BLACK
6
CONTINUOUS
10
126.34
20
-61.67
11
126.345
21
-61.6212
0
LINE
8
BLACK
6
CONTINUOUS
10
126.345
20
-61.6212
11
126.359
21
-61.5743
0
LINE
8
BLACK
6
CONTINUOUS
10
126.359
20
-61.5743
11
126.382
21
-61.5311
0
LINE
8
BLACK
6
CONTINUOUS
10
126.382
20
-61.5311
11
126.413
21
-61.4932
0
LINE
8
BLACK
6
CONTINUOUS
10
126.413
20
-61.4932
11
126.451
21
-61.4621
0
LINE
8
BLACK
6
CONTINUOUS
10
126.451
20
-61.4621
11
126.494
21
-61.439
0
LINE
8
BLACK
6
CONTINUOUS
10
126.494
20
-61.439
11
126.541
21
-61.4248
0
LINE
8
BLACK
6
CONTINUOUS
10
126.541
20
-61.4248
11
126.59
21
-61.42
0
LINE
8
BLACK
6
CONTINUOUS
10
126.59
20
-61.42
11
126.815
21
-61.42
0
LINE
8
BLACK
6
CONTINUOUS
10
126.815
20
-61.42
11
126.815
21
-60.5286
0
LINE
8
BLACK
6
CONTINUOUS
10
126.815
20
-60.5286
11
126.814
21
-60.5225
0
LINE
8
BLACK
6
CONTINUOUS
10
126.814
20
-60.5225
11
126.817
21
-60.498
0
LINE
8
BLACK
6
CONTINUOUS
10
126.817
20
-60.498
11
126.824
21
-60.4744
0
LINE
8
BLACK
6
CONTINUOUS
10
126.824
20
-60.4744
11
126.836
21
-60.4527
0
LINE
8
BLACK
6
CONTINUOUS
10
126.836
20
-60.4527
11
126.847
21
-60.4384
0
LINE
8
BLACK
6
CONTINUOUS
10
126.847
20
-60.4384
11
126.847
21
-60.4384
0
LINE
8
BLACK
6
CONTINUOUS
10
126.847
20
-60.4384
11
126.851
21
-60.4337
0
LINE
8
BLACK
6
CONTINUOUS
10
126.851
20
-60.4337
11
126.856
21
-60.4298
0
LINE
8
BLACK
6
CONTINUOUS
10
126.856
20
-60.4298
11
126.885
21
-60.4007
0
LINE
8
BLACK
6
CONTINUOUS
10
126.885
20
-60.4007
11
126.885
21
-59.9193
0
LINE
8
BLACK
6
CONTINUOUS
10
126.885
20
-59.9193
11
125.986
21
-59.0202
0
LINE
8
BLACK
6
CONTINUOUS
10
125.986
20
-59.0202
11
125.981
21
-59.0163
0
LINE
8
BLACK
6
CONTINUOUS
10
125.981
20
-59.0163
11
125.977
21
-59.0115
0
LINE
8
BLACK
6
CONTINUOUS
10
125.977
20
-59.0115
11
125.966
21
-58.9973
0
LINE
8
BLACK
6
CONTINUOUS
10
125.966
20
-58.9973
11
125.954
21
-58.9756
0
LINE
8
BLACK
6
CONTINUOUS
10
125.954
20
-58.9756
11
125.947
21
-58.952
0
LINE
8
BLACK
6
CONTINUOUS
10
125.947
20
-58.952
11
125.944
21
-58.9275
0
LINE
8
BLACK
6
CONTINUOUS
10
125.944
20
-58.9275
11
125.945
21
-58.9214
0
LINE
8
BLACK
6
CONTINUOUS
10
125.945
20
-58.9214
11
125.945
21
-57.08
0
LINE
8
BLACK
6
CONTINUOUS
10
125.945
20
-57.08
11
125.02
21
-57.08
0
LINE
8
BLACK
6
CONTINUOUS
10
125.02
20
-57.08
11
124.971
21
-57.0752
0
LINE
8
BLACK
6
CONTINUOUS
10
124.971
20
-57.0752
11
124.924
21
-57.061
0
LINE
8
BLACK
6
CONTINUOUS
10
124.924
20
-57.061
11
124.881
21
-57.0379
0
LINE
8
BLACK
6
CONTINUOUS
10
124.881
20
-57.0379
11
124.843
21
-57.0068
0
LINE
8
BLACK
6
CONTINUOUS
10
124.843
20
-57.0068
11
124.812
21
-56.9689
0
LINE
8
BLACK
6
CONTINUOUS
10
124.812
20
-56.9689
11
124.789
21
-56.9257
0
LINE
8
BLACK
6
CONTINUOUS
10
124.789
20
-56.9257
11
124.775
21
-56.8788
0
LINE
8
BLACK
6
CONTINUOUS
10
124.775
20
-56.8788
11
124.77
21
-56.83
0
LINE
8
BLACK
6
CONTINUOUS
10
124.77
20
-56.83
11
124.77
21
-55.73
0
LINE
8
BLACK
6
CONTINUOUS
10
124.77
20
-55.73
11
124.775
21
-55.6812
0
LINE
8
BLACK
6
CONTINUOUS
10
124.775
20
-55.6812
11
124.789
21
-55.6343
0
LINE
8
BLACK
6
CONTINUOUS
10
124.789
20
-55.6343
11
124.812
21
-55.5911
0
LINE
8
BLACK
6
CONTINUOUS
10
124.812
20
-55.5911
11
124.843
21
-55.5532
0
LINE
8
BLACK
6
CONTINUOUS
10
124.843
20
-55.5532
11
124.881
21
-55.5221
0
LINE
8
BLACK
6
CONTINUOUS
10
124.881
20
-55.5221
11
124.924
21
-55.499
0
LINE
8
BLACK
6
CONTINUOUS
10
124.924
20
-55.499
11
124.971
21
-55.4848
0
LINE
8
BLACK
6
CONTINUOUS
10
124.971
20
-55.4848
11
125.02
21
-55.48
0
LINE
8
BLACK
6
CONTINUOUS
10
125.02
20
-55.48
11
127.12
21
-55.48
0
LINE
8
BLACK
6
CONTINUOUS
10
127.12
20
-55.48
11
127.169
21
-55.4848
0
LINE
8
BLACK
6
CONTINUOUS
10
127.169
20
-55.4848
11
127.216
21
-55.499
0
LINE
8
BLACK
6
CONTINUOUS
10
127.216
20
-55.499
11
127.259
21
-55.5221
0
LINE
8
BLACK
6
CONTINUOUS
10
127.259
20
-55.5221
11
127.297
21
-55.5532
0
LINE
8
BLACK
6
CONTINUOUS
10
127.297
20
-55.5532
11
127.328
21
-55.5911
0
LINE
8
BLACK
6
CONTINUOUS
10
127.328
20
-55.5911
11
127.351
21
-55.6343
0
LINE
8
BLACK
6
CONTINUOUS
10
127.351
20
-55.6343
11
127.365
21
-55.6812
0
LINE
8
BLACK
6
CONTINUOUS
10
127.365
20
-55.6812
11
127.37
21
-55.73
0
LINE
8
BLACK
6
CONTINUOUS
10
127.37
20
-55.73
11
127.37
21
-56.83
0
LINE
8
BLACK
6
CONTINUOUS
10
127.37
20
-56.83
11
127.365
21
-56.8788
0
LINE
8
BLACK
6
CONTINUOUS
10
127.365
20
-56.8788
11
127.351
21
-56.9257
0
LINE
8
BLACK
6
CONTINUOUS
10
127.351
20
-56.9257
11
127.328
21
-56.9689
0
LINE
8
BLACK
6
CONTINUOUS
10
127.328
20
-56.9689
11
127.297
21
-57.0068
0
LINE
8
BLACK
6
CONTINUOUS
10
127.297
20
-57.0068
11
127.259
21
-57.0379
0
LINE
8
BLACK
6
CONTINUOUS
10
127.259
20
-57.0379
11
127.216
21
-57.061
0
LINE
8
BLACK
6
CONTINUOUS
10
127.216
20
-57.061
11
127.169
21
-57.0752
0
LINE
8
BLACK
6
CONTINUOUS
10
127.169
20
-57.0752
11
127.12
21
-57.08
0
LINE
8
BLACK
6
CONTINUOUS
10
127.12
20
-57.08
11
126.195
21
-57.08
0
LINE
8
BLACK
6
CONTINUOUS
10
126.195
20
-57.08
11
126.195
21
-58.8757
0
LINE
8
BLACK
6
CONTINUOUS
10
126.195
20
-58.8757
11
126.926
21
-59.6063
0
LINE
8
BLACK
6
CONTINUOUS
10
126.926
20
-59.6063
11
126.946
21
-59.5811
0
LINE
8
BLACK
6
CONTINUOUS
10
126.946
20
-59.5811
11
126.978
21
-59.5552
0
LINE
8
BLACK
6
CONTINUOUS
10
126.978
20
-59.5552
11
127.014
21
-59.5359
0
LINE
8
BLACK
6
CONTINUOUS
10
127.014
20
-59.5359
11
127.053
21
-59.524
0
LINE
8
BLACK
6
CONTINUOUS
10
127.053
20
-59.524
11
127.094
21
-59.52
0
LINE
8
BLACK
6
CONTINUOUS
10
127.094
20
-59.52
11
127.511
21
-59.52
0
LINE
8
BLACK
6
CONTINUOUS
10
127.511
20
-59.52
11
127.552
21
-59.524
0
LINE
8
BLACK
6
CONTINUOUS
10
127.552
20
-59.524
11
127.591
21
-59.5359
0
LINE
8
BLACK
6
CONTINUOUS
10
127.591
20
-59.5359
11
127.627
21
-59.5552
0
LINE
8
BLACK
6
CONTINUOUS
10
127.627
20
-59.5552
11
127.659
21
-59.5811
0
LINE
8
BLACK
6
CONTINUOUS
10
127.659
20
-59.5811
11
127.685
21
-59.6128
0
LINE
8
BLACK
6
CONTINUOUS
10
127.685
20
-59.6128
11
127.704
21
-59.6489
0
LINE
8
BLACK
6
CONTINUOUS
10
127.704
20
-59.6489
11
127.716
21
-59.688
0
LINE
8
BLACK
6
CONTINUOUS
10
127.716
20
-59.688
11
127.72
21
-59.7287
0
LINE
8
BLACK
6
CONTINUOUS
10
127.72
20
-59.7287
11
127.72
21
-60.5912
0
LINE
8
BLACK
6
CONTINUOUS
10
127.72
20
-60.5912
11
127.716
21
-60.632
0
LINE
8
BLACK
6
CONTINUOUS
10
127.716
20
-60.632
11
127.704
21
-60.6711
0
LINE
8
BLACK
6
CONTINUOUS
10
127.704
20
-60.6711
11
127.685
21
-60.7072
0
LINE
8
BLACK
6
CONTINUOUS
10
127.685
20
-60.7072
11
127.659
21
-60.7389
0
LINE
8
BLACK
6
CONTINUOUS
10
127.659
20
-60.7389
11
127.627
21
-60.7648
0
LINE
8
BLACK
6
CONTINUOUS
10
127.627
20
-60.7648
11
127.591
21
-60.7841
0
LINE
8
BLACK
6
CONTINUOUS
10
127.591
20
-60.7841
11
127.552
21
-60.796
0
LINE
8
BLACK
6
CONTINUOUS
10
127.552
20
-60.796
11
127.511
21
-60.8
0
LINE
8
BLACK
6
CONTINUOUS
10
127.511
20
-60.8
11
127.094
21
-60.8
0
LINE
8
BLACK
6
CONTINUOUS
10
127.094
20
-60.8
11
127.065
21
-60.7972
0
LINE
8
BLACK
6
CONTINUOUS
10
127.065
20
-60.7972
11
127.065
21
-61.42
0
LINE
8
BLACK
6
CONTINUOUS
10
127.065
20
-61.42
11
127.29
21
-61.42
0
LINE
8
BLACK
6
CONTINUOUS
10
127.29
20
-61.42
11
127.339
21
-61.4248
0
LINE
8
BLACK
6
CONTINUOUS
10
127.339
20
-61.4248
11
127.386
21
-61.439
0
LINE
8
BLACK
6
CONTINUOUS
10
127.386
20
-61.439
11
127.429
21
-61.4621
0
LINE
8
BLACK
6
CONTINUOUS
10
127.429
20
-61.4621
11
127.467
21
-61.4932
0
LINE
8
BLACK
6
CONTINUOUS
10
127.467
20
-61.4932
11
127.498
21
-61.5311
0
LINE
8
BLACK
6
CONTINUOUS
10
127.498
20
-61.5311
11
127.521
21
-61.5743
0
LINE
8
BLACK
6
CONTINUOUS
10
127.521
20
-61.5743
11
127.535
21
-61.6212
0
LINE
8
BLACK
6
CONTINUOUS
10
127.535
20
-61.6212
11
127.54
21
-61.67
0
LINE
8
BLACK
6
CONTINUOUS
10
127.54
20
-61.67
11
127.54
21
-62.57
0
LINE
8
BLACK
6
CONTINUOUS
10
127.54
20
-62.57
11
127.535
21
-62.6188
0
LINE
8
BLACK
6
CONTINUOUS
10
127.535
20
-62.6188
11
127.521
21
-62.6657
0
LINE
8
BLACK
6
CONTINUOUS
10
127.521
20
-62.6657
11
127.498
21
-62.7089
0
LINE
8
BLACK
6
CONTINUOUS
10
127.498
20
-62.7089
11
127.467
21
-62.7468
0
LINE
8
BLACK
6
CONTINUOUS
10
127.467
20
-62.7468
11
127.429
21
-62.7779
0
LINE
8
BLACK
6
CONTINUOUS
10
127.429
20
-62.7779
11
127.386
21
-62.801
0
LINE
8
BLACK
6
CONTINUOUS
10
127.386
20
-62.801
11
127.339
21
-62.8152
0
LINE
8
BLACK
6
CONTINUOUS
10
127.339
20
-62.8152
11
127.29
21
-62.82
0
LINE
8
BLACK
6
CONTINUOUS
10
127.29
20
-62.82
11
127.075
21
-62.82
0
LINE
8
BLACK
6
CONTINUOUS
10
127.075
20
-62.82
11
127.075
21
-63.46
0
LINE
8
BLACK
6
CONTINUOUS
10
127.075
20
-63.46
11
127.3
21
-63.46
0
LINE
8
BLACK
6
CONTINUOUS
10
127.3
20
-63.46
11
127.349
21
-63.4648
0
LINE
8
BLACK
6
CONTINUOUS
10
127.349
20
-63.4648
11
127.396
21
-63.479
0
LINE
8
BLACK
6
CONTINUOUS
10
127.396
20
-63.479
11
127.439
21
-63.5021
0
LINE
8
BLACK
6
CONTINUOUS
10
127.439
20
-63.5021
11
127.477
21
-63.5332
0
LINE
8
BLACK
6
CONTINUOUS
10
127.477
20
-63.5332
11
127.508
21
-63.5711
0
LINE
8
BLACK
6
CONTINUOUS
10
127.508
20
-63.5711
11
127.531
21
-63.6143
0
LINE
8
BLACK
6
CONTINUOUS
10
127.531
20
-63.6143
11
127.545
21
-63.6612
0
LINE
8
BLACK
6
CONTINUOUS
10
127.545
20
-63.6612
11
127.55
21
-63.71
0
LINE
8
BLACK
6
CONTINUOUS
10
127.55
20
-63.71
11
127.55
21
-64.61
0
LINE
8
BLACK
6
CONTINUOUS
10
127.55
20
-64.61
11
127.545
21
-64.6588
0
LINE
8
BLACK
6
CONTINUOUS
10
127.545
20
-64.6588
11
127.531
21
-64.7057
0
LINE
8
BLACK
6
CONTINUOUS
10
127.531
20
-64.7057
11
127.508
21
-64.7489
0
LINE
8
BLACK
6
CONTINUOUS
10
127.508
20
-64.7489
11
127.477
21
-64.7868
0
LINE
8
BLACK
6
CONTINUOUS
10
127.477
20
-64.7868
11
127.439
21
-64.8179
0
LINE
8
BLACK
6
CONTINUOUS
10
127.439
20
-64.8179
11
127.396
21
-64.841
0
LINE
8
BLACK
6
CONTINUOUS
10
127.396
20
-64.841
11
127.349
21
-64.8552
0
LINE
8
BLACK
6
CONTINUOUS
10
127.349
20
-64.8552
11
127.3
21
-64.86
0
LINE
8
BLACK
6
CONTINUOUS
10
127.3
20
-64.86
11
127.075
21
-64.86
0
LINE
8
BLACK
6
CONTINUOUS
10
127.075
20
-64.86
11
127.075
21
-65.0682
0
LINE
8
BLACK
6
CONTINUOUS
10
127.075
20
-65.0682
11
127.262
21
-65.255
0
LINE
8
BLACK
6
CONTINUOUS
10
127.262
20
-65.255
11
131.53
21
-65.255
0
LINE
8
BLACK
6
CONTINUOUS
10
131.53
20
-65.255
11
131.53
21
-63.1468
0
LINE
8
BLACK
6
CONTINUOUS
10
133.09
20
-66.4814
11
133.108
21
-66.4872
0
LINE
8
BLACK
6
CONTINUOUS
10
133.108
20
-66.4872
11
133.126
21
-66.4965
0
LINE
8
BLACK
6
CONTINUOUS
10
133.126
20
-66.4965
11
133.141
21
-66.5089
0
LINE
8
BLACK
6
CONTINUOUS
10
133.141
20
-66.5089
11
133.154
21
-66.5242
0
LINE
8
BLACK
6
CONTINUOUS
10
133.154
20
-66.5242
11
133.163
21
-66.5415
0
LINE
8
BLACK
6
CONTINUOUS
10
133.163
20
-66.5415
11
133.169
21
-66.5604
0
LINE
8
BLACK
6
CONTINUOUS
10
133.169
20
-66.5604
11
133.17
21
-66.5751
0
LINE
8
BLACK
6
CONTINUOUS
10
133.17
20
-66.5751
11
133.17
21
-66.7798
0
LINE
8
BLACK
6
CONTINUOUS
10
133.17
20
-66.7798
11
133.174
21
-66.7852
0
LINE
8
BLACK
6
CONTINUOUS
10
133.174
20
-66.7852
11
133.186
21
-66.8069
0
LINE
8
BLACK
6
CONTINUOUS
10
133.186
20
-66.8069
11
133.193
21
-66.8305
0
LINE
8
BLACK
6
CONTINUOUS
10
133.193
20
-66.8305
11
133.195
21
-66.8489
0
LINE
8
BLACK
6
CONTINUOUS
10
133.195
20
-66.8489
11
133.195
21
-67.4164
0
LINE
8
BLACK
6
CONTINUOUS
10
133.195
20
-67.4164
11
133.196
21
-67.4225
0
LINE
8
BLACK
6
CONTINUOUS
10
133.196
20
-67.4225
11
133.195
21
-67.4286
0
LINE
8
BLACK
6
CONTINUOUS
10
133.195
20
-67.4286
11
133.195
21
-67.4286
0
LINE
8
BLACK
6
CONTINUOUS
10
133.195
20
-67.4286
11
133.194
21
-67.441
0
LINE
8
BLACK
6
CONTINUOUS
10
133.194
20
-67.441
11
133.193
21
-67.447
0
LINE
8
BLACK
6
CONTINUOUS
10
133.193
20
-67.447
11
133.186
21
-67.4706
0
LINE
8
BLACK
6
CONTINUOUS
10
133.186
20
-67.4706
11
133.174
21
-67.4923
0
LINE
8
BLACK
6
CONTINUOUS
10
133.174
20
-67.4923
11
133.163
21
-67.5066
0
LINE
8
BLACK
6
CONTINUOUS
10
133.163
20
-67.5066
11
133.163
21
-67.5066
0
LINE
8
BLACK
6
CONTINUOUS
10
133.163
20
-67.5066
11
133.159
21
-67.5113
0
LINE
8
BLACK
6
CONTINUOUS
10
133.159
20
-67.5113
11
133.154
21
-67.5152
0
LINE
8
BLACK
6
CONTINUOUS
10
133.154
20
-67.5152
11
131.629
21
-69.0398
0
LINE
8
BLACK
6
CONTINUOUS
10
131.629
20
-69.0398
11
131.643
21
-69.0561
0
LINE
8
BLACK
6
CONTINUOUS
10
131.643
20
-69.0561
11
131.666
21
-69.0993
0
LINE
8
BLACK
6
CONTINUOUS
10
131.666
20
-69.0993
11
131.68
21
-69.1462
0
LINE
8
BLACK
6
CONTINUOUS
10
131.68
20
-69.1462
11
131.685
21
-69.195
0
LINE
8
BLACK
6
CONTINUOUS
10
131.685
20
-69.195
11
131.685
21
-69.87
0
LINE
8
BLACK
6
CONTINUOUS
10
131.685
20
-69.87
11
131.68
21
-69.9188
0
LINE
8
BLACK
6
CONTINUOUS
10
131.68
20
-69.9188
11
131.666
21
-69.9657
0
LINE
8
BLACK
6
CONTINUOUS
10
131.666
20
-69.9657
11
131.643
21
-70.0089
0
LINE
8
BLACK
6
CONTINUOUS
10
131.643
20
-70.0089
11
131.612
21
-70.0468
0
LINE
8
BLACK
6
CONTINUOUS
10
131.612
20
-70.0468
11
131.574
21
-70.0779
0
LINE
8
BLACK
6
CONTINUOUS
10
131.574
20
-70.0779
11
131.531
21
-70.101
0
LINE
8
BLACK
6
CONTINUOUS
10
131.531
20
-70.101
11
131.484
21
-70.1152
0
LINE
8
BLACK
6
CONTINUOUS
10
131.484
20
-70.1152
11
131.435
21
-70.12
0
LINE
8
BLACK
6
CONTINUOUS
10
131.435
20
-70.12
11
130.485
21
-70.12
0
LINE
8
BLACK
6
CONTINUOUS
10
130.485
20
-70.12
11
130.436
21
-70.1152
0
LINE
8
BLACK
6
CONTINUOUS
10
130.436
20
-70.1152
11
130.389
21
-70.101
0
LINE
8
BLACK
6
CONTINUOUS
10
130.389
20
-70.101
11
130.346
21
-70.0779
0
LINE
8
BLACK
6
CONTINUOUS
10
130.346
20
-70.0779
11
130.308
21
-70.0468
0
LINE
8
BLACK
6
CONTINUOUS
10
130.308
20
-70.0468
11
130.277
21
-70.0089
0
LINE
8
BLACK
6
CONTINUOUS
10
130.277
20
-70.0089
11
130.254
21
-69.9657
0
LINE
8
BLACK
6
CONTINUOUS
10
130.254
20
-69.9657
11
130.24
21
-69.9188
0
LINE
8
BLACK
6
CONTINUOUS
10
130.24
20
-69.9188
11
130.235
21
-69.87
0
LINE
8
BLACK
6
CONTINUOUS
10
130.235
20
-69.87
11
130.235
21
-69.195
0
LINE
8
BLACK
6
CONTINUOUS
10
130.235
20
-69.195
11
130.24
21
-69.1462
0
LINE
8
BLACK
6
CONTINUOUS
10
130.24
20
-69.1462
11
130.254
21
-69.0993
0
LINE
8
BLACK
6
CONTINUOUS
10
130.254
20
-69.0993
11
130.277
21
-69.0561
0
LINE
8
BLACK
6
CONTINUOUS
10
130.277
20
-69.0561
11
130.308
21
-69.0182
0
LINE
8
BLACK
6
CONTINUOUS
10
130.308
20
-69.0182
11
130.346
21
-68.9871
0
LINE
8
BLACK
6
CONTINUOUS
10
130.346
20
-68.9871
11
130.389
21
-68.964
0
LINE
8
BLACK
6
CONTINUOUS
10
130.389
20
-68.964
11
130.436
21
-68.9498
0
LINE
8
BLACK
6
CONTINUOUS
10
130.436
20
-68.9498
11
130.485
21
-68.945
0
LINE
8
BLACK
6
CONTINUOUS
10
130.485
20
-68.945
11
131.371
21
-68.945
0
LINE
8
BLACK
6
CONTINUOUS
10
131.371
20
-68.945
11
132.945
21
-67.3707
0
LINE
8
BLACK
6
CONTINUOUS
10
132.945
20
-67.3707
11
132.945
21
-66.8489
0
LINE
8
BLACK
6
CONTINUOUS
10
132.945
20
-66.8489
11
132.947
21
-66.8305
0
LINE
8
BLACK
6
CONTINUOUS
10
132.947
20
-66.8305
11
132.954
21
-66.8069
0
LINE
8
BLACK
6
CONTINUOUS
10
132.954
20
-66.8069
11
132.966
21
-66.7852
0
LINE
8
BLACK
6
CONTINUOUS
10
132.966
20
-66.7852
11
132.97
21
-66.7798
0
LINE
8
BLACK
6
CONTINUOUS
10
132.97
20
-66.7798
11
132.97
21
-66.5751
0
LINE
8
BLACK
6
CONTINUOUS
10
132.97
20
-66.5751
11
132.971
21
-66.5604
0
LINE
8
BLACK
6
CONTINUOUS
10
132.971
20
-66.5604
11
132.977
21
-66.5415
0
LINE
8
BLACK
6
CONTINUOUS
10
132.977
20
-66.5415
11
132.986
21
-66.5242
0
LINE
8
BLACK
6
CONTINUOUS
10
132.986
20
-66.5242
11
132.999
21
-66.5089
0
LINE
8
BLACK
6
CONTINUOUS
10
132.999
20
-66.5089
11
133.014
21
-66.4965
0
LINE
8
BLACK
6
CONTINUOUS
10
133.014
20
-66.4965
11
133.032
21
-66.4872
0
LINE
8
BLACK
6
CONTINUOUS
10
133.032
20
-66.4872
11
133.05
21
-66.4814
0
LINE
8
BLACK
6
CONTINUOUS
10
133.05
20
-66.4814
11
133.07
21
-66.4795
0
LINE
8
BLACK
6
CONTINUOUS
10
133.07
20
-66.4795
11
133.09
21
-66.4814
0
LINE
8
BLACK
6
CONTINUOUS
10
134.09
20
-66.4814
11
134.108
21
-66.4872
0
LINE
8
BLACK
6
CONTINUOUS
10
134.108
20
-66.4872
11
134.126
21
-66.4965
0
LINE
8
BLACK
6
CONTINUOUS
10
134.126
20
-66.4965
11
134.141
21
-66.5089
0
LINE
8
BLACK
6
CONTINUOUS
10
134.141
20
-66.5089
11
134.154
21
-66.5242
0
LINE
8
BLACK
6
CONTINUOUS
10
134.154
20
-66.5242
11
134.163
21
-66.5415
0
LINE
8
BLACK
6
CONTINUOUS
10
134.163
20
-66.5415
11
134.169
21
-66.5604
0
LINE
8
BLACK
6
CONTINUOUS
10
134.169
20
-66.5604
11
134.17
21
-66.5751
0
LINE
8
BLACK
6
CONTINUOUS
10
134.17
20
-66.5751
11
134.17
21
-66.7798
0
LINE
8
BLACK
6
CONTINUOUS
10
134.17
20
-66.7798
11
134.174
21
-66.7852
0
LINE
8
BLACK
6
CONTINUOUS
10
134.174
20
-66.7852
11
134.186
21
-66.8069
0
LINE
8
BLACK
6
CONTINUOUS
10
134.186
20
-66.8069
11
134.193
21
-66.8305
0
LINE
8
BLACK
6
CONTINUOUS
10
134.193
20
-66.8305
11
134.195
21
-66.8489
0
LINE
8
BLACK
6
CONTINUOUS
10
134.195
20
-66.8489
11
134.195
21
-68.3407
0
LINE
8
BLACK
6
CONTINUOUS
10
134.195
20
-68.3407
11
134.789
21
-68.935
0
LINE
8
BLACK
6
CONTINUOUS
10
134.789
20
-68.935
11
135.675
21
-68.935
0
LINE
8
BLACK
6
CONTINUOUS
10
135.675
20
-68.935
11
135.724
21
-68.9398
0
LINE
8
BLACK
6
CONTINUOUS
10
135.724
20
-68.9398
11
135.771
21
-68.954
0
LINE
8
BLACK
6
CONTINUOUS
10
135.771
20
-68.954
11
135.814
21
-68.9771
0
LINE
8
BLACK
6
CONTINUOUS
10
135.814
20
-68.9771
11
135.852
21
-69.0082
0
LINE
8
BLACK
6
CONTINUOUS
10
135.852
20
-69.0082
11
135.883
21
-69.0461
0
LINE
8
BLACK
6
CONTINUOUS
10
135.883
20
-69.0461
11
135.906
21
-69.0893
0
LINE
8
BLACK
6
CONTINUOUS
10
135.906
20
-69.0893
11
135.92
21
-69.1362
0
LINE
8
BLACK
6
CONTINUOUS
10
135.92
20
-69.1362
11
135.925
21
-69.185
0
LINE
8
BLACK
6
CONTINUOUS
10
135.925
20
-69.185
11
135.925
21
-69.86
0
LINE
8
BLACK
6
CONTINUOUS
10
135.925
20
-69.86
11
135.92
21
-69.9088
0
LINE
8
BLACK
6
CONTINUOUS
10
135.92
20
-69.9088
11
135.906
21
-69.9557
0
LINE
8
BLACK
6
CONTINUOUS
10
135.906
20
-69.9557
11
135.883
21
-69.9989
0
LINE
8
BLACK
6
CONTINUOUS
10
135.883
20
-69.9989
11
135.852
21
-70.0368
0
LINE
8
BLACK
6
CONTINUOUS
10
135.852
20
-70.0368
11
135.814
21
-70.0679
0
LINE
8
BLACK
6
CONTINUOUS
10
135.814
20
-70.0679
11
135.771
21
-70.091
0
LINE
8
BLACK
6
CONTINUOUS
10
135.771
20
-70.091
11
135.724
21
-70.1052
0
LINE
8
BLACK
6
CONTINUOUS
10
135.724
20
-70.1052
11
135.675
21
-70.11
0
LINE
8
BLACK
6
CONTINUOUS
10
135.675
20
-70.11
11
134.725
21
-70.11
0
LINE
8
BLACK
6
CONTINUOUS
10
134.725
20
-70.11
11
134.676
21
-70.1052
0
LINE
8
BLACK
6
CONTINUOUS
10
134.676
20
-70.1052
11
134.629
21
-70.091
0
LINE
8
BLACK
6
CONTINUOUS
10
134.629
20
-70.091
11
134.586
21
-70.0679
0
LINE
8
BLACK
6
CONTINUOUS
10
134.586
20
-70.0679
11
134.548
21
-70.0368
0
LINE
8
BLACK
6
CONTINUOUS
10
134.548
20
-70.0368
11
134.517
21
-69.9989
0
LINE
8
BLACK
6
CONTINUOUS
10
134.517
20
-69.9989
11
134.494
21
-69.9557
0
LINE
8
BLACK
6
CONTINUOUS
10
134.494
20
-69.9557
11
134.48
21
-69.9088
0
LINE
8
BLACK
6
CONTINUOUS
10
134.48
20
-69.9088
11
134.475
21
-69.86
0
LINE
8
BLACK
6
CONTINUOUS
10
134.475
20
-69.86
11
134.475
21
-69.185
0
LINE
8
BLACK
6
CONTINUOUS
10
134.475
20
-69.185
11
134.48
21
-69.1362
0
LINE
8
BLACK
6
CONTINUOUS
10
134.48
20
-69.1362
11
134.494
21
-69.0893
0
LINE
8
BLACK
6
CONTINUOUS
10
134.494
20
-69.0893
11
134.517
21
-69.0461
0
LINE
8
BLACK
6
CONTINUOUS
10
134.517
20
-69.0461
11
134.531
21
-69.0298
0
LINE
8
BLACK
6
CONTINUOUS
10
134.531
20
-69.0298
11
133.986
21
-68.4852
0
LINE
8
BLACK
6
CONTINUOUS
10
133.986
20
-68.4852
11
133.981
21
-68.4813
0
LINE
8
BLACK
6
CONTINUOUS
10
133.981
20
-68.4813
11
133.966
21
-68.4623
0
LINE
8
BLACK
6
CONTINUOUS
10
133.966
20
-68.4623
11
133.954
21
-68.4406
0
LINE
8
BLACK
6
CONTINUOUS
10
133.954
20
-68.4406
11
133.947
21
-68.417
0
LINE
8
BLACK
6
CONTINUOUS
10
133.947
20
-68.417
11
133.945
21
-68.3986
0
LINE
8
BLACK
6
CONTINUOUS
10
133.945
20
-68.3986
11
133.945
21
-68.3986
0
LINE
8
BLACK
6
CONTINUOUS
10
133.945
20
-68.3986
11
133.944
21
-68.3925
0
LINE
8
BLACK
6
CONTINUOUS
10
133.944
20
-68.3925
11
133.945
21
-68.3864
0
LINE
8
BLACK
6
CONTINUOUS
10
133.945
20
-68.3864
11
133.945
21
-66.8489
0
LINE
8
BLACK
6
CONTINUOUS
10
133.945
20
-66.8489
11
133.947
21
-66.8305
0
LINE
8
BLACK
6
CONTINUOUS
10
133.947
20
-66.8305
11
133.954
21
-66.8069
0
LINE
8
BLACK
6
CONTINUOUS
10
133.954
20
-66.8069
11
133.966
21
-66.7852
0
LINE
8
BLACK
6
CONTINUOUS
10
133.966
20
-66.7852
11
133.97
21
-66.7798
0
LINE
8
BLACK
6
CONTINUOUS
10
133.97
20
-66.7798
11
133.97
21
-66.5751
0
LINE
8
BLACK
6
CONTINUOUS
10
133.97
20
-66.5751
11
133.971
21
-66.5604
0
LINE
8
BLACK
6
CONTINUOUS
10
133.971
20
-66.5604
11
133.977
21
-66.5415
0
LINE
8
BLACK
6
CONTINUOUS
10
133.977
20
-66.5415
11
133.986
21
-66.5242
0
LINE
8
BLACK
6
CONTINUOUS
10
133.986
20
-66.5242
11
133.999
21
-66.5089
0
LINE
8
BLACK
6
CONTINUOUS
10
133.999
20
-66.5089
11
134.014
21
-66.4965
0
LINE
8
BLACK
6
CONTINUOUS
10
134.014
20
-66.4965
11
134.032
21
-66.4872
0
LINE
8
BLACK
6
CONTINUOUS
10
134.032
20
-66.4872
11
134.05
21
-66.4814
0
LINE
8
BLACK
6
CONTINUOUS
10
134.05
20
-66.4814
11
134.07
21
-66.4795
0
LINE
8
BLACK
6
CONTINUOUS
10
134.07
20
-66.4795
11
134.09
21
-66.4814
0
LINE
8
BLACK
6
CONTINUOUS
10
133.59
20
-66.4814
11
133.608
21
-66.4872
0
LINE
8
BLACK
6
CONTINUOUS
10
133.608
20
-66.4872
11
133.626
21
-66.4965
0
LINE
8
BLACK
6
CONTINUOUS
10
133.626
20
-66.4965
11
133.641
21
-66.5089
0
LINE
8
BLACK
6
CONTINUOUS
10
133.641
20
-66.5089
11
133.654
21
-66.5242
0
LINE
8
BLACK
6
CONTINUOUS
10
133.654
20
-66.5242
11
133.663
21
-66.5415
0
LINE
8
BLACK
6
CONTINUOUS
10
133.663
20
-66.5415
11
133.669
21
-66.5604
0
LINE
8
BLACK
6
CONTINUOUS
10
133.669
20
-66.5604
11
133.67
21
-66.5751
0
LINE
8
BLACK
6
CONTINUOUS
10
133.67
20
-66.5751
11
133.67
21
-66.7798
0
LINE
8
BLACK
6
CONTINUOUS
10
133.67
20
-66.7798
11
133.674
21
-66.7852
0
LINE
8
BLACK
6
CONTINUOUS
10
133.674
20
-66.7852
11
133.686
21
-66.8069
0
LINE
8
BLACK
6
CONTINUOUS
10
133.686
20
-66.8069
11
133.693
21
-66.8305
0
LINE
8
BLACK
6
CONTINUOUS
10
133.693
20
-66.8305
11
133.695
21
-66.8489
0
LINE
8
BLACK
6
CONTINUOUS
10
133.695
20
-66.8489
11
133.695
21
-68.9724
0
LINE
8
BLACK
6
CONTINUOUS
10
133.695
20
-68.9724
11
133.704
21
-68.9771
0
LINE
8
BLACK
6
CONTINUOUS
10
133.704
20
-68.9771
11
133.742
21
-69.0082
0
LINE
8
BLACK
6
CONTINUOUS
10
133.742
20
-69.0082
11
133.773
21
-69.0461
0
LINE
8
BLACK
6
CONTINUOUS
10
133.773
20
-69.0461
11
133.796
21
-69.0893
0
LINE
8
BLACK
6
CONTINUOUS
10
133.796
20
-69.0893
11
133.81
21
-69.1362
0
LINE
8
BLACK
6
CONTINUOUS
10
133.81
20
-69.1362
11
133.815
21
-69.185
0
LINE
8
BLACK
6
CONTINUOUS
10
133.815
20
-69.185
11
133.815
21
-69.86
0
LINE
8
BLACK
6
CONTINUOUS
10
133.815
20
-69.86
11
133.81
21
-69.9088
0
LINE
8
BLACK
6
CONTINUOUS
10
133.81
20
-69.9088
11
133.796
21
-69.9557
0
LINE
8
BLACK
6
CONTINUOUS
10
133.796
20
-69.9557
11
133.773
21
-69.9989
0
LINE
8
BLACK
6
CONTINUOUS
10
133.773
20
-69.9989
11
133.742
21
-70.0368
0
LINE
8
BLACK
6
CONTINUOUS
10
133.742
20
-70.0368
11
133.704
21
-70.0679
0
LINE
8
BLACK
6
CONTINUOUS
10
133.704
20
-70.0679
11
133.661
21
-70.091
0
LINE
8
BLACK
6
CONTINUOUS
10
133.661
20
-70.091
11
133.614
21
-70.1052
0
LINE
8
BLACK
6
CONTINUOUS
10
133.614
20
-70.1052
11
133.565
21
-70.11
0
LINE
8
BLACK
6
CONTINUOUS
10
133.565
20
-70.11
11
132.615
21
-70.11
0
LINE
8
BLACK
6
CONTINUOUS
10
132.615
20
-70.11
11
132.566
21
-70.1052
0
LINE
8
BLACK
6
CONTINUOUS
10
132.566
20
-70.1052
11
132.519
21
-70.091
0
LINE
8
BLACK
6
CONTINUOUS
10
132.519
20
-70.091
11
132.476
21
-70.0679
0
LINE
8
BLACK
6
CONTINUOUS
10
132.476
20
-70.0679
11
132.438
21
-70.0368
0
LINE
8
BLACK
6
CONTINUOUS
10
132.438
20
-70.0368
11
132.407
21
-69.9989
0
LINE
8
BLACK
6
CONTINUOUS
10
132.407
20
-69.9989
11
132.384
21
-69.9557
0
LINE
8
BLACK
6
CONTINUOUS
10
132.384
20
-69.9557
11
132.37
21
-69.9088
0
LINE
8
BLACK
6
CONTINUOUS
10
132.37
20
-69.9088
11
132.365
21
-69.86
0
LINE
8
BLACK
6
CONTINUOUS
10
132.365
20
-69.86
11
132.365
21
-69.185
0
LINE
8
BLACK
6
CONTINUOUS
10
132.365
20
-69.185
11
132.37
21
-69.1362
0
LINE
8
BLACK
6
CONTINUOUS
10
132.37
20
-69.1362
11
132.384
21
-69.0893
0
LINE
8
BLACK
6
CONTINUOUS
10
132.384
20
-69.0893
11
132.407
21
-69.0461
0
LINE
8
BLACK
6
CONTINUOUS
10
132.407
20
-69.0461
11
132.438
21
-69.0082
0
LINE
8
BLACK
6
CONTINUOUS
10
132.438
20
-69.0082
11
132.476
21
-68.9771
0
LINE
8
BLACK
6
CONTINUOUS
10
132.476
20
-68.9771
11
132.519
21
-68.954
0
LINE
8
BLACK
6
CONTINUOUS
10
132.519
20
-68.954
11
132.566
21
-68.9398
0
LINE
8
BLACK
6
CONTINUOUS
10
132.566
20
-68.9398
11
132.615
21
-68.935
0
LINE
8
BLACK
6
CONTINUOUS
10
132.615
20
-68.935
11
133.445
21
-68.935
0
LINE
8
BLACK
6
CONTINUOUS
10
133.445
20
-68.935
11
133.445
21
-66.8489
0
LINE
8
BLACK
6
CONTINUOUS
10
133.445
20
-66.8489
11
133.447
21
-66.8305
0
LINE
8
BLACK
6
CONTINUOUS
10
133.447
20
-66.8305
11
133.454
21
-66.8069
0
LINE
8
BLACK
6
CONTINUOUS
10
133.454
20
-66.8069
11
133.466
21
-66.7852
0
LINE
8
BLACK
6
CONTINUOUS
10
133.466
20
-66.7852
11
133.47
21
-66.7798
0
LINE
8
BLACK
6
CONTINUOUS
10
133.47
20
-66.7798
11
133.47
21
-66.5751
0
LINE
8
BLACK
6
CONTINUOUS
10
133.47
20
-66.5751
11
133.471
21
-66.5604
0
LINE
8
BLACK
6
CONTINUOUS
10
133.471
20
-66.5604
11
133.477
21
-66.5415
0
LINE
8
BLACK
6
CONTINUOUS
10
133.477
20
-66.5415
11
133.486
21
-66.5242
0
LINE
8
BLACK
6
CONTINUOUS
10
133.486
20
-66.5242
11
133.499
21
-66.5089
0
LINE
8
BLACK
6
CONTINUOUS
10
133.499
20
-66.5089
11
133.514
21
-66.4965
0
LINE
8
BLACK
6
CONTINUOUS
10
133.514
20
-66.4965
11
133.532
21
-66.4872
0
LINE
8
BLACK
6
CONTINUOUS
10
133.532
20
-66.4872
11
133.55
21
-66.4814
0
LINE
8
BLACK
6
CONTINUOUS
10
133.55
20
-66.4814
11
133.57
21
-66.4795
0
LINE
8
BLACK
6
CONTINUOUS
10
133.57
20
-66.4795
11
133.59
21
-66.4814
0
LINE
8
BLACK
6
CONTINUOUS
10
114.246
20
-66.3744
11
114.387
21
-66.4171
0
LINE
8
BLACK
6
CONTINUOUS
10
114.387
20
-66.4171
11
114.517
21
-66.4864
0
LINE
8
BLACK
6
CONTINUOUS
10
114.517
20
-66.4864
11
114.63
21
-66.5797
0
LINE
8
BLACK
6
CONTINUOUS
10
114.63
20
-66.5797
11
114.724
21
-66.6933
0
LINE
8
BLACK
6
CONTINUOUS
10
114.724
20
-66.6933
11
114.793
21
-66.823
0
LINE
8
BLACK
6
CONTINUOUS
10
114.793
20
-66.823
11
114.836
21
-66.9637
0
LINE
8
BLACK
6
CONTINUOUS
10
114.836
20
-66.9637
11
114.85
21
-67.11
0
LINE
8
BLACK
6
CONTINUOUS
10
114.85
20
-67.11
11
114.85
21
-69.11
0
LINE
8
BLACK
6
CONTINUOUS
10
114.85
20
-69.11
11
114.836
21
-69.2563
0
LINE
8
BLACK
6
CONTINUOUS
10
114.836
20
-69.2563
11
114.793
21
-69.397
0
LINE
8
BLACK
6
CONTINUOUS
10
114.793
20
-69.397
11
114.724
21
-69.5267
0
LINE
8
BLACK
6
CONTINUOUS
10
114.724
20
-69.5267
11
114.63
21
-69.6403
0
LINE
8
BLACK
6
CONTINUOUS
10
114.63
20
-69.6403
11
114.517
21
-69.7336
0
LINE
8
BLACK
6
CONTINUOUS
10
114.517
20
-69.7336
11
114.387
21
-69.8029
0
LINE
8
BLACK
6
CONTINUOUS
10
114.387
20
-69.8029
11
114.246
21
-69.8456
0
LINE
8
BLACK
6
CONTINUOUS
10
114.246
20
-69.8456
11
114.1
21
-69.86
0
LINE
8
BLACK
6
CONTINUOUS
10
114.1
20
-69.86
11
112.6
21
-69.86
0
LINE
8
BLACK
6
CONTINUOUS
10
112.6
20
-69.86
11
112.454
21
-69.8456
0
LINE
8
BLACK
6
CONTINUOUS
10
112.454
20
-69.8456
11
112.313
21
-69.8029
0
LINE
8
BLACK
6
CONTINUOUS
10
112.313
20
-69.8029
11
112.183
21
-69.7336
0
LINE
8
BLACK
6
CONTINUOUS
10
112.183
20
-69.7336
11
112.07
21
-69.6403
0
LINE
8
BLACK
6
CONTINUOUS
10
112.07
20
-69.6403
11
111.976
21
-69.5267
0
LINE
8
BLACK
6
CONTINUOUS
10
111.976
20
-69.5267
11
111.907
21
-69.397
0
LINE
8
BLACK
6
CONTINUOUS
10
111.907
20
-69.397
11
111.864
21
-69.2563
0
LINE
8
BLACK
6
CONTINUOUS
10
111.864
20
-69.2563
11
111.85
21
-69.11
0
LINE
8
BLACK
6
CONTINUOUS
10
111.85
20
-69.11
11
111.85
21
-67.11
0
LINE
8
BLACK
6
CONTINUOUS
10
111.85
20
-67.11
11
111.864
21
-66.9637
0
LINE
8
BLACK
6
CONTINUOUS
10
111.864
20
-66.9637
11
111.907
21
-66.823
0
LINE
8
BLACK
6
CONTINUOUS
10
111.907
20
-66.823
11
111.976
21
-66.6933
0
LINE
8
BLACK
6
CONTINUOUS
10
111.976
20
-66.6933
11
112.07
21
-66.5797
0
LINE
8
BLACK
6
CONTINUOUS
10
112.07
20
-66.5797
11
112.183
21
-66.4864
0
LINE
8
BLACK
6
CONTINUOUS
10
112.183
20
-66.4864
11
112.313
21
-66.4171
0
LINE
8
BLACK
6
CONTINUOUS
10
112.313
20
-66.4171
11
112.454
21
-66.3744
0
LINE
8
BLACK
6
CONTINUOUS
10
112.454
20
-66.3744
11
112.6
21
-66.36
0
LINE
8
BLACK
6
CONTINUOUS
10
112.6
20
-66.36
11
114.1
21
-66.36
0
LINE
8
BLACK
6
CONTINUOUS
10
114.1
20
-66.36
11
114.246
21
-66.3744
0
LINE
8
BLACK
6
CONTINUOUS
10
121.1
20
-69.86
11
117.6
21
-69.86
0
LINE
8
BLACK
6
CONTINUOUS
10
117.6
20
-69.86
11
117.6
21
-66.36
0
LINE
8
BLACK
6
CONTINUOUS
10
117.6
20
-66.36
11
121.1
21
-66.36
0
LINE
8
BLACK
6
CONTINUOUS
10
121.1
20
-66.36
11
121.1
21
-69.86
0
LINE
8
BLACK
6
CONTINUOUS
10
170.213
20
-66.2546
11
170.376
21
-66.3224
0
LINE
8
BLACK
6
CONTINUOUS
10
170.376
20
-66.3224
11
170.524
21
-66.4209
0
LINE
8
BLACK
6
CONTINUOUS
10
170.524
20
-66.4209
11
170.649
21
-66.5463
0
LINE
8
BLACK
6
CONTINUOUS
10
170.649
20
-66.5463
11
170.748
21
-66.6937
0
LINE
8
BLACK
6
CONTINUOUS
10
170.748
20
-66.6937
11
170.815
21
-66.8575
0
LINE
8
BLACK
6
CONTINUOUS
10
170.815
20
-66.8575
11
170.85
21
-67.0314
0
LINE
8
BLACK
6
CONTINUOUS
10
170.85
20
-67.0314
11
170.85
21
-67.2086
0
LINE
8
BLACK
6
CONTINUOUS
10
170.85
20
-67.2086
11
170.815
21
-67.3825
0
LINE
8
BLACK
6
CONTINUOUS
10
170.815
20
-67.3825
11
170.748
21
-67.5463
0
LINE
8
BLACK
6
CONTINUOUS
10
170.748
20
-67.5463
11
170.649
21
-67.6937
0
LINE
8
BLACK
6
CONTINUOUS
10
170.649
20
-67.6937
11
170.524
21
-67.8191
0
LINE
8
BLACK
6
CONTINUOUS
10
170.524
20
-67.8191
11
170.376
21
-67.9176
0
LINE
8
BLACK
6
CONTINUOUS
10
170.376
20
-67.9176
11
170.213
21
-67.9854
0
LINE
8
BLACK
6
CONTINUOUS
10
170.213
20
-67.9854
11
170.039
21
-68.02
0
LINE
8
BLACK
6
CONTINUOUS
10
170.039
20
-68.02
11
169.861
21
-68.02
0
LINE
8
BLACK
6
CONTINUOUS
10
169.861
20
-68.02
11
169.687
21
-67.9854
0
LINE
8
BLACK
6
CONTINUOUS
10
169.687
20
-67.9854
11
169.524
21
-67.9176
0
LINE
8
BLACK
6
CONTINUOUS
10
169.524
20
-67.9176
11
169.376
21
-67.8191
0
LINE
8
BLACK
6
CONTINUOUS
10
169.376
20
-67.8191
11
169.251
21
-67.6937
0
LINE
8
BLACK
6
CONTINUOUS
10
169.251
20
-67.6937
11
169.152
21
-67.5463
0
LINE
8
BLACK
6
CONTINUOUS
10
169.152
20
-67.5463
11
169.085
21
-67.3825
0
LINE
8
BLACK
6
CONTINUOUS
10
169.085
20
-67.3825
11
169.05
21
-67.2086
0
LINE
8
BLACK
6
CONTINUOUS
10
169.05
20
-67.2086
11
169.05
21
-67.0314
0
LINE
8
BLACK
6
CONTINUOUS
10
169.05
20
-67.0314
11
169.085
21
-66.8575
0
LINE
8
BLACK
6
CONTINUOUS
10
169.085
20
-66.8575
11
169.152
21
-66.6937
0
LINE
8
BLACK
6
CONTINUOUS
10
169.152
20
-66.6937
11
169.251
21
-66.5463
0
LINE
8
BLACK
6
CONTINUOUS
10
169.251
20
-66.5463
11
169.376
21
-66.4209
0
LINE
8
BLACK
6
CONTINUOUS
10
169.376
20
-66.4209
11
169.524
21
-66.3224
0
LINE
8
BLACK
6
CONTINUOUS
10
169.524
20
-66.3224
11
169.687
21
-66.2546
0
LINE
8
BLACK
6
CONTINUOUS
10
169.687
20
-66.2546
11
169.861
21
-66.22
0
LINE
8
BLACK
6
CONTINUOUS
10
169.861
20
-66.22
11
170.039
21
-66.22
0
LINE
8
BLACK
6
CONTINUOUS
10
170.039
20
-66.22
11
170.213
21
-66.2546
0
LINE
8
BLACK
6
CONTINUOUS
10
142.329
20
-64.8648
11
142.376
21
-64.879
0
LINE
8
BLACK
6
CONTINUOUS
10
142.376
20
-64.879
11
142.419
21
-64.9021
0
LINE
8
BLACK
6
CONTINUOUS
10
142.419
20
-64.9021
11
142.457
21
-64.9332
0
LINE
8
BLACK
6
CONTINUOUS
10
142.457
20
-64.9332
11
142.488
21
-64.9711
0
LINE
8
BLACK
6
CONTINUOUS
10
142.488
20
-64.9711
11
142.511
21
-65.0143
0
LINE
8
BLACK
6
CONTINUOUS
10
142.511
20
-65.0143
11
142.525
21
-65.0612
0
LINE
8
BLACK
6
CONTINUOUS
10
142.525
20
-65.0612
11
142.53
21
-65.11
0
LINE
8
BLACK
6
CONTINUOUS
10
142.53
20
-65.11
11
142.53
21
-67.21
0
LINE
8
BLACK
6
CONTINUOUS
10
142.53
20
-67.21
11
142.525
21
-67.2588
0
LINE
8
BLACK
6
CONTINUOUS
10
142.525
20
-67.2588
11
142.511
21
-67.3057
0
LINE
8
BLACK
6
CONTINUOUS
10
142.511
20
-67.3057
11
142.488
21
-67.3489
0
LINE
8
BLACK
6
CONTINUOUS
10
142.488
20
-67.3489
11
142.457
21
-67.3868
0
LINE
8
BLACK
6
CONTINUOUS
10
142.457
20
-67.3868
11
142.419
21
-67.4179
0
LINE
8
BLACK
6
CONTINUOUS
10
142.419
20
-67.4179
11
142.376
21
-67.441
0
LINE
8
BLACK
6
CONTINUOUS
10
142.376
20
-67.441
11
142.329
21
-67.4552
0
LINE
8
BLACK
6
CONTINUOUS
10
142.329
20
-67.4552
11
142.28
21
-67.46
0
LINE
8
BLACK
6
CONTINUOUS
10
142.28
20
-67.46
11
141.18
21
-67.46
0
LINE
8
BLACK
6
CONTINUOUS
10
141.18
20
-67.46
11
141.131
21
-67.4552
0
LINE
8
BLACK
6
CONTINUOUS
10
141.131
20
-67.4552
11
141.084
21
-67.441
0
LINE
8
BLACK
6
CONTINUOUS
10
141.084
20
-67.441
11
141.041
21
-67.4179
0
LINE
8
BLACK
6
CONTINUOUS
10
141.041
20
-67.4179
11
141.003
21
-67.3868
0
LINE
8
BLACK
6
CONTINUOUS
10
141.003
20
-67.3868
11
140.972
21
-67.3489
0
LINE
8
BLACK
6
CONTINUOUS
10
140.972
20
-67.3489
11
140.949
21
-67.3057
0
LINE
8
BLACK
6
CONTINUOUS
10
140.949
20
-67.3057
11
140.935
21
-67.2588
0
LINE
8
BLACK
6
CONTINUOUS
10
140.935
20
-67.2588
11
140.93
21
-67.21
0
LINE
8
BLACK
6
CONTINUOUS
10
140.93
20
-67.21
11
140.93
21
-65.11
0
LINE
8
BLACK
6
CONTINUOUS
10
140.93
20
-65.11
11
140.935
21
-65.0612
0
LINE
8
BLACK
6
CONTINUOUS
10
140.935
20
-65.0612
11
140.949
21
-65.0143
0
LINE
8
BLACK
6
CONTINUOUS
10
140.949
20
-65.0143
11
140.972
21
-64.9711
0
LINE
8
BLACK
6
CONTINUOUS
10
140.972
20
-64.9711
11
141.003
21
-64.9332
0
LINE
8
BLACK
6
CONTINUOUS
10
141.003
20
-64.9332
11
141.041
21
-64.9021
0
LINE
8
BLACK
6
CONTINUOUS
10
141.041
20
-64.9021
11
141.084
21
-64.879
0
LINE
8
BLACK
6
CONTINUOUS
10
141.084
20
-64.879
11
141.131
21
-64.8648
0
LINE
8
BLACK
6
CONTINUOUS
10
141.131
20
-64.8648
11
141.18
21
-64.86
0
LINE
8
BLACK
6
CONTINUOUS
10
141.18
20
-64.86
11
142.28
21
-64.86
0
LINE
8
BLACK
6
CONTINUOUS
10
142.28
20
-64.86
11
142.329
21
-64.8648
0
LINE
8
BLACK
6
CONTINUOUS
10
129.656
20
-65.755
11
130.821
21
-65.755
0
LINE
8
BLACK
6
CONTINUOUS
10
130.821
20
-65.755
11
130.84
21
-65.7568
0
LINE
8
BLACK
6
CONTINUOUS
10
130.84
20
-65.7568
11
130.863
21
-65.764
0
LINE
8
BLACK
6
CONTINUOUS
10
130.863
20
-65.764
11
130.885
21
-65.7756
0
LINE
8
BLACK
6
CONTINUOUS
10
130.885
20
-65.7756
11
130.89
21
-65.78
0
LINE
8
BLACK
6
CONTINUOUS
10
130.89
20
-65.78
11
131.095
21
-65.78
0
LINE
8
BLACK
6
CONTINUOUS
10
131.095
20
-65.78
11
131.11
21
-65.7814
0
LINE
8
BLACK
6
CONTINUOUS
10
131.11
20
-65.7814
11
131.128
21
-65.7872
0
LINE
8
BLACK
6
CONTINUOUS
10
131.128
20
-65.7872
11
131.146
21
-65.7965
0
LINE
8
BLACK
6
CONTINUOUS
10
131.146
20
-65.7965
11
131.161
21
-65.8089
0
LINE
8
BLACK
6
CONTINUOUS
10
131.161
20
-65.8089
11
131.174
21
-65.8242
0
LINE
8
BLACK
6
CONTINUOUS
10
131.174
20
-65.8242
11
131.183
21
-65.8415
0
LINE
8
BLACK
6
CONTINUOUS
10
131.183
20
-65.8415
11
131.189
21
-65.8604
0
LINE
8
BLACK
6
CONTINUOUS
10
131.189
20
-65.8604
11
131.19
21
-65.88
0
LINE
8
BLACK
6
CONTINUOUS
10
131.19
20
-65.88
11
131.189
21
-65.8996
0
LINE
8
BLACK
6
CONTINUOUS
10
131.189
20
-65.8996
11
131.183
21
-65.9185
0
LINE
8
BLACK
6
CONTINUOUS
10
131.183
20
-65.9185
11
131.174
21
-65.9358
0
LINE
8
BLACK
6
CONTINUOUS
10
131.174
20
-65.9358
11
131.161
21
-65.9511
0
LINE
8
BLACK
6
CONTINUOUS
10
131.161
20
-65.9511
11
131.146
21
-65.9635
0
LINE
8
BLACK
6
CONTINUOUS
10
131.146
20
-65.9635
11
131.128
21
-65.9728
0
LINE
8
BLACK
6
CONTINUOUS
10
131.128
20
-65.9728
11
131.11
21
-65.9786
0
LINE
8
BLACK
6
CONTINUOUS
10
131.11
20
-65.9786
11
131.095
21
-65.98
0
LINE
8
BLACK
6
CONTINUOUS
10
131.095
20
-65.98
11
130.89
21
-65.98
0
LINE
8
BLACK
6
CONTINUOUS
10
130.89
20
-65.98
11
130.885
21
-65.9844
0
LINE
8
BLACK
6
CONTINUOUS
10
130.885
20
-65.9844
11
130.863
21
-65.996
0
LINE
8
BLACK
6
CONTINUOUS
10
130.863
20
-65.996
11
130.84
21
-66.0032
0
LINE
8
BLACK
6
CONTINUOUS
10
130.84
20
-66.0032
11
130.821
21
-66.005
0
LINE
8
BLACK
6
CONTINUOUS
10
130.821
20
-66.005
11
129.702
21
-66.005
0
LINE
8
BLACK
6
CONTINUOUS
10
129.702
20
-66.005
11
129.56
21
-66.1468
0
LINE
8
BLACK
6
CONTINUOUS
10
129.56
20
-66.1468
11
129.56
21
-67.02
0
LINE
8
BLACK
6
CONTINUOUS
10
129.56
20
-67.02
11
129.555
21
-67.0688
0
LINE
8
BLACK
6
CONTINUOUS
10
129.555
20
-67.0688
11
129.541
21
-67.1157
0
LINE
8
BLACK
6
CONTINUOUS
10
129.541
20
-67.1157
11
129.518
21
-67.1589
0
LINE
8
BLACK
6
CONTINUOUS
10
129.518
20
-67.1589
11
129.487
21
-67.1968
0
LINE
8
BLACK
6
CONTINUOUS
10
129.487
20
-67.1968
11
129.449
21
-67.2279
0
LINE
8
BLACK
6
CONTINUOUS
10
129.449
20
-67.2279
11
129.406
21
-67.251
0
LINE
8
BLACK
6
CONTINUOUS
10
129.406
20
-67.251
11
129.359
21
-67.2652
0
LINE
8
BLACK
6
CONTINUOUS
10
129.359
20
-67.2652
11
129.31
21
-67.27
0
LINE
8
BLACK
6
CONTINUOUS
10
129.31
20
-67.27
11
128.61
21
-67.27
0
LINE
8
BLACK
6
CONTINUOUS
10
128.61
20
-67.27
11
128.561
21
-67.2652
0
LINE
8
BLACK
6
CONTINUOUS
10
128.561
20
-67.2652
11
128.514
21
-67.251
0
LINE
8
BLACK
6
CONTINUOUS
10
128.514
20
-67.251
11
128.471
21
-67.2279
0
LINE
8
BLACK
6
CONTINUOUS
10
128.471
20
-67.2279
11
128.433
21
-67.1968
0
LINE
8
BLACK
6
CONTINUOUS
10
128.433
20
-67.1968
11
128.402
21
-67.1589
0
LINE
8
BLACK
6
CONTINUOUS
10
128.402
20
-67.1589
11
128.379
21
-67.1157
0
LINE
8
BLACK
6
CONTINUOUS
10
128.379
20
-67.1157
11
128.365
21
-67.0688
0
LINE
8
BLACK
6
CONTINUOUS
10
128.365
20
-67.0688
11
128.36
21
-67.02
0
LINE
8
BLACK
6
CONTINUOUS
10
128.36
20
-67.02
11
128.36
21
-66.12
0
LINE
8
BLACK
6
CONTINUOUS
10
128.36
20
-66.12
11
128.365
21
-66.0712
0
LINE
8
BLACK
6
CONTINUOUS
10
128.365
20
-66.0712
11
128.379
21
-66.0243
0
LINE
8
BLACK
6
CONTINUOUS
10
128.379
20
-66.0243
11
128.402
21
-65.9811
0
LINE
8
BLACK
6
CONTINUOUS
10
128.402
20
-65.9811
11
128.433
21
-65.9432
0
LINE
8
BLACK
6
CONTINUOUS
10
128.433
20
-65.9432
11
128.471
21
-65.9121
0
LINE
8
BLACK
6
CONTINUOUS
10
128.471
20
-65.9121
11
128.514
21
-65.889
0
LINE
8
BLACK
6
CONTINUOUS
10
128.514
20
-65.889
11
128.561
21
-65.8748
0
LINE
8
BLACK
6
CONTINUOUS
10
128.561
20
-65.8748
11
128.61
21
-65.87
0
LINE
8
BLACK
6
CONTINUOUS
10
128.61
20
-65.87
11
129.31
21
-65.87
0
LINE
8
BLACK
6
CONTINUOUS
10
129.31
20
-65.87
11
129.359
21
-65.8748
0
LINE
8
BLACK
6
CONTINUOUS
10
129.359
20
-65.8748
11
129.406
21
-65.889
0
LINE
8
BLACK
6
CONTINUOUS
10
129.406
20
-65.889
11
129.444
21
-65.9094
0
LINE
8
BLACK
6
CONTINUOUS
10
129.444
20
-65.9094
11
129.557
21
-65.7959
0
LINE
8
BLACK
6
CONTINUOUS
10
129.557
20
-65.7959
11
129.561
21
-65.7912
0
LINE
8
BLACK
6
CONTINUOUS
10
129.561
20
-65.7912
11
129.566
21
-65.7873
0
LINE
8
BLACK
6
CONTINUOUS
10
129.566
20
-65.7873
11
129.566
21
-65.7873
0
LINE
8
BLACK
6
CONTINUOUS
10
129.566
20
-65.7873
11
129.58
21
-65.7756
0
LINE
8
BLACK
6
CONTINUOUS
10
129.58
20
-65.7756
11
129.58
21
-65.7756
0
LINE
8
BLACK
6
CONTINUOUS
10
129.58
20
-65.7756
11
129.58
21
-65.7756
0
LINE
8
BLACK
6
CONTINUOUS
10
129.58
20
-65.7756
11
129.602
21
-65.764
0
LINE
8
BLACK
6
CONTINUOUS
10
129.602
20
-65.764
11
129.625
21
-65.7568
0
LINE
8
BLACK
6
CONTINUOUS
10
129.625
20
-65.7568
11
129.644
21
-65.755
0
LINE
8
BLACK
6
CONTINUOUS
10
129.644
20
-65.755
11
129.644
21
-65.755
0
LINE
8
BLACK
6
CONTINUOUS
10
129.644
20
-65.755
11
129.65
21
-65.7544
0
LINE
8
BLACK
6
CONTINUOUS
10
129.65
20
-65.7544
11
129.656
21
-65.755
0
LINE
8
BLACK
6
CONTINUOUS
10
132.59
20
-66.4814
11
132.608
21
-66.4872
0
LINE
8
BLACK
6
CONTINUOUS
10
132.608
20
-66.4872
11
132.626
21
-66.4965
0
LINE
8
BLACK
6
CONTINUOUS
10
132.626
20
-66.4965
11
132.641
21
-66.5089
0
LINE
8
BLACK
6
CONTINUOUS
10
132.641
20
-66.5089
11
132.654
21
-66.5242
0
LINE
8
BLACK
6
CONTINUOUS
10
132.654
20
-66.5242
11
132.663
21
-66.5415
0
LINE
8
BLACK
6
CONTINUOUS
10
132.663
20
-66.5415
11
132.669
21
-66.5604
0
LINE
8
BLACK
6
CONTINUOUS
10
132.669
20
-66.5604
11
132.67
21
-66.5751
0
LINE
8
BLACK
6
CONTINUOUS
10
132.67
20
-66.5751
11
132.67
21
-67.1349
0
LINE
8
BLACK
6
CONTINUOUS
10
132.67
20
-67.1349
11
132.669
21
-67.1496
0
LINE
8
BLACK
6
CONTINUOUS
10
132.669
20
-67.1496
11
132.663
21
-67.1685
0
LINE
8
BLACK
6
CONTINUOUS
10
132.663
20
-67.1685
11
132.654
21
-67.1858
0
LINE
8
BLACK
6
CONTINUOUS
10
132.654
20
-67.1858
11
132.641
21
-67.2011
0
LINE
8
BLACK
6
CONTINUOUS
10
132.641
20
-67.2011
11
132.626
21
-67.2135
0
LINE
8
BLACK
6
CONTINUOUS
10
132.626
20
-67.2135
11
132.608
21
-67.2228
0
LINE
8
BLACK
6
CONTINUOUS
10
132.608
20
-67.2228
11
132.59
21
-67.2286
0
LINE
8
BLACK
6
CONTINUOUS
10
132.59
20
-67.2286
11
132.57
21
-67.2305
0
LINE
8
BLACK
6
CONTINUOUS
10
132.57
20
-67.2305
11
132.55
21
-67.2286
0
LINE
8
BLACK
6
CONTINUOUS
10
132.55
20
-67.2286
11
132.532
21
-67.2228
0
LINE
8
BLACK
6
CONTINUOUS
10
132.532
20
-67.2228
11
132.514
21
-67.2135
0
LINE
8
BLACK
6
CONTINUOUS
10
132.514
20
-67.2135
11
132.499
21
-67.2011
0
LINE
8
BLACK
6
CONTINUOUS
10
132.499
20
-67.2011
11
132.486
21
-67.1858
0
LINE
8
BLACK
6
CONTINUOUS
10
132.486
20
-67.1858
11
132.477
21
-67.1685
0
LINE
8
BLACK
6
CONTINUOUS
10
132.477
20
-67.1685
11
132.471
21
-67.1496
0
LINE
8
BLACK
6
CONTINUOUS
10
132.471
20
-67.1496
11
132.47
21
-67.1349
0
LINE
8
BLACK
6
CONTINUOUS
10
132.47
20
-67.1349
11
132.47
21
-66.5751
0
LINE
8
BLACK
6
CONTINUOUS
10
132.47
20
-66.5751
11
132.471
21
-66.5604
0
LINE
8
BLACK
6
CONTINUOUS
10
132.471
20
-66.5604
11
132.477
21
-66.5415
0
LINE
8
BLACK
6
CONTINUOUS
10
132.477
20
-66.5415
11
132.486
21
-66.5242
0
LINE
8
BLACK
6
CONTINUOUS
10
132.486
20
-66.5242
11
132.499
21
-66.5089
0
LINE
8
BLACK
6
CONTINUOUS
10
132.499
20
-66.5089
11
132.514
21
-66.4965
0
LINE
8
BLACK
6
CONTINUOUS
10
132.514
20
-66.4965
11
132.532
21
-66.4872
0
LINE
8
BLACK
6
CONTINUOUS
10
132.532
20
-66.4872
11
132.55
21
-66.4814
0
LINE
8
BLACK
6
CONTINUOUS
10
132.55
20
-66.4814
11
132.57
21
-66.4795
0
LINE
8
BLACK
6
CONTINUOUS
10
132.57
20
-66.4795
11
132.59
21
-66.4814
0
LINE
8
BLACK
6
CONTINUOUS
10
137.766
20
-66.0306
11
137.771
21
-66.0323
0
LINE
8
BLACK
6
CONTINUOUS
10
137.771
20
-66.0323
11
137.777
21
-66.0351
0
LINE
8
BLACK
6
CONTINUOUS
10
137.777
20
-66.0351
11
137.781
21
-66.0388
0
LINE
8
BLACK
6
CONTINUOUS
10
137.781
20
-66.0388
11
137.785
21
-66.0433
0
LINE
8
BLACK
6
CONTINUOUS
10
137.785
20
-66.0433
11
137.788
21
-66.0485
0
LINE
8
BLACK
6
CONTINUOUS
10
137.788
20
-66.0485
11
137.789
21
-66.0541
0
LINE
8
BLACK
6
CONTINUOUS
10
137.789
20
-66.0541
11
137.79
21
-66.055
0
LINE
8
BLACK
6
CONTINUOUS
10
137.79
20
-66.055
11
138.021
21
-66.055
0
LINE
8
BLACK
6
CONTINUOUS
10
138.021
20
-66.055
11
138.04
21
-66.0568
0
LINE
8
BLACK
6
CONTINUOUS
10
138.04
20
-66.0568
11
138.063
21
-66.064
0
LINE
8
BLACK
6
CONTINUOUS
10
138.063
20
-66.064
11
138.085
21
-66.0756
0
LINE
8
BLACK
6
CONTINUOUS
10
138.085
20
-66.0756
11
138.104
21
-66.0912
0
LINE
8
BLACK
6
CONTINUOUS
10
138.104
20
-66.0912
11
138.119
21
-66.1102
0
LINE
8
BLACK
6
CONTINUOUS
10
138.119
20
-66.1102
11
138.131
21
-66.1319
0
LINE
8
BLACK
6
CONTINUOUS
10
138.131
20
-66.1319
11
138.138
21
-66.1555
0
LINE
8
BLACK
6
CONTINUOUS
10
138.138
20
-66.1555
11
138.141
21
-66.18
0
LINE
8
BLACK
6
CONTINUOUS
10
138.141
20
-66.18
11
138.138
21
-66.2045
0
LINE
8
BLACK
6
CONTINUOUS
10
138.138
20
-66.2045
11
138.131
21
-66.2281
0
LINE
8
BLACK
6
CONTINUOUS
10
138.131
20
-66.2281
11
138.119
21
-66.2498
0
LINE
8
BLACK
6
CONTINUOUS
10
138.119
20
-66.2498
11
138.104
21
-66.2688
0
LINE
8
BLACK
6
CONTINUOUS
10
138.104
20
-66.2688
11
138.085
21
-66.2844
0
LINE
8
BLACK
6
CONTINUOUS
10
138.085
20
-66.2844
11
138.063
21
-66.296
0
LINE
8
BLACK
6
CONTINUOUS
10
138.063
20
-66.296
11
138.04
21
-66.3032
0
LINE
8
BLACK
6
CONTINUOUS
10
138.04
20
-66.3032
11
138.021
21
-66.305
0
LINE
8
BLACK
6
CONTINUOUS
10
138.021
20
-66.305
11
137.79
21
-66.305
0
LINE
8
BLACK
6
CONTINUOUS
10
137.79
20
-66.305
11
137.789
21
-66.3059
0
LINE
8
BLACK
6
CONTINUOUS
10
137.789
20
-66.3059
11
137.788
21
-66.3115
0
LINE
8
BLACK
6
CONTINUOUS
10
137.788
20
-66.3115
11
137.785
21
-66.3167
0
LINE
8
BLACK
6
CONTINUOUS
10
137.785
20
-66.3167
11
137.781
21
-66.3212
0
LINE
8
BLACK
6
CONTINUOUS
10
137.781
20
-66.3212
11
137.777
21
-66.3249
0
LINE
8
BLACK
6
CONTINUOUS
10
137.777
20
-66.3249
11
137.771
21
-66.3277
0
LINE
8
BLACK
6
CONTINUOUS
10
137.771
20
-66.3277
11
137.766
21
-66.3294
0
LINE
8
BLACK
6
CONTINUOUS
10
137.766
20
-66.3294
11
137.76
21
-66.33
0
LINE
8
BLACK
6
CONTINUOUS
10
137.76
20
-66.33
11
137.47
21
-66.33
0
LINE
8
BLACK
6
CONTINUOUS
10
137.47
20
-66.33
11
137.47
21
-66.7374
0
LINE
8
BLACK
6
CONTINUOUS
10
137.47
20
-66.7374
11
137.468
21
-66.7594
0
LINE
8
BLACK
6
CONTINUOUS
10
137.468
20
-66.7594
11
137.459
21
-66.7877
0
LINE
8
BLACK
6
CONTINUOUS
10
137.459
20
-66.7877
11
137.445
21
-66.8137
0
LINE
8
BLACK
6
CONTINUOUS
10
137.445
20
-66.8137
11
137.427
21
-66.8366
0
LINE
8
BLACK
6
CONTINUOUS
10
137.427
20
-66.8366
11
137.42
21
-66.842
0
LINE
8
BLACK
6
CONTINUOUS
10
137.42
20
-66.842
11
137.42
21
-67.1349
0
LINE
8
BLACK
6
CONTINUOUS
10
137.42
20
-67.1349
11
137.419
21
-67.1496
0
LINE
8
BLACK
6
CONTINUOUS
10
137.419
20
-67.1496
11
137.413
21
-67.1685
0
LINE
8
BLACK
6
CONTINUOUS
10
137.413
20
-67.1685
11
137.404
21
-67.1858
0
LINE
8
BLACK
6
CONTINUOUS
10
137.404
20
-67.1858
11
137.391
21
-67.2011
0
LINE
8
BLACK
6
CONTINUOUS
10
137.391
20
-67.2011
11
137.376
21
-67.2135
0
LINE
8
BLACK
6
CONTINUOUS
10
137.376
20
-67.2135
11
137.358
21
-67.2228
0
LINE
8
BLACK
6
CONTINUOUS
10
137.358
20
-67.2228
11
137.34
21
-67.2286
0
LINE
8
BLACK
6
CONTINUOUS
10
137.34
20
-67.2286
11
137.32
21
-67.2305
0
LINE
8
BLACK
6
CONTINUOUS
10
137.32
20
-67.2305
11
137.3
21
-67.2286
0
LINE
8
BLACK
6
CONTINUOUS
10
137.3
20
-67.2286
11
137.282
21
-67.2228
0
LINE
8
BLACK
6
CONTINUOUS
10
137.282
20
-67.2228
11
137.264
21
-67.2135
0
LINE
8
BLACK
6
CONTINUOUS
10
137.264
20
-67.2135
11
137.249
21
-67.2011
0
LINE
8
BLACK
6
CONTINUOUS
10
137.249
20
-67.2011
11
137.236
21
-67.1858
0
LINE
8
BLACK
6
CONTINUOUS
10
137.236
20
-67.1858
11
137.227
21
-67.1685
0
LINE
8
BLACK
6
CONTINUOUS
10
137.227
20
-67.1685
11
137.221
21
-67.1496
0
LINE
8
BLACK
6
CONTINUOUS
10
137.221
20
-67.1496
11
137.22
21
-67.1349
0
LINE
8
BLACK
6
CONTINUOUS
10
137.22
20
-67.1349
11
137.22
21
-66.842
0
LINE
8
BLACK
6
CONTINUOUS
10
137.22
20
-66.842
11
137.213
21
-66.8366
0
LINE
8
BLACK
6
CONTINUOUS
10
137.213
20
-66.8366
11
137.195
21
-66.8137
0
LINE
8
BLACK
6
CONTINUOUS
10
137.195
20
-66.8137
11
137.181
21
-66.7877
0
LINE
8
BLACK
6
CONTINUOUS
10
137.181
20
-66.7877
11
137.172
21
-66.7594
0
LINE
8
BLACK
6
CONTINUOUS
10
137.172
20
-66.7594
11
137.17
21
-66.7374
0
LINE
8
BLACK
6
CONTINUOUS
10
137.17
20
-66.7374
11
137.17
21
-66.58
0
LINE
8
BLACK
6
CONTINUOUS
10
137.17
20
-66.58
11
136.97
21
-66.58
0
LINE
8
BLACK
6
CONTINUOUS
10
136.97
20
-66.58
11
136.97
21
-66.7374
0
LINE
8
BLACK
6
CONTINUOUS
10
136.97
20
-66.7374
11
136.968
21
-66.7594
0
LINE
8
BLACK
6
CONTINUOUS
10
136.968
20
-66.7594
11
136.959
21
-66.7877
0
LINE
8
BLACK
6
CONTINUOUS
10
136.959
20
-66.7877
11
136.945
21
-66.8137
0
LINE
8
BLACK
6
CONTINUOUS
10
136.945
20
-66.8137
11
136.927
21
-66.8366
0
LINE
8
BLACK
6
CONTINUOUS
10
136.927
20
-66.8366
11
136.92
21
-66.842
0
LINE
8
BLACK
6
CONTINUOUS
10
136.92
20
-66.842
11
136.92
21
-67.1349
0
LINE
8
BLACK
6
CONTINUOUS
10
136.92
20
-67.1349
11
136.919
21
-67.1496
0
LINE
8
BLACK
6
CONTINUOUS
10
136.919
20
-67.1496
11
136.913
21
-67.1685
0
LINE
8
BLACK
6
CONTINUOUS
10
136.913
20
-67.1685
11
136.904
21
-67.1858
0
LINE
8
BLACK
6
CONTINUOUS
10
136.904
20
-67.1858
11
136.891
21
-67.2011
0
LINE
8
BLACK
6
CONTINUOUS
10
136.891
20
-67.2011
11
136.876
21
-67.2135
0
LINE
8
BLACK
6
CONTINUOUS
10
136.876
20
-67.2135
11
136.858
21
-67.2228
0
LINE
8
BLACK
6
CONTINUOUS
10
136.858
20
-67.2228
11
136.84
21
-67.2286
0
LINE
8
BLACK
6
CONTINUOUS
10
136.84
20
-67.2286
11
136.82
21
-67.2305
0
LINE
8
BLACK
6
CONTINUOUS
10
136.82
20
-67.2305
11
136.8
21
-67.2286
0
LINE
8
BLACK
6
CONTINUOUS
10
136.8
20
-67.2286
11
136.782
21
-67.2228
0
LINE
8
BLACK
6
CONTINUOUS
10
136.782
20
-67.2228
11
136.764
21
-67.2135
0
LINE
8
BLACK
6
CONTINUOUS
10
136.764
20
-67.2135
11
136.749
21
-67.2011
0
LINE
8
BLACK
6
CONTINUOUS
10
136.749
20
-67.2011
11
136.736
21
-67.1858
0
LINE
8
BLACK
6
CONTINUOUS
10
136.736
20
-67.1858
11
136.727
21
-67.1685
0
LINE
8
BLACK
6
CONTINUOUS
10
136.727
20
-67.1685
11
136.721
21
-67.1496
0
LINE
8
BLACK
6
CONTINUOUS
10
136.721
20
-67.1496
11
136.72
21
-67.1349
0
LINE
8
BLACK
6
CONTINUOUS
10
136.72
20
-67.1349
11
136.72
21
-66.842
0
LINE
8
BLACK
6
CONTINUOUS
10
136.72
20
-66.842
11
136.713
21
-66.8366
0
LINE
8
BLACK
6
CONTINUOUS
10
136.713
20
-66.8366
11
136.695
21
-66.8137
0
LINE
8
BLACK
6
CONTINUOUS
10
136.695
20
-66.8137
11
136.681
21
-66.7877
0
LINE
8
BLACK
6
CONTINUOUS
10
136.681
20
-66.7877
11
136.672
21
-66.7594
0
LINE
8
BLACK
6
CONTINUOUS
10
136.672
20
-66.7594
11
136.67
21
-66.7374
0
LINE
8
BLACK
6
CONTINUOUS
10
136.67
20
-66.7374
11
136.67
21
-66.58
0
LINE
8
BLACK
6
CONTINUOUS
10
136.67
20
-66.58
11
136.47
21
-66.58
0
LINE
8
BLACK
6
CONTINUOUS
10
136.47
20
-66.58
11
136.47
21
-66.7374
0
LINE
8
BLACK
6
CONTINUOUS
10
136.47
20
-66.7374
11
136.468
21
-66.7594
0
LINE
8
BLACK
6
CONTINUOUS
10
136.468
20
-66.7594
11
136.459
21
-66.7877
0
LINE
8
BLACK
6
CONTINUOUS
10
136.459
20
-66.7877
11
136.445
21
-66.8137
0
LINE
8
BLACK
6
CONTINUOUS
10
136.445
20
-66.8137
11
136.427
21
-66.8366
0
LINE
8
BLACK
6
CONTINUOUS
10
136.427
20
-66.8366
11
136.42
21
-66.842
0
LINE
8
BLACK
6
CONTINUOUS
10
136.42
20
-66.842
11
136.42
21
-67.1349
0
LINE
8
BLACK
6
CONTINUOUS
10
136.42
20
-67.1349
11
136.419
21
-67.1496
0
LINE
8
BLACK
6
CONTINUOUS
10
136.419
20
-67.1496
11
136.413
21
-67.1685
0
LINE
8
BLACK
6
CONTINUOUS
10
136.413
20
-67.1685
11
136.404
21
-67.1858
0
LINE
8
BLACK
6
CONTINUOUS
10
136.404
20
-67.1858
11
136.391
21
-67.2011
0
LINE
8
BLACK
6
CONTINUOUS
10
136.391
20
-67.2011
11
136.376
21
-67.2135
0
LINE
8
BLACK
6
CONTINUOUS
10
136.376
20
-67.2135
11
136.358
21
-67.2228
0
LINE
8
BLACK
6
CONTINUOUS
10
136.358
20
-67.2228
11
136.34
21
-67.2286
0
LINE
8
BLACK
6
CONTINUOUS
10
136.34
20
-67.2286
11
136.32
21
-67.2305
0
LINE
8
BLACK
6
CONTINUOUS
10
136.32
20
-67.2305
11
136.3
21
-67.2286
0
LINE
8
BLACK
6
CONTINUOUS
10
136.3
20
-67.2286
11
136.282
21
-67.2228
0
LINE
8
BLACK
6
CONTINUOUS
10
136.282
20
-67.2228
11
136.264
21
-67.2135
0
LINE
8
BLACK
6
CONTINUOUS
10
136.264
20
-67.2135
11
136.249
21
-67.2011
0
LINE
8
BLACK
6
CONTINUOUS
10
136.249
20
-67.2011
11
136.236
21
-67.1858
0
LINE
8
BLACK
6
CONTINUOUS
10
136.236
20
-67.1858
11
136.227
21
-67.1685
0
LINE
8
BLACK
6
CONTINUOUS
10
136.227
20
-67.1685
11
136.221
21
-67.1496
0
LINE
8
BLACK
6
CONTINUOUS
10
136.221
20
-67.1496
11
136.22
21
-67.1349
0
LINE
8
BLACK
6
CONTINUOUS
10
136.22
20
-67.1349
11
136.22
21
-66.842
0
LINE
8
BLACK
6
CONTINUOUS
10
136.22
20
-66.842
11
136.213
21
-66.8366
0
LINE
8
BLACK
6
CONTINUOUS
10
136.213
20
-66.8366
11
136.195
21
-66.8137
0
LINE
8
BLACK
6
CONTINUOUS
10
136.195
20
-66.8137
11
136.181
21
-66.7877
0
LINE
8
BLACK
6
CONTINUOUS
10
136.181
20
-66.7877
11
136.172
21
-66.7594
0
LINE
8
BLACK
6
CONTINUOUS
10
136.172
20
-66.7594
11
136.17
21
-66.7374
0
LINE
8
BLACK
6
CONTINUOUS
10
136.17
20
-66.7374
11
136.17
21
-66.58
0
LINE
8
BLACK
6
CONTINUOUS
10
136.17
20
-66.58
11
135.97
21
-66.58
0
LINE
8
BLACK
6
CONTINUOUS
10
135.97
20
-66.58
11
135.97
21
-66.7374
0
LINE
8
BLACK
6
CONTINUOUS
10
135.97
20
-66.7374
11
135.968
21
-66.7594
0
LINE
8
BLACK
6
CONTINUOUS
10
135.968
20
-66.7594
11
135.959
21
-66.7877
0
LINE
8
BLACK
6
CONTINUOUS
10
135.959
20
-66.7877
11
135.945
21
-66.8137
0
LINE
8
BLACK
6
CONTINUOUS
10
135.945
20
-66.8137
11
135.927
21
-66.8366
0
LINE
8
BLACK
6
CONTINUOUS
10
135.927
20
-66.8366
11
135.92
21
-66.842
0
LINE
8
BLACK
6
CONTINUOUS
10
135.92
20
-66.842
11
135.92
21
-67.1349
0
LINE
8
BLACK
6
CONTINUOUS
10
135.92
20
-67.1349
11
135.919
21
-67.1496
0
LINE
8
BLACK
6
CONTINUOUS
10
135.919
20
-67.1496
11
135.913
21
-67.1685
0
LINE
8
BLACK
6
CONTINUOUS
10
135.913
20
-67.1685
11
135.904
21
-67.1858
0
LINE
8
BLACK
6
CONTINUOUS
10
135.904
20
-67.1858
11
135.891
21
-67.2011
0
LINE
8
BLACK
6
CONTINUOUS
10
135.891
20
-67.2011
11
135.876
21
-67.2135
0
LINE
8
BLACK
6
CONTINUOUS
10
135.876
20
-67.2135
11
135.858
21
-67.2228
0
LINE
8
BLACK
6
CONTINUOUS
10
135.858
20
-67.2228
11
135.84
21
-67.2286
0
LINE
8
BLACK
6
CONTINUOUS
10
135.84
20
-67.2286
11
135.82
21
-67.2305
0
LINE
8
BLACK
6
CONTINUOUS
10
135.82
20
-67.2305
11
135.8
21
-67.2286
0
LINE
8
BLACK
6
CONTINUOUS
10
135.8
20
-67.2286
11
135.782
21
-67.2228
0
LINE
8
BLACK
6
CONTINUOUS
10
135.782
20
-67.2228
11
135.764
21
-67.2135
0
LINE
8
BLACK
6
CONTINUOUS
10
135.764
20
-67.2135
11
135.749
21
-67.2011
0
LINE
8
BLACK
6
CONTINUOUS
10
135.749
20
-67.2011
11
135.736
21
-67.1858
0
LINE
8
BLACK
6
CONTINUOUS
10
135.736
20
-67.1858
11
135.727
21
-67.1685
0
LINE
8
BLACK
6
CONTINUOUS
10
135.727
20
-67.1685
11
135.721
21
-67.1496
0
LINE
8
BLACK
6
CONTINUOUS
10
135.721
20
-67.1496
11
135.72
21
-67.1349
0
LINE
8
BLACK
6
CONTINUOUS
10
135.72
20
-67.1349
11
135.72
21
-66.842
0
LINE
8
BLACK
6
CONTINUOUS
10
135.72
20
-66.842
11
135.713
21
-66.8366
0
LINE
8
BLACK
6
CONTINUOUS
10
135.713
20
-66.8366
11
135.695
21
-66.8137
0
LINE
8
BLACK
6
CONTINUOUS
10
135.695
20
-66.8137
11
135.681
21
-66.7877
0
LINE
8
BLACK
6
CONTINUOUS
10
135.681
20
-66.7877
11
135.672
21
-66.7594
0
LINE
8
BLACK
6
CONTINUOUS
10
135.672
20
-66.7594
11
135.67
21
-66.7374
0
LINE
8
BLACK
6
CONTINUOUS
10
135.67
20
-66.7374
11
135.67
21
-66.58
0
LINE
8
BLACK
6
CONTINUOUS
10
135.67
20
-66.58
11
135.47
21
-66.58
0
LINE
8
BLACK
6
CONTINUOUS
10
135.47
20
-66.58
11
135.47
21
-66.7374
0
LINE
8
BLACK
6
CONTINUOUS
10
135.47
20
-66.7374
11
135.468
21
-66.7594
0
LINE
8
BLACK
6
CONTINUOUS
10
135.468
20
-66.7594
11
135.459
21
-66.7877
0
LINE
8
BLACK
6
CONTINUOUS
10
135.459
20
-66.7877
11
135.445
21
-66.8137
0
LINE
8
BLACK
6
CONTINUOUS
10
135.445
20
-66.8137
11
135.427
21
-66.8366
0
LINE
8
BLACK
6
CONTINUOUS
10
135.427
20
-66.8366
11
135.42
21
-66.842
0
LINE
8
BLACK
6
CONTINUOUS
10
135.42
20
-66.842
11
135.42
21
-67.1349
0
LINE
8
BLACK
6
CONTINUOUS
10
135.42
20
-67.1349
11
135.419
21
-67.1496
0
LINE
8
BLACK
6
CONTINUOUS
10
135.419
20
-67.1496
11
135.413
21
-67.1685
0
LINE
8
BLACK
6
CONTINUOUS
10
135.413
20
-67.1685
11
135.404
21
-67.1858
0
LINE
8
BLACK
6
CONTINUOUS
10
135.404
20
-67.1858
11
135.391
21
-67.2011
0
LINE
8
BLACK
6
CONTINUOUS
10
135.391
20
-67.2011
11
135.376
21
-67.2135
0
LINE
8
BLACK
6
CONTINUOUS
10
135.376
20
-67.2135
11
135.358
21
-67.2228
0
LINE
8
BLACK
6
CONTINUOUS
10
135.358
20
-67.2228
11
135.34
21
-67.2286
0
LINE
8
BLACK
6
CONTINUOUS
10
135.34
20
-67.2286
11
135.32
21
-67.2305
0
LINE
8
BLACK
6
CONTINUOUS
10
135.32
20
-67.2305
11
135.3
21
-67.2286
0
LINE
8
BLACK
6
CONTINUOUS
10
135.3
20
-67.2286
11
135.282
21
-67.2228
0
LINE
8
BLACK
6
CONTINUOUS
10
135.282
20
-67.2228
11
135.264
21
-67.2135
0
LINE
8
BLACK
6
CONTINUOUS
10
135.264
20
-67.2135
11
135.249
21
-67.2011
0
LINE
8
BLACK
6
CONTINUOUS
10
135.249
20
-67.2011
11
135.236
21
-67.1858
0
LINE
8
BLACK
6
CONTINUOUS
10
135.236
20
-67.1858
11
135.227
21
-67.1685
0
LINE
8
BLACK
6
CONTINUOUS
10
135.227
20
-67.1685
11
135.221
21
-67.1496
0
LINE
8
BLACK
6
CONTINUOUS
10
135.221
20
-67.1496
11
135.22
21
-67.1349
0
LINE
8
BLACK
6
CONTINUOUS
10
135.22
20
-67.1349
11
135.22
21
-66.842
0
LINE
8
BLACK
6
CONTINUOUS
10
135.22
20
-66.842
11
135.213
21
-66.8366
0
LINE
8
BLACK
6
CONTINUOUS
10
135.213
20
-66.8366
11
135.195
21
-66.8137
0
LINE
8
BLACK
6
CONTINUOUS
10
135.195
20
-66.8137
11
135.181
21
-66.7877
0
LINE
8
BLACK
6
CONTINUOUS
10
135.181
20
-66.7877
11
135.172
21
-66.7594
0
LINE
8
BLACK
6
CONTINUOUS
10
135.172
20
-66.7594
11
135.17
21
-66.7374
0
LINE
8
BLACK
6
CONTINUOUS
10
135.17
20
-66.7374
11
135.17
21
-66.1874
0
LINE
8
BLACK
6
CONTINUOUS
10
135.17
20
-66.1874
11
135.169
21
-66.18
0
LINE
8
BLACK
6
CONTINUOUS
10
135.169
20
-66.18
11
135.172
21
-66.1506
0
LINE
8
BLACK
6
CONTINUOUS
10
135.172
20
-66.1506
11
135.181
21
-66.1223
0
LINE
8
BLACK
6
CONTINUOUS
10
135.181
20
-66.1223
11
135.195
21
-66.0963
0
LINE
8
BLACK
6
CONTINUOUS
10
135.195
20
-66.0963
11
135.213
21
-66.0734
0
LINE
8
BLACK
6
CONTINUOUS
10
135.213
20
-66.0734
11
135.236
21
-66.0547
0
LINE
8
BLACK
6
CONTINUOUS
10
135.236
20
-66.0547
11
135.262
21
-66.0407
0
LINE
8
BLACK
6
CONTINUOUS
10
135.262
20
-66.0407
11
135.291
21
-66.0322
0
LINE
8
BLACK
6
CONTINUOUS
10
135.291
20
-66.0322
11
135.313
21
-66.03
0
LINE
8
BLACK
6
CONTINUOUS
10
135.313
20
-66.03
11
135.32
21
-66.0293
0
LINE
8
BLACK
6
CONTINUOUS
10
135.32
20
-66.0293
11
135.327
21
-66.03
0
LINE
8
BLACK
6
CONTINUOUS
10
135.327
20
-66.03
11
135.813
21
-66.03
0
LINE
8
BLACK
6
CONTINUOUS
10
135.813
20
-66.03
11
135.82
21
-66.0293
0
LINE
8
BLACK
6
CONTINUOUS
10
135.82
20
-66.0293
11
135.827
21
-66.03
0
LINE
8
BLACK
6
CONTINUOUS
10
135.827
20
-66.03
11
136.313
21
-66.03
0
LINE
8
BLACK
6
CONTINUOUS
10
136.313
20
-66.03
11
136.32
21
-66.0293
0
LINE
8
BLACK
6
CONTINUOUS
10
136.32
20
-66.0293
11
136.327
21
-66.03
0
LINE
8
BLACK
6
CONTINUOUS
10
136.327
20
-66.03
11
136.813
21
-66.03
0
LINE
8
BLACK
6
CONTINUOUS
10
136.813
20
-66.03
11
136.82
21
-66.0293
0
LINE
8
BLACK
6
CONTINUOUS
10
136.82
20
-66.0293
11
136.827
21
-66.03
0
LINE
8
BLACK
6
CONTINUOUS
10
136.827
20
-66.03
11
137.313
21
-66.03
0
LINE
8
BLACK
6
CONTINUOUS
10
137.313
20
-66.03
11
137.32
21
-66.0293
0
LINE
8
BLACK
6
CONTINUOUS
10
137.32
20
-66.0293
11
137.327
21
-66.03
0
LINE
8
BLACK
6
CONTINUOUS
10
137.327
20
-66.03
11
137.76
21
-66.03
0
LINE
8
BLACK
6
CONTINUOUS
10
137.76
20
-66.03
11
137.766
21
-66.0306
0
LINE
8
BLACK
6
CONTINUOUS
10
134.675
20
-65.0405
11
134.68
21
-65.0419
0
LINE
8
BLACK
6
CONTINUOUS
10
134.68
20
-65.0419
11
134.684
21
-65.0442
0
LINE
8
BLACK
6
CONTINUOUS
10
134.684
20
-65.0442
11
134.688
21
-65.0473
0
LINE
8
BLACK
6
CONTINUOUS
10
134.688
20
-65.0473
11
134.691
21
-65.0511
0
LINE
8
BLACK
6
CONTINUOUS
10
134.691
20
-65.0511
11
134.693
21
-65.0554
0
LINE
8
BLACK
6
CONTINUOUS
10
134.693
20
-65.0554
11
134.695
21
-65.0601
0
LINE
8
BLACK
6
CONTINUOUS
10
134.695
20
-65.0601
11
134.695
21
-65.065
0
LINE
8
BLACK
6
CONTINUOUS
10
134.695
20
-65.065
11
134.695
21
-65.7189
0
LINE
8
BLACK
6
CONTINUOUS
10
134.695
20
-65.7189
11
134.696
21
-65.725
0
LINE
8
BLACK
6
CONTINUOUS
10
134.696
20
-65.725
11
134.695
21
-65.7311
0
LINE
8
BLACK
6
CONTINUOUS
10
134.695
20
-65.7311
11
134.695
21
-66.855
0
LINE
8
BLACK
6
CONTINUOUS
10
134.695
20
-66.855
11
134.695
21
-66.8599
0
LINE
8
BLACK
6
CONTINUOUS
10
134.695
20
-66.8599
11
134.693
21
-66.8646
0
LINE
8
BLACK
6
CONTINUOUS
10
134.693
20
-66.8646
11
134.691
21
-66.8689
0
LINE
8
BLACK
6
CONTINUOUS
10
134.691
20
-66.8689
11
134.688
21
-66.8727
0
LINE
8
BLACK
6
CONTINUOUS
10
134.688
20
-66.8727
11
134.684
21
-66.8758
0
LINE
8
BLACK
6
CONTINUOUS
10
134.684
20
-66.8758
11
134.68
21
-66.8781
0
LINE
8
BLACK
6
CONTINUOUS
10
134.68
20
-66.8781
11
134.675
21
-66.8795
0
LINE
8
BLACK
6
CONTINUOUS
10
134.675
20
-66.8795
11
134.67
21
-66.88
0
LINE
8
BLACK
6
CONTINUOUS
10
134.67
20
-66.88
11
134.67
21
-67.1349
0
LINE
8
BLACK
6
CONTINUOUS
10
134.67
20
-67.1349
11
134.669
21
-67.1496
0
LINE
8
BLACK
6
CONTINUOUS
10
134.669
20
-67.1496
11
134.663
21
-67.1685
0
LINE
8
BLACK
6
CONTINUOUS
10
134.663
20
-67.1685
11
134.654
21
-67.1858
0
LINE
8
BLACK
6
CONTINUOUS
10
134.654
20
-67.1858
11
134.641
21
-67.2011
0
LINE
8
BLACK
6
CONTINUOUS
10
134.641
20
-67.2011
11
134.626
21
-67.2135
0
LINE
8
BLACK
6
CONTINUOUS
10
134.626
20
-67.2135
11
134.608
21
-67.2228
0
LINE
8
BLACK
6
CONTINUOUS
10
134.608
20
-67.2228
11
134.59
21
-67.2286
0
LINE
8
BLACK
6
CONTINUOUS
10
134.59
20
-67.2286
11
134.57
21
-67.2305
0
LINE
8
BLACK
6
CONTINUOUS
10
134.57
20
-67.2305
11
134.55
21
-67.2286
0
LINE
8
BLACK
6
CONTINUOUS
10
134.55
20
-67.2286
11
134.532
21
-67.2228
0
LINE
8
BLACK
6
CONTINUOUS
10
134.532
20
-67.2228
11
134.514
21
-67.2135
0
LINE
8
BLACK
6
CONTINUOUS
10
134.514
20
-67.2135
11
134.499
21
-67.2011
0
LINE
8
BLACK
6
CONTINUOUS
10
134.499
20
-67.2011
11
134.486
21
-67.1858
0
LINE
8
BLACK
6
CONTINUOUS
10
134.486
20
-67.1858
11
134.477
21
-67.1685
0
LINE
8
BLACK
6
CONTINUOUS
10
134.477
20
-67.1685
11
134.471
21
-67.1496
0
LINE
8
BLACK
6
CONTINUOUS
10
134.471
20
-67.1496
11
134.47
21
-67.1349
0
LINE
8
BLACK
6
CONTINUOUS
10
134.47
20
-67.1349
11
134.47
21
-66.88
0
LINE
8
BLACK
6
CONTINUOUS
10
134.47
20
-66.88
11
134.47
21
-66.88
0
LINE
8
BLACK
6
CONTINUOUS
10
134.47
20
-66.88
11
134.465
21
-66.8795
0
LINE
8
BLACK
6
CONTINUOUS
10
134.465
20
-66.8795
11
134.46
21
-66.8781
0
LINE
8
BLACK
6
CONTINUOUS
10
134.46
20
-66.8781
11
134.456
21
-66.8758
0
LINE
8
BLACK
6
CONTINUOUS
10
134.456
20
-66.8758
11
134.452
21
-66.8727
0
LINE
8
BLACK
6
CONTINUOUS
10
134.452
20
-66.8727
11
134.449
21
-66.8689
0
LINE
8
BLACK
6
CONTINUOUS
10
134.449
20
-66.8689
11
134.447
21
-66.8646
0
LINE
8
BLACK
6
CONTINUOUS
10
134.447
20
-66.8646
11
134.445
21
-66.8599
0
LINE
8
BLACK
6
CONTINUOUS
10
134.445
20
-66.8599
11
134.445
21
-66.855
0
LINE
8
BLACK
6
CONTINUOUS
10
134.445
20
-66.855
11
134.445
21
-65.7768
0
LINE
8
BLACK
6
CONTINUOUS
10
134.445
20
-65.7768
11
134.308
21
-65.64
0
LINE
8
BLACK
6
CONTINUOUS
10
134.308
20
-65.64
11
133.735
21
-65.64
0
LINE
8
BLACK
6
CONTINUOUS
10
133.735
20
-65.64
11
133.723
21
-65.6388
0
LINE
8
BLACK
6
CONTINUOUS
10
133.723
20
-65.6388
11
133.712
21
-65.6354
0
LINE
8
BLACK
6
CONTINUOUS
10
133.712
20
-65.6354
11
133.702
21
-65.6299
0
LINE
8
BLACK
6
CONTINUOUS
10
133.702
20
-65.6299
11
133.693
21
-65.6224
0
LINE
8
BLACK
6
CONTINUOUS
10
133.693
20
-65.6224
11
133.685
21
-65.6133
0
LINE
8
BLACK
6
CONTINUOUS
10
133.685
20
-65.6133
11
133.68
21
-65.603
0
LINE
8
BLACK
6
CONTINUOUS
10
133.68
20
-65.603
11
133.676
21
-65.5917
0
LINE
8
BLACK
6
CONTINUOUS
10
133.676
20
-65.5917
11
133.675
21
-65.58
0
LINE
8
BLACK
6
CONTINUOUS
10
133.675
20
-65.58
11
133.675
21
-65.1
0
LINE
8
BLACK
6
CONTINUOUS
10
133.675
20
-65.1
11
133.676
21
-65.0883
0
LINE
8
BLACK
6
CONTINUOUS
10
133.676
20
-65.0883
11
133.68
21
-65.077
0
LINE
8
BLACK
6
CONTINUOUS
10
133.68
20
-65.077
11
133.685
21
-65.0667
0
LINE
8
BLACK
6
CONTINUOUS
10
133.685
20
-65.0667
11
133.693
21
-65.0576
0
LINE
8
BLACK
6
CONTINUOUS
10
133.693
20
-65.0576
11
133.702
21
-65.0501
0
LINE
8
BLACK
6
CONTINUOUS
10
133.702
20
-65.0501
11
133.712
21
-65.0446
0
LINE
8
BLACK
6
CONTINUOUS
10
133.712
20
-65.0446
11
133.723
21
-65.0412
0
LINE
8
BLACK
6
CONTINUOUS
10
133.723
20
-65.0412
11
133.735
21
-65.04
0
LINE
8
BLACK
6
CONTINUOUS
10
133.735
20
-65.04
11
134.67
21
-65.04
0
LINE
8
BLACK
6
CONTINUOUS
10
134.67
20
-65.04
11
134.675
21
-65.0405
0
LINE
8
BLACK
6
CONTINUOUS
10
132.09
20
-66.4814
11
132.108
21
-66.4872
0
LINE
8
BLACK
6
CONTINUOUS
10
132.108
20
-66.4872
11
132.126
21
-66.4965
0
LINE
8
BLACK
6
CONTINUOUS
10
132.126
20
-66.4965
11
132.141
21
-66.5089
0
LINE
8
BLACK
6
CONTINUOUS
10
132.141
20
-66.5089
11
132.154
21
-66.5242
0
LINE
8
BLACK
6
CONTINUOUS
10
132.154
20
-66.5242
11
132.163
21
-66.5415
0
LINE
8
BLACK
6
CONTINUOUS
10
132.163
20
-66.5415
11
132.169
21
-66.5604
0
LINE
8
BLACK
6
CONTINUOUS
10
132.169
20
-66.5604
11
132.17
21
-66.5751
0
LINE
8
BLACK
6
CONTINUOUS
10
132.17
20
-66.5751
11
132.17
21
-67.1349
0
LINE
8
BLACK
6
CONTINUOUS
10
132.17
20
-67.1349
11
132.169
21
-67.1496
0
LINE
8
BLACK
6
CONTINUOUS
10
132.169
20
-67.1496
11
132.163
21
-67.1685
0
LINE
8
BLACK
6
CONTINUOUS
10
132.163
20
-67.1685
11
132.154
21
-67.1858
0
LINE
8
BLACK
6
CONTINUOUS
10
132.154
20
-67.1858
11
132.141
21
-67.2011
0
LINE
8
BLACK
6
CONTINUOUS
10
132.141
20
-67.2011
11
132.126
21
-67.2135
0
LINE
8
BLACK
6
CONTINUOUS
10
132.126
20
-67.2135
11
132.108
21
-67.2228
0
LINE
8
BLACK
6
CONTINUOUS
10
132.108
20
-67.2228
11
132.09
21
-67.2286
0
LINE
8
BLACK
6
CONTINUOUS
10
132.09
20
-67.2286
11
132.07
21
-67.2305
0
LINE
8
BLACK
6
CONTINUOUS
10
132.07
20
-67.2305
11
132.05
21
-67.2286
0
LINE
8
BLACK
6
CONTINUOUS
10
132.05
20
-67.2286
11
132.032
21
-67.2228
0
LINE
8
BLACK
6
CONTINUOUS
10
132.032
20
-67.2228
11
132.014
21
-67.2135
0
LINE
8
BLACK
6
CONTINUOUS
10
132.014
20
-67.2135
11
131.999
21
-67.2011
0
LINE
8
BLACK
6
CONTINUOUS
10
131.999
20
-67.2011
11
131.986
21
-67.1858
0
LINE
8
BLACK
6
CONTINUOUS
10
131.986
20
-67.1858
11
131.977
21
-67.1685
0
LINE
8
BLACK
6
CONTINUOUS
10
131.977
20
-67.1685
11
131.971
21
-67.1496
0
LINE
8
BLACK
6
CONTINUOUS
10
131.971
20
-67.1496
11
131.97
21
-67.1349
0
LINE
8
BLACK
6
CONTINUOUS
10
131.97
20
-67.1349
11
131.97
21
-66.5751
0
LINE
8
BLACK
6
CONTINUOUS
10
131.97
20
-66.5751
11
131.971
21
-66.5604
0
LINE
8
BLACK
6
CONTINUOUS
10
131.971
20
-66.5604
11
131.977
21
-66.5415
0
LINE
8
BLACK
6
CONTINUOUS
10
131.977
20
-66.5415
11
131.986
21
-66.5242
0
LINE
8
BLACK
6
CONTINUOUS
10
131.986
20
-66.5242
11
131.999
21
-66.5089
0
LINE
8
BLACK
6
CONTINUOUS
10
131.999
20
-66.5089
11
132.014
21
-66.4965
0
LINE
8
BLACK
6
CONTINUOUS
10
132.014
20
-66.4965
11
132.032
21
-66.4872
0
LINE
8
BLACK
6
CONTINUOUS
10
132.032
20
-66.4872
11
132.05
21
-66.4814
0
LINE
8
BLACK
6
CONTINUOUS
10
132.05
20
-66.4814
11
132.07
21
-66.4795
0
LINE
8
BLACK
6
CONTINUOUS
10
132.07
20
-66.4795
11
132.09
21
-66.4814
0
LINE
8
BLACK
6
CONTINUOUS
10
131.59
20
-66.4814
11
131.608
21
-66.4872
0
LINE
8
BLACK
6
CONTINUOUS
10
131.608
20
-66.4872
11
131.626
21
-66.4965
0
LINE
8
BLACK
6
CONTINUOUS
10
131.626
20
-66.4965
11
131.641
21
-66.5089
0
LINE
8
BLACK
6
CONTINUOUS
10
131.641
20
-66.5089
11
131.654
21
-66.5242
0
LINE
8
BLACK
6
CONTINUOUS
10
131.654
20
-66.5242
11
131.663
21
-66.5415
0
LINE
8
BLACK
6
CONTINUOUS
10
131.663
20
-66.5415
11
131.669
21
-66.5604
0
LINE
8
BLACK
6
CONTINUOUS
10
131.669
20
-66.5604
11
131.67
21
-66.5751
0
LINE
8
BLACK
6
CONTINUOUS
10
131.67
20
-66.5751
11
131.67
21
-67.1349
0
LINE
8
BLACK
6
CONTINUOUS
10
131.67
20
-67.1349
11
131.669
21
-67.1496
0
LINE
8
BLACK
6
CONTINUOUS
10
131.669
20
-67.1496
11
131.663
21
-67.1685
0
LINE
8
BLACK
6
CONTINUOUS
10
131.663
20
-67.1685
11
131.654
21
-67.1858
0
LINE
8
BLACK
6
CONTINUOUS
10
131.654
20
-67.1858
11
131.641
21
-67.2011
0
LINE
8
BLACK
6
CONTINUOUS
10
131.641
20
-67.2011
11
131.626
21
-67.2135
0
LINE
8
BLACK
6
CONTINUOUS
10
131.626
20
-67.2135
11
131.608
21
-67.2228
0
LINE
8
BLACK
6
CONTINUOUS
10
131.608
20
-67.2228
11
131.59
21
-67.2286
0
LINE
8
BLACK
6
CONTINUOUS
10
131.59
20
-67.2286
11
131.57
21
-67.2305
0
LINE
8
BLACK
6
CONTINUOUS
10
131.57
20
-67.2305
11
131.55
21
-67.2286
0
LINE
8
BLACK
6
CONTINUOUS
10
131.55
20
-67.2286
11
131.532
21
-67.2228
0
LINE
8
BLACK
6
CONTINUOUS
10
131.532
20
-67.2228
11
131.514
21
-67.2135
0
LINE
8
BLACK
6
CONTINUOUS
10
131.514
20
-67.2135
11
131.499
21
-67.2011
0
LINE
8
BLACK
6
CONTINUOUS
10
131.499
20
-67.2011
11
131.486
21
-67.1858
0
LINE
8
BLACK
6
CONTINUOUS
10
131.486
20
-67.1858
11
131.477
21
-67.1685
0
LINE
8
BLACK
6
CONTINUOUS
10
131.477
20
-67.1685
11
131.471
21
-67.1496
0
LINE
8
BLACK
6
CONTINUOUS
10
131.471
20
-67.1496
11
131.47
21
-67.1349
0
LINE
8
BLACK
6
CONTINUOUS
10
131.47
20
-67.1349
11
131.47
21
-66.5751
0
LINE
8
BLACK
6
CONTINUOUS
10
131.47
20
-66.5751
11
131.471
21
-66.5604
0
LINE
8
BLACK
6
CONTINUOUS
10
131.471
20
-66.5604
11
131.477
21
-66.5415
0
LINE
8
BLACK
6
CONTINUOUS
10
131.477
20
-66.5415
11
131.486
21
-66.5242
0
LINE
8
BLACK
6
CONTINUOUS
10
131.486
20
-66.5242
11
131.499
21
-66.5089
0
LINE
8
BLACK
6
CONTINUOUS
10
131.499
20
-66.5089
11
131.514
21
-66.4965
0
LINE
8
BLACK
6
CONTINUOUS
10
131.514
20
-66.4965
11
131.532
21
-66.4872
0
LINE
8
BLACK
6
CONTINUOUS
10
131.532
20
-66.4872
11
131.55
21
-66.4814
0
LINE
8
BLACK
6
CONTINUOUS
10
131.55
20
-66.4814
11
131.57
21
-66.4795
0
LINE
8
BLACK
6
CONTINUOUS
10
131.57
20
-66.4795
11
131.59
21
-66.4814
0
LINE
8
BLACK
6
CONTINUOUS
10
131.11
20
-66.2814
11
131.128
21
-66.2872
0
LINE
8
BLACK
6
CONTINUOUS
10
131.128
20
-66.2872
11
131.146
21
-66.2965
0
LINE
8
BLACK
6
CONTINUOUS
10
131.146
20
-66.2965
11
131.161
21
-66.3089
0
LINE
8
BLACK
6
CONTINUOUS
10
131.161
20
-66.3089
11
131.174
21
-66.3242
0
LINE
8
BLACK
6
CONTINUOUS
10
131.174
20
-66.3242
11
131.183
21
-66.3415
0
LINE
8
BLACK
6
CONTINUOUS
10
131.183
20
-66.3415
11
131.189
21
-66.3604
0
LINE
8
BLACK
6
CONTINUOUS
10
131.189
20
-66.3604
11
131.19
21
-66.38
0
LINE
8
BLACK
6
CONTINUOUS
10
131.19
20
-66.38
11
131.189
21
-66.3996
0
LINE
8
BLACK
6
CONTINUOUS
10
131.189
20
-66.3996
11
131.183
21
-66.4185
0
LINE
8
BLACK
6
CONTINUOUS
10
131.183
20
-66.4185
11
131.174
21
-66.4358
0
LINE
8
BLACK
6
CONTINUOUS
10
131.174
20
-66.4358
11
131.161
21
-66.4511
0
LINE
8
BLACK
6
CONTINUOUS
10
131.161
20
-66.4511
11
131.146
21
-66.4635
0
LINE
8
BLACK
6
CONTINUOUS
10
131.146
20
-66.4635
11
131.128
21
-66.4728
0
LINE
8
BLACK
6
CONTINUOUS
10
131.128
20
-66.4728
11
131.11
21
-66.4786
0
LINE
8
BLACK
6
CONTINUOUS
10
131.11
20
-66.4786
11
131.095
21
-66.48
0
LINE
8
BLACK
6
CONTINUOUS
10
131.095
20
-66.48
11
130.535
21
-66.48
0
LINE
8
BLACK
6
CONTINUOUS
10
130.535
20
-66.48
11
130.52
21
-66.4786
0
LINE
8
BLACK
6
CONTINUOUS
10
130.52
20
-66.4786
11
130.502
21
-66.4728
0
LINE
8
BLACK
6
CONTINUOUS
10
130.502
20
-66.4728
11
130.484
21
-66.4635
0
LINE
8
BLACK
6
CONTINUOUS
10
130.484
20
-66.4635
11
130.469
21
-66.4511
0
LINE
8
BLACK
6
CONTINUOUS
10
130.469
20
-66.4511
11
130.456
21
-66.4358
0
LINE
8
BLACK
6
CONTINUOUS
10
130.456
20
-66.4358
11
130.447
21
-66.4185
0
LINE
8
BLACK
6
CONTINUOUS
10
130.447
20
-66.4185
11
130.441
21
-66.3996
0
LINE
8
BLACK
6
CONTINUOUS
10
130.441
20
-66.3996
11
130.44
21
-66.38
0
LINE
8
BLACK
6
CONTINUOUS
10
130.44
20
-66.38
11
130.441
21
-66.3604
0
LINE
8
BLACK
6
CONTINUOUS
10
130.441
20
-66.3604
11
130.447
21
-66.3415
0
LINE
8
BLACK
6
CONTINUOUS
10
130.447
20
-66.3415
11
130.456
21
-66.3242
0
LINE
8
BLACK
6
CONTINUOUS
10
130.456
20
-66.3242
11
130.469
21
-66.3089
0
LINE
8
BLACK
6
CONTINUOUS
10
130.469
20
-66.3089
11
130.484
21
-66.2965
0
LINE
8
BLACK
6
CONTINUOUS
10
130.484
20
-66.2965
11
130.502
21
-66.2872
0
LINE
8
BLACK
6
CONTINUOUS
10
130.502
20
-66.2872
11
130.52
21
-66.2814
0
LINE
8
BLACK
6
CONTINUOUS
10
130.52
20
-66.2814
11
130.535
21
-66.28
0
LINE
8
BLACK
6
CONTINUOUS
10
130.535
20
-66.28
11
131.095
21
-66.28
0
LINE
8
BLACK
6
CONTINUOUS
10
131.095
20
-66.28
11
131.11
21
-66.2814
0
LINE
8
BLACK
6
CONTINUOUS
10
129.349
20
-63.4648
11
129.396
21
-63.479
0
LINE
8
BLACK
6
CONTINUOUS
10
129.396
20
-63.479
11
129.439
21
-63.5021
0
LINE
8
BLACK
6
CONTINUOUS
10
129.439
20
-63.5021
11
129.477
21
-63.5332
0
LINE
8
BLACK
6
CONTINUOUS
10
129.477
20
-63.5332
11
129.508
21
-63.5711
0
LINE
8
BLACK
6
CONTINUOUS
10
129.508
20
-63.5711
11
129.531
21
-63.6143
0
LINE
8
BLACK
6
CONTINUOUS
10
129.531
20
-63.6143
11
129.545
21
-63.6612
0
LINE
8
BLACK
6
CONTINUOUS
10
129.545
20
-63.6612
11
129.55
21
-63.71
0
LINE
8
BLACK
6
CONTINUOUS
10
129.55
20
-63.71
11
129.55
21
-64.5832
0
LINE
8
BLACK
6
CONTINUOUS
10
129.55
20
-64.5832
11
129.722
21
-64.755
0
LINE
8
BLACK
6
CONTINUOUS
10
129.722
20
-64.755
11
130.821
21
-64.755
0
LINE
8
BLACK
6
CONTINUOUS
10
130.821
20
-64.755
11
130.84
21
-64.7568
0
LINE
8
BLACK
6
CONTINUOUS
10
130.84
20
-64.7568
11
130.863
21
-64.764
0
LINE
8
BLACK
6
CONTINUOUS
10
130.863
20
-64.764
11
130.885
21
-64.7756
0
LINE
8
BLACK
6
CONTINUOUS
10
130.885
20
-64.7756
11
130.89
21
-64.78
0
LINE
8
BLACK
6
CONTINUOUS
10
130.89
20
-64.78
11
131.095
21
-64.78
0
LINE
8
BLACK
6
CONTINUOUS
10
131.095
20
-64.78
11
131.11
21
-64.7814
0
LINE
8
BLACK
6
CONTINUOUS
10
131.11
20
-64.7814
11
131.128
21
-64.7872
0
LINE
8
BLACK
6
CONTINUOUS
10
131.128
20
-64.7872
11
131.146
21
-64.7965
0
LINE
8
BLACK
6
CONTINUOUS
10
131.146
20
-64.7965
11
131.161
21
-64.8089
0
LINE
8
BLACK
6
CONTINUOUS
10
131.161
20
-64.8089
11
131.174
21
-64.8242
0
LINE
8
BLACK
6
CONTINUOUS
10
131.174
20
-64.8242
11
131.183
21
-64.8415
0
LINE
8
BLACK
6
CONTINUOUS
10
131.183
20
-64.8415
11
131.189
21
-64.8604
0
LINE
8
BLACK
6
CONTINUOUS
10
131.189
20
-64.8604
11
131.19
21
-64.88
0
LINE
8
BLACK
6
CONTINUOUS
10
131.19
20
-64.88
11
131.189
21
-64.8996
0
LINE
8
BLACK
6
CONTINUOUS
10
131.189
20
-64.8996
11
131.183
21
-64.9185
0
LINE
8
BLACK
6
CONTINUOUS
10
131.183
20
-64.9185
11
131.174
21
-64.9358
0
LINE
8
BLACK
6
CONTINUOUS
10
131.174
20
-64.9358
11
131.161
21
-64.9511
0
LINE
8
BLACK
6
CONTINUOUS
10
131.161
20
-64.9511
11
131.146
21
-64.9635
0
LINE
8
BLACK
6
CONTINUOUS
10
131.146
20
-64.9635
11
131.128
21
-64.9728
0
LINE
8
BLACK
6
CONTINUOUS
10
131.128
20
-64.9728
11
131.11
21
-64.9786
0
LINE
8
BLACK
6
CONTINUOUS
10
131.11
20
-64.9786
11
131.095
21
-64.98
0
LINE
8
BLACK
6
CONTINUOUS
10
131.095
20
-64.98
11
130.89
21
-64.98
0
LINE
8
BLACK
6
CONTINUOUS
10
130.89
20
-64.98
11
130.885
21
-64.9844
0
LINE
8
BLACK
6
CONTINUOUS
10
130.885
20
-64.9844
11
130.863
21
-64.996
0
LINE
8
BLACK
6
CONTINUOUS
10
130.863
20
-64.996
11
130.84
21
-65.0032
0
LINE
8
BLACK
6
CONTINUOUS
10
130.84
20
-65.0032
11
130.821
21
-65.005
0
LINE
8
BLACK
6
CONTINUOUS
10
130.821
20
-65.005
11
129.676
21
-65.005
0
LINE
8
BLACK
6
CONTINUOUS
10
129.676
20
-65.005
11
129.67
21
-65.0056
0
LINE
8
BLACK
6
CONTINUOUS
10
129.67
20
-65.0056
11
129.664
21
-65.005
0
LINE
8
BLACK
6
CONTINUOUS
10
129.664
20
-65.005
11
129.664
21
-65.005
0
LINE
8
BLACK
6
CONTINUOUS
10
129.664
20
-65.005
11
129.645
21
-65.0032
0
LINE
8
BLACK
6
CONTINUOUS
10
129.645
20
-65.0032
11
129.622
21
-64.996
0
LINE
8
BLACK
6
CONTINUOUS
10
129.622
20
-64.996
11
129.6
21
-64.9844
0
LINE
8
BLACK
6
CONTINUOUS
10
129.6
20
-64.9844
11
129.586
21
-64.9727
0
LINE
8
BLACK
6
CONTINUOUS
10
129.586
20
-64.9727
11
129.581
21
-64.9688
0
LINE
8
BLACK
6
CONTINUOUS
10
129.581
20
-64.9688
11
129.577
21
-64.9641
0
LINE
8
BLACK
6
CONTINUOUS
10
129.577
20
-64.9641
11
129.434
21
-64.8206
0
LINE
8
BLACK
6
CONTINUOUS
10
129.434
20
-64.8206
11
129.396
21
-64.841
0
LINE
8
BLACK
6
CONTINUOUS
10
129.396
20
-64.841
11
129.349
21
-64.8552
0
LINE
8
BLACK
6
CONTINUOUS
10
129.349
20
-64.8552
11
129.3
21
-64.86
0
LINE
8
BLACK
6
CONTINUOUS
10
129.3
20
-64.86
11
128.6
21
-64.86
0
LINE
8
BLACK
6
CONTINUOUS
10
128.6
20
-64.86
11
128.551
21
-64.8552
0
LINE
8
BLACK
6
CONTINUOUS
10
128.551
20
-64.8552
11
128.504
21
-64.841
0
LINE
8
BLACK
6
CONTINUOUS
10
128.504
20
-64.841
11
128.461
21
-64.8179
0
LINE
8
BLACK
6
CONTINUOUS
10
128.461
20
-64.8179
11
128.423
21
-64.7868
0
LINE
8
BLACK
6
CONTINUOUS
10
128.423
20
-64.7868
11
128.392
21
-64.7489
0
LINE
8
BLACK
6
CONTINUOUS
10
128.392
20
-64.7489
11
128.369
21
-64.7057
0
LINE
8
BLACK
6
CONTINUOUS
10
128.369
20
-64.7057
11
128.355
21
-64.6588
0
LINE
8
BLACK
6
CONTINUOUS
10
128.355
20
-64.6588
11
128.35
21
-64.61
0
LINE
8
BLACK
6
CONTINUOUS
10
128.35
20
-64.61
11
128.35
21
-63.71
0
LINE
8
BLACK
6
CONTINUOUS
10
128.35
20
-63.71
11
128.355
21
-63.6612
0
LINE
8
BLACK
6
CONTINUOUS
10
128.355
20
-63.6612
11
128.369
21
-63.6143
0
LINE
8
BLACK
6
CONTINUOUS
10
128.369
20
-63.6143
11
128.392
21
-63.5711
0
LINE
8
BLACK
6
CONTINUOUS
10
128.392
20
-63.5711
11
128.423
21
-63.5332
0
LINE
8
BLACK
6
CONTINUOUS
10
128.423
20
-63.5332
11
128.461
21
-63.5021
0
LINE
8
BLACK
6
CONTINUOUS
10
128.461
20
-63.5021
11
128.504
21
-63.479
0
LINE
8
BLACK
6
CONTINUOUS
10
128.504
20
-63.479
11
128.551
21
-63.4648
0
LINE
8
BLACK
6
CONTINUOUS
10
128.551
20
-63.4648
11
128.6
21
-63.46
0
LINE
8
BLACK
6
CONTINUOUS
10
128.6
20
-63.46
11
129.3
21
-63.46
0
LINE
8
BLACK
6
CONTINUOUS
10
129.3
20
-63.46
11
129.349
21
-63.4648
0
LINE
8
BLACK
6
CONTINUOUS
10
129.339
20
-61.4248
11
129.386
21
-61.439
0
LINE
8
BLACK
6
CONTINUOUS
10
129.386
20
-61.439
11
129.429
21
-61.4621
0
LINE
8
BLACK
6
CONTINUOUS
10
129.429
20
-61.4621
11
129.467
21
-61.4932
0
LINE
8
BLACK
6
CONTINUOUS
10
129.467
20
-61.4932
11
129.498
21
-61.5311
0
LINE
8
BLACK
6
CONTINUOUS
10
129.498
20
-61.5311
11
129.521
21
-61.5743
0
LINE
8
BLACK
6
CONTINUOUS
10
129.521
20
-61.5743
11
129.535
21
-61.6212
0
LINE
8
BLACK
6
CONTINUOUS
10
129.535
20
-61.6212
11
129.54
21
-61.67
0
LINE
8
BLACK
6
CONTINUOUS
10
129.54
20
-61.67
11
129.54
21
-61.9944
0
LINE
8
BLACK
6
CONTINUOUS
10
129.54
20
-61.9944
11
129.546
21
-61.995
0
LINE
8
BLACK
6
CONTINUOUS
10
129.546
20
-61.995
11
129.546
21
-61.995
0
LINE
8
BLACK
6
CONTINUOUS
10
129.546
20
-61.995
11
129.565
21
-61.9968
0
LINE
8
BLACK
6
CONTINUOUS
10
129.565
20
-61.9968
11
129.588
21
-62.004
0
LINE
8
BLACK
6
CONTINUOUS
10
129.588
20
-62.004
11
129.61
21
-62.0156
0
LINE
8
BLACK
6
CONTINUOUS
10
129.61
20
-62.0156
11
129.629
21
-62.0312
0
LINE
8
BLACK
6
CONTINUOUS
10
129.629
20
-62.0312
11
129.633
21
-62.036
0
LINE
8
BLACK
6
CONTINUOUS
10
129.633
20
-62.036
11
129.634
21
-62.0373
0
LINE
8
BLACK
6
CONTINUOUS
10
129.634
20
-62.0373
11
129.639
21
-62.0412
0
LINE
8
BLACK
6
CONTINUOUS
10
129.639
20
-62.0412
11
129.654
21
-62.0602
0
LINE
8
BLACK
6
CONTINUOUS
10
129.654
20
-62.0602
11
129.666
21
-62.0819
0
LINE
8
BLACK
6
CONTINUOUS
10
129.666
20
-62.0819
11
129.673
21
-62.1055
0
LINE
8
BLACK
6
CONTINUOUS
10
129.673
20
-62.1055
11
129.675
21
-62.1239
0
LINE
8
BLACK
6
CONTINUOUS
10
129.675
20
-62.1239
11
129.675
21
-62.1239
0
LINE
8
BLACK
6
CONTINUOUS
10
129.675
20
-62.1239
11
129.676
21
-62.13
0
LINE
8
BLACK
6
CONTINUOUS
10
129.676
20
-62.13
11
129.675
21
-62.1361
0
LINE
8
BLACK
6
CONTINUOUS
10
129.675
20
-62.1361
11
129.675
21
-63.095
0
LINE
8
BLACK
6
CONTINUOUS
10
129.675
20
-63.095
11
130.199
21
-63.6191
0
LINE
8
BLACK
6
CONTINUOUS
10
130.199
20
-63.6191
11
130.204
21
-63.623
0
LINE
8
BLACK
6
CONTINUOUS
10
130.204
20
-63.623
11
130.208
21
-63.6277
0
LINE
8
BLACK
6
CONTINUOUS
10
130.208
20
-63.6277
11
130.219
21
-63.642
0
LINE
8
BLACK
6
CONTINUOUS
10
130.219
20
-63.642
11
130.228
21
-63.6588
0
LINE
8
BLACK
6
CONTINUOUS
10
130.228
20
-63.6588
11
130.231
21
-63.6637
0
LINE
8
BLACK
6
CONTINUOUS
10
130.231
20
-63.6637
11
130.238
21
-63.6873
0
LINE
8
BLACK
6
CONTINUOUS
10
130.238
20
-63.6873
11
130.24
21
-63.7057
0
LINE
8
BLACK
6
CONTINUOUS
10
130.24
20
-63.7057
11
130.24
21
-63.7057
0
LINE
8
BLACK
6
CONTINUOUS
10
130.24
20
-63.7057
11
130.241
21
-63.7118
0
LINE
8
BLACK
6
CONTINUOUS
10
130.241
20
-63.7118
11
130.24
21
-63.7179
0
LINE
8
BLACK
6
CONTINUOUS
10
130.24
20
-63.7179
11
130.24
21
-64.0043
0
LINE
8
BLACK
6
CONTINUOUS
10
130.24
20
-64.0043
11
130.491
21
-64.255
0
LINE
8
BLACK
6
CONTINUOUS
10
130.491
20
-64.255
11
130.821
21
-64.255
0
LINE
8
BLACK
6
CONTINUOUS
10
130.821
20
-64.255
11
130.84
21
-64.2568
0
LINE
8
BLACK
6
CONTINUOUS
10
130.84
20
-64.2568
11
130.863
21
-64.264
0
LINE
8
BLACK
6
CONTINUOUS
10
130.863
20
-64.264
11
130.885
21
-64.2756
0
LINE
8
BLACK
6
CONTINUOUS
10
130.885
20
-64.2756
11
130.89
21
-64.28
0
LINE
8
BLACK
6
CONTINUOUS
10
130.89
20
-64.28
11
131.095
21
-64.28
0
LINE
8
BLACK
6
CONTINUOUS
10
131.095
20
-64.28
11
131.11
21
-64.2814
0
LINE
8
BLACK
6
CONTINUOUS
10
131.11
20
-64.2814
11
131.128
21
-64.2872
0
LINE
8
BLACK
6
CONTINUOUS
10
131.128
20
-64.2872
11
131.146
21
-64.2965
0
LINE
8
BLACK
6
CONTINUOUS
10
131.146
20
-64.2965
11
131.161
21
-64.3089
0
LINE
8
BLACK
6
CONTINUOUS
10
131.161
20
-64.3089
11
131.174
21
-64.3242
0
LINE
8
BLACK
6
CONTINUOUS
10
131.174
20
-64.3242
11
131.183
21
-64.3415
0
LINE
8
BLACK
6
CONTINUOUS
10
131.183
20
-64.3415
11
131.189
21
-64.3604
0
LINE
8
BLACK
6
CONTINUOUS
10
131.189
20
-64.3604
11
131.19
21
-64.38
0
LINE
8
BLACK
6
CONTINUOUS
10
131.19
20
-64.38
11
131.189
21
-64.3996
0
LINE
8
BLACK
6
CONTINUOUS
10
131.189
20
-64.3996
11
131.183
21
-64.4185
0
LINE
8
BLACK
6
CONTINUOUS
10
131.183
20
-64.4185
11
131.174
21
-64.4358
0
LINE
8
BLACK
6
CONTINUOUS
10
131.174
20
-64.4358
11
131.161
21
-64.4511
0
LINE
8
BLACK
6
CONTINUOUS
10
131.161
20
-64.4511
11
131.146
21
-64.4635
0
LINE
8
BLACK
6
CONTINUOUS
10
131.146
20
-64.4635
11
131.128
21
-64.4728
0
LINE
8
BLACK
6
CONTINUOUS
10
131.128
20
-64.4728
11
131.11
21
-64.4786
0
LINE
8
BLACK
6
CONTINUOUS
10
131.11
20
-64.4786
11
131.095
21
-64.48
0
LINE
8
BLACK
6
CONTINUOUS
10
131.095
20
-64.48
11
130.89
21
-64.48
0
LINE
8
BLACK
6
CONTINUOUS
10
130.89
20
-64.48
11
130.885
21
-64.4844
0
LINE
8
BLACK
6
CONTINUOUS
10
130.885
20
-64.4844
11
130.863
21
-64.496
0
LINE
8
BLACK
6
CONTINUOUS
10
130.863
20
-64.496
11
130.84
21
-64.5032
0
LINE
8
BLACK
6
CONTINUOUS
10
130.84
20
-64.5032
11
130.821
21
-64.505
0
LINE
8
BLACK
6
CONTINUOUS
10
130.821
20
-64.505
11
130.445
21
-64.505
0
LINE
8
BLACK
6
CONTINUOUS
10
130.445
20
-64.505
11
130.439
21
-64.5056
0
LINE
8
BLACK
6
CONTINUOUS
10
130.439
20
-64.5056
11
130.433
21
-64.505
0
LINE
8
BLACK
6
CONTINUOUS
10
130.433
20
-64.505
11
130.433
21
-64.505
0
LINE
8
BLACK
6
CONTINUOUS
10
130.433
20
-64.505
11
130.414
21
-64.5032
0
LINE
8
BLACK
6
CONTINUOUS
10
130.414
20
-64.5032
11
130.391
21
-64.496
0
LINE
8
BLACK
6
CONTINUOUS
10
130.391
20
-64.496
11
130.38
21
-64.49
0
LINE
8
BLACK
6
CONTINUOUS
10
130.38
20
-64.49
11
130.369
21
-64.4844
0
LINE
8
BLACK
6
CONTINUOUS
10
130.369
20
-64.4844
11
130.355
21
-64.4727
0
LINE
8
BLACK
6
CONTINUOUS
10
130.355
20
-64.4727
11
130.35
21
-64.4688
0
LINE
8
BLACK
6
CONTINUOUS
10
130.35
20
-64.4688
11
130.346
21
-64.4641
0
LINE
8
BLACK
6
CONTINUOUS
10
130.346
20
-64.4641
11
130.031
21
-64.1488
0
LINE
8
BLACK
6
CONTINUOUS
10
130.031
20
-64.1488
11
130.026
21
-64.1449
0
LINE
8
BLACK
6
CONTINUOUS
10
130.026
20
-64.1449
11
130.02
21
-64.1378
0
LINE
8
BLACK
6
CONTINUOUS
10
130.02
20
-64.1378
11
130.011
21
-64.1258
0
LINE
8
BLACK
6
CONTINUOUS
10
130.011
20
-64.1258
11
129.999
21
-64.1041
0
LINE
8
BLACK
6
CONTINUOUS
10
129.999
20
-64.1041
11
129.992
21
-64.0805
0
LINE
8
BLACK
6
CONTINUOUS
10
129.992
20
-64.0805
11
129.989
21
-64.056
0
LINE
8
BLACK
6
CONTINUOUS
10
129.989
20
-64.056
11
129.99
21
-64.0499
0
LINE
8
BLACK
6
CONTINUOUS
10
129.99
20
-64.0499
11
129.99
21
-63.7636
0
LINE
8
BLACK
6
CONTINUOUS
10
129.99
20
-63.7636
11
129.466
21
-63.2395
0
LINE
8
BLACK
6
CONTINUOUS
10
129.466
20
-63.2395
11
129.461
21
-63.2356
0
LINE
8
BLACK
6
CONTINUOUS
10
129.461
20
-63.2356
11
129.457
21
-63.2308
0
LINE
8
BLACK
6
CONTINUOUS
10
129.457
20
-63.2308
11
129.446
21
-63.2166
0
LINE
8
BLACK
6
CONTINUOUS
10
129.446
20
-63.2166
11
129.434
21
-63.1949
0
LINE
8
BLACK
6
CONTINUOUS
10
129.434
20
-63.1949
11
129.427
21
-63.1713
0
LINE
8
BLACK
6
CONTINUOUS
10
129.427
20
-63.1713
11
129.426
21
-63.1677
0
LINE
8
BLACK
6
CONTINUOUS
10
129.426
20
-63.1677
11
129.425
21
-63.1529
0
LINE
8
BLACK
6
CONTINUOUS
10
129.425
20
-63.1529
11
129.424
21
-63.1468
0
LINE
8
BLACK
6
CONTINUOUS
10
129.424
20
-63.1468
11
129.425
21
-63.1407
0
LINE
8
BLACK
6
CONTINUOUS
10
129.425
20
-63.1407
11
129.425
21
-62.78
0
LINE
8
BLACK
6
CONTINUOUS
10
129.425
20
-62.78
11
129.386
21
-62.801
0
LINE
8
BLACK
6
CONTINUOUS
10
129.386
20
-62.801
11
129.339
21
-62.8152
0
LINE
8
BLACK
6
CONTINUOUS
10
129.339
20
-62.8152
11
129.29
21
-62.82
0
LINE
8
BLACK
6
CONTINUOUS
10
129.29
20
-62.82
11
128.59
21
-62.82
0
LINE
8
BLACK
6
CONTINUOUS
10
128.59
20
-62.82
11
128.541
21
-62.8152
0
LINE
8
BLACK
6
CONTINUOUS
10
128.541
20
-62.8152
11
128.494
21
-62.801
0
LINE
8
BLACK
6
CONTINUOUS
10
128.494
20
-62.801
11
128.451
21
-62.7779
0
LINE
8
BLACK
6
CONTINUOUS
10
128.451
20
-62.7779
11
128.413
21
-62.7468
0
LINE
8
BLACK
6
CONTINUOUS
10
128.413
20
-62.7468
11
128.382
21
-62.7089
0
LINE
8
BLACK
6
CONTINUOUS
10
128.382
20
-62.7089
11
128.359
21
-62.6657
0
LINE
8
BLACK
6
CONTINUOUS
10
128.359
20
-62.6657
11
128.345
21
-62.6188
0
LINE
8
BLACK
6
CONTINUOUS
10
128.345
20
-62.6188
11
128.34
21
-62.57
0
LINE
8
BLACK
6
CONTINUOUS
10
128.34
20
-62.57
11
128.34
21
-61.67
0
LINE
8
BLACK
6
CONTINUOUS
10
128.34
20
-61.67
11
128.345
21
-61.6212
0
LINE
8
BLACK
6
CONTINUOUS
10
128.345
20
-61.6212
11
128.359
21
-61.5743
0
LINE
8
BLACK
6
CONTINUOUS
10
128.359
20
-61.5743
11
128.382
21
-61.5311
0
LINE
8
BLACK
6
CONTINUOUS
10
128.382
20
-61.5311
11
128.413
21
-61.4932
0
LINE
8
BLACK
6
CONTINUOUS
10
128.413
20
-61.4932
11
128.451
21
-61.4621
0
LINE
8
BLACK
6
CONTINUOUS
10
128.451
20
-61.4621
11
128.494
21
-61.439
0
LINE
8
BLACK
6
CONTINUOUS
10
128.494
20
-61.439
11
128.541
21
-61.4248
0
LINE
8
BLACK
6
CONTINUOUS
10
128.541
20
-61.4248
11
128.59
21
-61.42
0
LINE
8
BLACK
6
CONTINUOUS
10
128.59
20
-61.42
11
129.29
21
-61.42
0
LINE
8
BLACK
6
CONTINUOUS
10
129.29
20
-61.42
11
129.339
21
-61.4248
0
LINE
8
BLACK
6
CONTINUOUS
10
131.11
20
-63.7814
11
131.128
21
-63.7872
0
LINE
8
BLACK
6
CONTINUOUS
10
131.128
20
-63.7872
11
131.146
21
-63.7965
0
LINE
8
BLACK
6
CONTINUOUS
10
131.146
20
-63.7965
11
131.161
21
-63.8089
0
LINE
8
BLACK
6
CONTINUOUS
10
131.161
20
-63.8089
11
131.174
21
-63.8242
0
LINE
8
BLACK
6
CONTINUOUS
10
131.174
20
-63.8242
11
131.183
21
-63.8415
0
LINE
8
BLACK
6
CONTINUOUS
10
131.183
20
-63.8415
11
131.189
21
-63.8604
0
LINE
8
BLACK
6
CONTINUOUS
10
131.189
20
-63.8604
11
131.19
21
-63.88
0
LINE
8
BLACK
6
CONTINUOUS
10
131.19
20
-63.88
11
131.189
21
-63.8996
0
LINE
8
BLACK
6
CONTINUOUS
10
131.189
20
-63.8996
11
131.183
21
-63.9185
0
LINE
8
BLACK
6
CONTINUOUS
10
131.183
20
-63.9185
11
131.174
21
-63.9358
0
LINE
8
BLACK
6
CONTINUOUS
10
131.174
20
-63.9358
11
131.161
21
-63.9511
0
LINE
8
BLACK
6
CONTINUOUS
10
131.161
20
-63.9511
11
131.146
21
-63.9635
0
LINE
8
BLACK
6
CONTINUOUS
10
131.146
20
-63.9635
11
131.128
21
-63.9728
0
LINE
8
BLACK
6
CONTINUOUS
10
131.128
20
-63.9728
11
131.11
21
-63.9786
0
LINE
8
BLACK
6
CONTINUOUS
10
131.11
20
-63.9786
11
131.095
21
-63.98
0
LINE
8
BLACK
6
CONTINUOUS
10
131.095
20
-63.98
11
130.535
21
-63.98
0
LINE
8
BLACK
6
CONTINUOUS
10
130.535
20
-63.98
11
130.52
21
-63.9786
0
LINE
8
BLACK
6
CONTINUOUS
10
130.52
20
-63.9786
11
130.502
21
-63.9728
0
LINE
8
BLACK
6
CONTINUOUS
10
130.502
20
-63.9728
11
130.484
21
-63.9635
0
LINE
8
BLACK
6
CONTINUOUS
10
130.484
20
-63.9635
11
130.469
21
-63.9511
0
LINE
8
BLACK
6
CONTINUOUS
10
130.469
20
-63.9511
11
130.456
21
-63.9358
0
LINE
8
BLACK
6
CONTINUOUS
10
130.456
20
-63.9358
11
130.447
21
-63.9185
0
LINE
8
BLACK
6
CONTINUOUS
10
130.447
20
-63.9185
11
130.441
21
-63.8996
0
LINE
8
BLACK
6
CONTINUOUS
10
130.441
20
-63.8996
11
130.44
21
-63.88
0
LINE
8
BLACK
6
CONTINUOUS
10
130.44
20
-63.88
11
130.441
21
-63.8604
0
LINE
8
BLACK
6
CONTINUOUS
10
130.441
20
-63.8604
11
130.447
21
-63.8415
0
LINE
8
BLACK
6
CONTINUOUS
10
130.447
20
-63.8415
11
130.456
21
-63.8242
0
LINE
8
BLACK
6
CONTINUOUS
10
130.456
20
-63.8242
11
130.469
21
-63.8089
0
LINE
8
BLACK
6
CONTINUOUS
10
130.469
20
-63.8089
11
130.484
21
-63.7965
0
LINE
8
BLACK
6
CONTINUOUS
10
130.484
20
-63.7965
11
130.502
21
-63.7872
0
LINE
8
BLACK
6
CONTINUOUS
10
130.502
20
-63.7872
11
130.52
21
-63.7814
0
LINE
8
BLACK
6
CONTINUOUS
10
130.52
20
-63.7814
11
130.535
21
-63.78
0
LINE
8
BLACK
6
CONTINUOUS
10
130.535
20
-63.78
11
131.095
21
-63.78
0
LINE
8
BLACK
6
CONTINUOUS
10
131.095
20
-63.78
11
131.11
21
-63.7814
0
LINE
8
BLACK
6
CONTINUOUS
10
142.329
20
-61.2648
11
142.376
21
-61.279
0
LINE
8
BLACK
6
CONTINUOUS
10
142.376
20
-61.279
11
142.419
21
-61.3021
0
LINE
8
BLACK
6
CONTINUOUS
10
142.419
20
-61.3021
11
142.457
21
-61.3332
0
LINE
8
BLACK
6
CONTINUOUS
10
142.457
20
-61.3332
11
142.488
21
-61.3711
0
LINE
8
BLACK
6
CONTINUOUS
10
142.488
20
-61.3711
11
142.511
21
-61.4143
0
LINE
8
BLACK
6
CONTINUOUS
10
142.511
20
-61.4143
11
142.525
21
-61.4612
0
LINE
8
BLACK
6
CONTINUOUS
10
142.525
20
-61.4612
11
142.53
21
-61.51
0
LINE
8
BLACK
6
CONTINUOUS
10
142.53
20
-61.51
11
142.53
21
-63.61
0
LINE
8
BLACK
6
CONTINUOUS
10
142.53
20
-63.61
11
142.525
21
-63.6588
0
LINE
8
BLACK
6
CONTINUOUS
10
142.525
20
-63.6588
11
142.511
21
-63.7057
0
LINE
8
BLACK
6
CONTINUOUS
10
142.511
20
-63.7057
11
142.488
21
-63.7489
0
LINE
8
BLACK
6
CONTINUOUS
10
142.488
20
-63.7489
11
142.457
21
-63.7868
0
LINE
8
BLACK
6
CONTINUOUS
10
142.457
20
-63.7868
11
142.419
21
-63.8179
0
LINE
8
BLACK
6
CONTINUOUS
10
142.419
20
-63.8179
11
142.376
21
-63.841
0
LINE
8
BLACK
6
CONTINUOUS
10
142.376
20
-63.841
11
142.329
21
-63.8552
0
LINE
8
BLACK
6
CONTINUOUS
10
142.329
20
-63.8552
11
142.28
21
-63.86
0
LINE
8
BLACK
6
CONTINUOUS
10
142.28
20
-63.86
11
141.18
21
-63.86
0
LINE
8
BLACK
6
CONTINUOUS
10
141.18
20
-63.86
11
141.131
21
-63.8552
0
LINE
8
BLACK
6
CONTINUOUS
10
141.131
20
-63.8552
11
141.084
21
-63.841
0
LINE
8
BLACK
6
CONTINUOUS
10
141.084
20
-63.841
11
141.041
21
-63.8179
0
LINE
8
BLACK
6
CONTINUOUS
10
141.041
20
-63.8179
11
141.003
21
-63.7868
0
LINE
8
BLACK
6
CONTINUOUS
10
141.003
20
-63.7868
11
140.972
21
-63.7489
0
LINE
8
BLACK
6
CONTINUOUS
10
140.972
20
-63.7489
11
140.949
21
-63.7057
0
LINE
8
BLACK
6
CONTINUOUS
10
140.949
20
-63.7057
11
140.935
21
-63.6588
0
LINE
8
BLACK
6
CONTINUOUS
10
140.935
20
-63.6588
11
140.93
21
-63.61
0
LINE
8
BLACK
6
CONTINUOUS
10
140.93
20
-63.61
11
140.93
21
-61.51
0
LINE
8
BLACK
6
CONTINUOUS
10
140.93
20
-61.51
11
140.935
21
-61.4612
0
LINE
8
BLACK
6
CONTINUOUS
10
140.935
20
-61.4612
11
140.949
21
-61.4143
0
LINE
8
BLACK
6
CONTINUOUS
10
140.949
20
-61.4143
11
140.972
21
-61.3711
0
LINE
8
BLACK
6
CONTINUOUS
10
140.972
20
-61.3711
11
141.003
21
-61.3332
0
LINE
8
BLACK
6
CONTINUOUS
10
141.003
20
-61.3332
11
141.041
21
-61.3021
0
LINE
8
BLACK
6
CONTINUOUS
10
141.041
20
-61.3021
11
141.084
21
-61.279
0
LINE
8
BLACK
6
CONTINUOUS
10
141.084
20
-61.279
11
141.131
21
-61.2648
0
LINE
8
BLACK
6
CONTINUOUS
10
141.131
20
-61.2648
11
141.18
21
-61.26
0
LINE
8
BLACK
6
CONTINUOUS
10
141.18
20
-61.26
11
142.28
21
-61.26
0
LINE
8
BLACK
6
CONTINUOUS
10
142.28
20
-61.26
11
142.329
21
-61.2648
0
LINE
8
BLACK
6
CONTINUOUS
10
130.769
20
-55.4848
11
130.816
21
-55.499
0
LINE
8
BLACK
6
CONTINUOUS
10
130.816
20
-55.499
11
130.859
21
-55.5221
0
LINE
8
BLACK
6
CONTINUOUS
10
130.859
20
-55.5221
11
130.897
21
-55.5532
0
LINE
8
BLACK
6
CONTINUOUS
10
130.897
20
-55.5532
11
130.928
21
-55.5911
0
LINE
8
BLACK
6
CONTINUOUS
10
130.928
20
-55.5911
11
130.951
21
-55.6343
0
LINE
8
BLACK
6
CONTINUOUS
10
130.951
20
-55.6343
11
130.965
21
-55.6812
0
LINE
8
BLACK
6
CONTINUOUS
10
130.965
20
-55.6812
11
130.97
21
-55.73
0
LINE
8
BLACK
6
CONTINUOUS
10
130.97
20
-55.73
11
130.97
21
-56.83
0
LINE
8
BLACK
6
CONTINUOUS
10
130.97
20
-56.83
11
130.965
21
-56.8788
0
LINE
8
BLACK
6
CONTINUOUS
10
130.965
20
-56.8788
11
130.951
21
-56.9257
0
LINE
8
BLACK
6
CONTINUOUS
10
130.951
20
-56.9257
11
130.928
21
-56.9689
0
LINE
8
BLACK
6
CONTINUOUS
10
130.928
20
-56.9689
11
130.897
21
-57.0068
0
LINE
8
BLACK
6
CONTINUOUS
10
130.897
20
-57.0068
11
130.859
21
-57.0379
0
LINE
8
BLACK
6
CONTINUOUS
10
130.859
20
-57.0379
11
130.816
21
-57.061
0
LINE
8
BLACK
6
CONTINUOUS
10
130.816
20
-57.061
11
130.769
21
-57.0752
0
LINE
8
BLACK
6
CONTINUOUS
10
130.769
20
-57.0752
11
130.72
21
-57.08
0
LINE
8
BLACK
6
CONTINUOUS
10
130.72
20
-57.08
11
129.795
21
-57.08
0
LINE
8
BLACK
6
CONTINUOUS
10
129.795
20
-57.08
11
129.795
21
-59.9839
0
LINE
8
BLACK
6
CONTINUOUS
10
129.795
20
-59.9839
11
129.796
21
-59.99
0
LINE
8
BLACK
6
CONTINUOUS
10
129.796
20
-59.99
11
129.795
21
-59.9961
0
LINE
8
BLACK
6
CONTINUOUS
10
129.795
20
-59.9961
11
129.795
21
-59.9961
0
LINE
8
BLACK
6
CONTINUOUS
10
129.795
20
-59.9961
11
129.793
21
-60.0145
0
LINE
8
BLACK
6
CONTINUOUS
10
129.793
20
-60.0145
11
129.786
21
-60.0381
0
LINE
8
BLACK
6
CONTINUOUS
10
129.786
20
-60.0381
11
129.777
21
-60.0556
0
LINE
8
BLACK
6
CONTINUOUS
10
129.777
20
-60.0556
11
129.774
21
-60.0598
0
LINE
8
BLACK
6
CONTINUOUS
10
129.774
20
-60.0598
11
129.763
21
-60.0741
0
LINE
8
BLACK
6
CONTINUOUS
10
129.763
20
-60.0741
11
129.763
21
-60.0741
0
LINE
8
BLACK
6
CONTINUOUS
10
129.763
20
-60.0741
11
129.759
21
-60.0788
0
LINE
8
BLACK
6
CONTINUOUS
10
129.759
20
-60.0788
11
129.754
21
-60.0827
0
LINE
8
BLACK
6
CONTINUOUS
10
129.754
20
-60.0827
11
129.677
21
-60.16
0
LINE
8
BLACK
6
CONTINUOUS
10
129.677
20
-60.16
11
130.084
21
-60.5673
0
LINE
8
BLACK
6
CONTINUOUS
10
130.084
20
-60.5673
11
130.089
21
-60.5712
0
LINE
8
BLACK
6
CONTINUOUS
10
130.089
20
-60.5712
11
130.093
21
-60.5759
0
LINE
8
BLACK
6
CONTINUOUS
10
130.093
20
-60.5759
11
130.104
21
-60.5902
0
LINE
8
BLACK
6
CONTINUOUS
10
130.104
20
-60.5902
11
130.116
21
-60.6113
0
LINE
8
BLACK
6
CONTINUOUS
10
130.116
20
-60.6113
11
130.116
21
-60.6119
0
LINE
8
BLACK
6
CONTINUOUS
10
130.116
20
-60.6119
11
130.123
21
-60.6355
0
LINE
8
BLACK
6
CONTINUOUS
10
130.123
20
-60.6355
11
130.125
21
-60.6539
0
LINE
8
BLACK
6
CONTINUOUS
10
130.125
20
-60.6539
11
130.125
21
-60.6539
0
LINE
8
BLACK
6
CONTINUOUS
10
130.125
20
-60.6539
11
130.126
21
-60.66
0
LINE
8
BLACK
6
CONTINUOUS
10
130.126
20
-60.66
11
130.125
21
-60.6661
0
LINE
8
BLACK
6
CONTINUOUS
10
130.125
20
-60.6661
11
130.125
21
-62.8893
0
LINE
8
BLACK
6
CONTINUOUS
10
130.125
20
-62.8893
11
130.491
21
-63.255
0
LINE
8
BLACK
6
CONTINUOUS
10
130.491
20
-63.255
11
130.821
21
-63.255
0
LINE
8
BLACK
6
CONTINUOUS
10
130.821
20
-63.255
11
130.84
21
-63.2568
0
LINE
8
BLACK
6
CONTINUOUS
10
130.84
20
-63.2568
11
130.863
21
-63.264
0
LINE
8
BLACK
6
CONTINUOUS
10
130.863
20
-63.264
11
130.885
21
-63.2756
0
LINE
8
BLACK
6
CONTINUOUS
10
130.885
20
-63.2756
11
130.89
21
-63.28
0
LINE
8
BLACK
6
CONTINUOUS
10
130.89
20
-63.28
11
131.095
21
-63.28
0
LINE
8
BLACK
6
CONTINUOUS
10
131.095
20
-63.28
11
131.11
21
-63.2814
0
LINE
8
BLACK
6
CONTINUOUS
10
131.11
20
-63.2814
11
131.128
21
-63.2872
0
LINE
8
BLACK
6
CONTINUOUS
10
131.128
20
-63.2872
11
131.146
21
-63.2965
0
LINE
8
BLACK
6
CONTINUOUS
10
131.146
20
-63.2965
11
131.161
21
-63.3089
0
LINE
8
BLACK
6
CONTINUOUS
10
131.161
20
-63.3089
11
131.174
21
-63.3242
0
LINE
8
BLACK
6
CONTINUOUS
10
131.174
20
-63.3242
11
131.183
21
-63.3415
0
LINE
8
BLACK
6
CONTINUOUS
10
131.183
20
-63.3415
11
131.189
21
-63.3604
0
LINE
8
BLACK
6
CONTINUOUS
10
131.189
20
-63.3604
11
131.19
21
-63.38
0
LINE
8
BLACK
6
CONTINUOUS
10
131.19
20
-63.38
11
131.189
21
-63.3996
0
LINE
8
BLACK
6
CONTINUOUS
10
131.189
20
-63.3996
11
131.183
21
-63.4185
0
LINE
8
BLACK
6
CONTINUOUS
10
131.183
20
-63.4185
11
131.174
21
-63.4358
0
LINE
8
BLACK
6
CONTINUOUS
10
131.174
20
-63.4358
11
131.161
21
-63.4511
0
LINE
8
BLACK
6
CONTINUOUS
10
131.161
20
-63.4511
11
131.146
21
-63.4635
0
LINE
8
BLACK
6
CONTINUOUS
10
131.146
20
-63.4635
11
131.128
21
-63.4728
0
LINE
8
BLACK
6
CONTINUOUS
10
131.128
20
-63.4728
11
131.11
21
-63.4786
0
LINE
8
BLACK
6
CONTINUOUS
10
131.11
20
-63.4786
11
131.095
21
-63.48
0
LINE
8
BLACK
6
CONTINUOUS
10
131.095
20
-63.48
11
130.89
21
-63.48
0
LINE
8
BLACK
6
CONTINUOUS
10
130.89
20
-63.48
11
130.885
21
-63.4844
0
LINE
8
BLACK
6
CONTINUOUS
10
130.885
20
-63.4844
11
130.863
21
-63.496
0
LINE
8
BLACK
6
CONTINUOUS
10
130.863
20
-63.496
11
130.84
21
-63.5032
0
LINE
8
BLACK
6
CONTINUOUS
10
130.84
20
-63.5032
11
130.821
21
-63.505
0
LINE
8
BLACK
6
CONTINUOUS
10
130.821
20
-63.505
11
130.445
21
-63.505
0
LINE
8
BLACK
6
CONTINUOUS
10
130.445
20
-63.505
11
130.439
21
-63.5056
0
LINE
8
BLACK
6
CONTINUOUS
10
130.439
20
-63.5056
11
130.433
21
-63.505
0
LINE
8
BLACK
6
CONTINUOUS
10
130.433
20
-63.505
11
130.433
21
-63.505
0
LINE
8
BLACK
6
CONTINUOUS
10
130.433
20
-63.505
11
130.414
21
-63.5032
0
LINE
8
BLACK
6
CONTINUOUS
10
130.414
20
-63.5032
11
130.391
21
-63.496
0
LINE
8
BLACK
6
CONTINUOUS
10
130.391
20
-63.496
11
130.369
21
-63.4844
0
LINE
8
BLACK
6
CONTINUOUS
10
130.369
20
-63.4844
11
130.363
21
-63.479
0
LINE
8
BLACK
6
CONTINUOUS
10
130.363
20
-63.479
11
130.355
21
-63.4727
0
LINE
8
BLACK
6
CONTINUOUS
10
130.355
20
-63.4727
11
130.355
21
-63.4727
0
LINE
8
BLACK
6
CONTINUOUS
10
130.355
20
-63.4727
11
130.35
21
-63.4688
0
LINE
8
BLACK
6
CONTINUOUS
10
130.35
20
-63.4688
11
130.346
21
-63.4641
0
LINE
8
BLACK
6
CONTINUOUS
10
130.346
20
-63.4641
11
129.916
21
-63.0338
0
LINE
8
BLACK
6
CONTINUOUS
10
129.916
20
-63.0338
11
129.911
21
-63.0299
0
LINE
8
BLACK
6
CONTINUOUS
10
129.911
20
-63.0299
11
129.896
21
-63.0108
0
LINE
8
BLACK
6
CONTINUOUS
10
129.896
20
-63.0108
11
129.884
21
-62.9891
0
LINE
8
BLACK
6
CONTINUOUS
10
129.884
20
-62.9891
11
129.877
21
-62.9656
0
LINE
8
BLACK
6
CONTINUOUS
10
129.877
20
-62.9656
11
129.875
21
-62.9472
0
LINE
8
BLACK
6
CONTINUOUS
10
129.875
20
-62.9472
11
129.875
21
-62.9472
0
LINE
8
BLACK
6
CONTINUOUS
10
129.875
20
-62.9472
11
129.874
21
-62.9411
0
LINE
8
BLACK
6
CONTINUOUS
10
129.874
20
-62.9411
11
129.875
21
-62.9349
0
LINE
8
BLACK
6
CONTINUOUS
10
129.875
20
-62.9349
11
129.875
21
-60.7118
0
LINE
8
BLACK
6
CONTINUOUS
10
129.875
20
-60.7118
11
129.448
21
-60.285
0
LINE
8
BLACK
6
CONTINUOUS
10
129.448
20
-60.285
11
128.975
21
-60.285
0
LINE
8
BLACK
6
CONTINUOUS
10
128.975
20
-60.285
11
128.975
21
-60.5912
0
LINE
8
BLACK
6
CONTINUOUS
10
128.975
20
-60.5912
11
128.971
21
-60.632
0
LINE
8
BLACK
6
CONTINUOUS
10
128.971
20
-60.632
11
128.959
21
-60.6711
0
LINE
8
BLACK
6
CONTINUOUS
10
128.959
20
-60.6711
11
128.94
21
-60.7072
0
LINE
8
BLACK
6
CONTINUOUS
10
128.94
20
-60.7072
11
128.914
21
-60.7389
0
LINE
8
BLACK
6
CONTINUOUS
10
128.914
20
-60.7389
11
128.882
21
-60.7648
0
LINE
8
BLACK
6
CONTINUOUS
10
128.882
20
-60.7648
11
128.846
21
-60.7841
0
LINE
8
BLACK
6
CONTINUOUS
10
128.846
20
-60.7841
11
128.807
21
-60.796
0
LINE
8
BLACK
6
CONTINUOUS
10
128.807
20
-60.796
11
128.766
21
-60.8
0
LINE
8
BLACK
6
CONTINUOUS
10
128.766
20
-60.8
11
128.349
21
-60.8
0
LINE
8
BLACK
6
CONTINUOUS
10
128.349
20
-60.8
11
128.308
21
-60.796
0
LINE
8
BLACK
6
CONTINUOUS
10
128.308
20
-60.796
11
128.269
21
-60.7841
0
LINE
8
BLACK
6
CONTINUOUS
10
128.269
20
-60.7841
11
128.233
21
-60.7648
0
LINE
8
BLACK
6
CONTINUOUS
10
128.233
20
-60.7648
11
128.201
21
-60.7389
0
LINE
8
BLACK
6
CONTINUOUS
10
128.201
20
-60.7389
11
128.175
21
-60.7072
0
LINE
8
BLACK
6
CONTINUOUS
10
128.175
20
-60.7072
11
128.156
21
-60.6711
0
LINE
8
BLACK
6
CONTINUOUS
10
128.156
20
-60.6711
11
128.144
21
-60.632
0
LINE
8
BLACK
6
CONTINUOUS
10
128.144
20
-60.632
11
128.14
21
-60.5912
0
LINE
8
BLACK
6
CONTINUOUS
10
128.14
20
-60.5912
11
128.14
21
-59.7287
0
LINE
8
BLACK
6
CONTINUOUS
10
128.14
20
-59.7287
11
128.144
21
-59.688
0
LINE
8
BLACK
6
CONTINUOUS
10
128.144
20
-59.688
11
128.156
21
-59.6489
0
LINE
8
BLACK
6
CONTINUOUS
10
128.156
20
-59.6489
11
128.175
21
-59.6128
0
LINE
8
BLACK
6
CONTINUOUS
10
128.175
20
-59.6128
11
128.201
21
-59.5811
0
LINE
8
BLACK
6
CONTINUOUS
10
128.201
20
-59.5811
11
128.233
21
-59.5552
0
LINE
8
BLACK
6
CONTINUOUS
10
128.233
20
-59.5552
11
128.269
21
-59.5359
0
LINE
8
BLACK
6
CONTINUOUS
10
128.269
20
-59.5359
11
128.308
21
-59.524
0
LINE
8
BLACK
6
CONTINUOUS
10
128.308
20
-59.524
11
128.349
21
-59.52
0
LINE
8
BLACK
6
CONTINUOUS
10
128.349
20
-59.52
11
128.766
21
-59.52
0
LINE
8
BLACK
6
CONTINUOUS
10
128.766
20
-59.52
11
128.807
21
-59.524
0
LINE
8
BLACK
6
CONTINUOUS
10
128.807
20
-59.524
11
128.846
21
-59.5359
0
LINE
8
BLACK
6
CONTINUOUS
10
128.846
20
-59.5359
11
128.882
21
-59.5552
0
LINE
8
BLACK
6
CONTINUOUS
10
128.882
20
-59.5552
11
128.914
21
-59.5811
0
LINE
8
BLACK
6
CONTINUOUS
10
128.914
20
-59.5811
11
128.94
21
-59.6128
0
LINE
8
BLACK
6
CONTINUOUS
10
128.94
20
-59.6128
11
128.959
21
-59.6489
0
LINE
8
BLACK
6
CONTINUOUS
10
128.959
20
-59.6489
11
128.971
21
-59.688
0
LINE
8
BLACK
6
CONTINUOUS
10
128.971
20
-59.688
11
128.975
21
-59.7287
0
LINE
8
BLACK
6
CONTINUOUS
10
128.975
20
-59.7287
11
128.975
21
-60.035
0
LINE
8
BLACK
6
CONTINUOUS
10
128.975
20
-60.035
11
129.448
21
-60.035
0
LINE
8
BLACK
6
CONTINUOUS
10
129.448
20
-60.035
11
129.545
21
-59.9382
0
LINE
8
BLACK
6
CONTINUOUS
10
129.545
20
-59.9382
11
129.545
21
-57.08
0
LINE
8
BLACK
6
CONTINUOUS
10
129.545
20
-57.08
11
128.62
21
-57.08
0
LINE
8
BLACK
6
CONTINUOUS
10
128.62
20
-57.08
11
128.571
21
-57.0752
0
LINE
8
BLACK
6
CONTINUOUS
10
128.571
20
-57.0752
11
128.524
21
-57.061
0
LINE
8
BLACK
6
CONTINUOUS
10
128.524
20
-57.061
11
128.481
21
-57.0379
0
LINE
8
BLACK
6
CONTINUOUS
10
128.481
20
-57.0379
11
128.443
21
-57.0068
0
LINE
8
BLACK
6
CONTINUOUS
10
128.443
20
-57.0068
11
128.412
21
-56.9689
0
LINE
8
BLACK
6
CONTINUOUS
10
128.412
20
-56.9689
11
128.389
21
-56.9257
0
LINE
8
BLACK
6
CONTINUOUS
10
128.389
20
-56.9257
11
128.375
21
-56.8788
0
LINE
8
BLACK
6
CONTINUOUS
10
128.375
20
-56.8788
11
128.37
21
-56.83
0
LINE
8
BLACK
6
CONTINUOUS
10
128.37
20
-56.83
11
128.37
21
-55.73
0
LINE
8
BLACK
6
CONTINUOUS
10
128.37
20
-55.73
11
128.375
21
-55.6812
0
LINE
8
BLACK
6
CONTINUOUS
10
128.375
20
-55.6812
11
128.389
21
-55.6343
0
LINE
8
BLACK
6
CONTINUOUS
10
128.389
20
-55.6343
11
128.412
21
-55.5911
0
LINE
8
BLACK
6
CONTINUOUS
10
128.412
20
-55.5911
11
128.443
21
-55.5532
0
LINE
8
BLACK
6
CONTINUOUS
10
128.443
20
-55.5532
11
128.481
21
-55.5221
0
LINE
8
BLACK
6
CONTINUOUS
10
128.481
20
-55.5221
11
128.524
21
-55.499
0
LINE
8
BLACK
6
CONTINUOUS
10
128.524
20
-55.499
11
128.571
21
-55.4848
0
LINE
8
BLACK
6
CONTINUOUS
10
128.571
20
-55.4848
11
128.62
21
-55.48
0
LINE
8
BLACK
6
CONTINUOUS
10
128.62
20
-55.48
11
130.72
21
-55.48
0
LINE
8
BLACK
6
CONTINUOUS
10
130.72
20
-55.48
11
130.769
21
-55.4848
0
LINE
8
BLACK
6
CONTINUOUS
10
137.76
20
-62.96
11
137.766
21
-62.9606
0
LINE
8
BLACK
6
CONTINUOUS
10
137.766
20
-62.9606
11
137.771
21
-62.9623
0
LINE
8
BLACK
6
CONTINUOUS
10
137.771
20
-62.9623
11
137.777
21
-62.9651
0
LINE
8
BLACK
6
CONTINUOUS
10
137.777
20
-62.9651
11
137.781
21
-62.9688
0
LINE
8
BLACK
6
CONTINUOUS
10
137.781
20
-62.9688
11
137.785
21
-62.9733
0
LINE
8
BLACK
6
CONTINUOUS
10
137.785
20
-62.9733
11
137.788
21
-62.9785
0
LINE
8
BLACK
6
CONTINUOUS
10
137.788
20
-62.9785
11
137.789
21
-62.9841
0
LINE
8
BLACK
6
CONTINUOUS
10
137.789
20
-62.9841
11
137.79
21
-62.985
0
LINE
8
BLACK
6
CONTINUOUS
10
137.79
20
-62.985
11
138.021
21
-62.985
0
LINE
8
BLACK
6
CONTINUOUS
10
138.021
20
-62.985
11
138.04
21
-62.9868
0
LINE
8
BLACK
6
CONTINUOUS
10
138.04
20
-62.9868
11
138.063
21
-62.994
0
LINE
8
BLACK
6
CONTINUOUS
10
138.063
20
-62.994
11
138.085
21
-63.0056
0
LINE
8
BLACK
6
CONTINUOUS
10
138.085
20
-63.0056
11
138.104
21
-63.0212
0
LINE
8
BLACK
6
CONTINUOUS
10
138.104
20
-63.0212
11
138.119
21
-63.0402
0
LINE
8
BLACK
6
CONTINUOUS
10
138.119
20
-63.0402
11
138.131
21
-63.0619
0
LINE
8
BLACK
6
CONTINUOUS
10
138.131
20
-63.0619
11
138.138
21
-63.0855
0
LINE
8
BLACK
6
CONTINUOUS
10
138.138
20
-63.0855
11
138.141
21
-63.11
0
LINE
8
BLACK
6
CONTINUOUS
10
138.141
20
-63.11
11
138.138
21
-63.1345
0
LINE
8
BLACK
6
CONTINUOUS
10
138.138
20
-63.1345
11
138.131
21
-63.1581
0
LINE
8
BLACK
6
CONTINUOUS
10
138.131
20
-63.1581
11
138.119
21
-63.1798
0
LINE
8
BLACK
6
CONTINUOUS
10
138.119
20
-63.1798
11
138.104
21
-63.1988
0
LINE
8
BLACK
6
CONTINUOUS
10
138.104
20
-63.1988
11
138.085
21
-63.2144
0
LINE
8
BLACK
6
CONTINUOUS
10
138.085
20
-63.2144
11
138.063
21
-63.226
0
LINE
8
BLACK
6
CONTINUOUS
10
138.063
20
-63.226
11
138.04
21
-63.2332
0
LINE
8
BLACK
6
CONTINUOUS
10
138.04
20
-63.2332
11
138.021
21
-63.235
0
LINE
8
BLACK
6
CONTINUOUS
10
138.021
20
-63.235
11
137.79
21
-63.235
0
LINE
8
BLACK
6
CONTINUOUS
10
137.79
20
-63.235
11
137.789
21
-63.2359
0
LINE
8
BLACK
6
CONTINUOUS
10
137.789
20
-63.2359
11
137.788
21
-63.2415
0
LINE
8
BLACK
6
CONTINUOUS
10
137.788
20
-63.2415
11
137.785
21
-63.2467
0
LINE
8
BLACK
6
CONTINUOUS
10
137.785
20
-63.2467
11
137.781
21
-63.2512
0
LINE
8
BLACK
6
CONTINUOUS
10
137.781
20
-63.2512
11
137.777
21
-63.2549
0
LINE
8
BLACK
6
CONTINUOUS
10
137.777
20
-63.2549
11
137.771
21
-63.2577
0
LINE
8
BLACK
6
CONTINUOUS
10
137.771
20
-63.2577
11
137.766
21
-63.2594
0
LINE
8
BLACK
6
CONTINUOUS
10
137.766
20
-63.2594
11
137.76
21
-63.26
0
LINE
8
BLACK
6
CONTINUOUS
10
137.76
20
-63.26
11
133.99
21
-63.26
0
LINE
8
BLACK
6
CONTINUOUS
10
133.99
20
-63.26
11
133.98
21
-63.259
0
LINE
8
BLACK
6
CONTINUOUS
10
133.98
20
-63.259
11
133.971
21
-63.2562
0
LINE
8
BLACK
6
CONTINUOUS
10
133.971
20
-63.2562
11
133.962
21
-63.2516
0
LINE
8
BLACK
6
CONTINUOUS
10
133.962
20
-63.2516
11
133.955
21
-63.2454
0
LINE
8
BLACK
6
CONTINUOUS
10
133.955
20
-63.2454
11
133.948
21
-63.2378
0
LINE
8
BLACK
6
CONTINUOUS
10
133.948
20
-63.2378
11
133.944
21
-63.2291
0
LINE
8
BLACK
6
CONTINUOUS
10
133.944
20
-63.2291
11
133.941
21
-63.2198
0
LINE
8
BLACK
6
CONTINUOUS
10
133.941
20
-63.2198
11
133.94
21
-63.21
0
LINE
8
BLACK
6
CONTINUOUS
10
133.94
20
-63.21
11
133.94
21
-63.1174
0
LINE
8
BLACK
6
CONTINUOUS
10
133.94
20
-63.1174
11
133.939
21
-63.11
0
LINE
8
BLACK
6
CONTINUOUS
10
133.939
20
-63.11
11
133.94
21
-63.1026
0
LINE
8
BLACK
6
CONTINUOUS
10
133.94
20
-63.1026
11
133.94
21
-62.81
0
LINE
8
BLACK
6
CONTINUOUS
10
133.94
20
-62.81
11
133.941
21
-62.8002
0
LINE
8
BLACK
6
CONTINUOUS
10
133.941
20
-62.8002
11
133.944
21
-62.7909
0
LINE
8
BLACK
6
CONTINUOUS
10
133.944
20
-62.7909
11
133.948
21
-62.7822
0
LINE
8
BLACK
6
CONTINUOUS
10
133.948
20
-62.7822
11
133.955
21
-62.7746
0
LINE
8
BLACK
6
CONTINUOUS
10
133.955
20
-62.7746
11
133.962
21
-62.7684
0
LINE
8
BLACK
6
CONTINUOUS
10
133.962
20
-62.7684
11
133.971
21
-62.7638
0
LINE
8
BLACK
6
CONTINUOUS
10
133.971
20
-62.7638
11
133.98
21
-62.761
0
LINE
8
BLACK
6
CONTINUOUS
10
133.98
20
-62.761
11
133.99
21
-62.76
0
LINE
8
BLACK
6
CONTINUOUS
10
133.99
20
-62.76
11
134.44
21
-62.76
0
LINE
8
BLACK
6
CONTINUOUS
10
134.44
20
-62.76
11
134.44
21
-61.93
0
LINE
8
BLACK
6
CONTINUOUS
10
134.44
20
-61.93
11
134.441
21
-61.9202
0
LINE
8
BLACK
6
CONTINUOUS
10
134.441
20
-61.9202
11
134.444
21
-61.9109
0
LINE
8
BLACK
6
CONTINUOUS
10
134.444
20
-61.9109
11
134.448
21
-61.9022
0
LINE
8
BLACK
6
CONTINUOUS
10
134.448
20
-61.9022
11
134.455
21
-61.8946
0
LINE
8
BLACK
6
CONTINUOUS
10
134.455
20
-61.8946
11
134.462
21
-61.8884
0
LINE
8
BLACK
6
CONTINUOUS
10
134.462
20
-61.8884
11
134.471
21
-61.8838
0
LINE
8
BLACK
6
CONTINUOUS
10
134.471
20
-61.8838
11
134.475
21
-61.8826
0
LINE
8
BLACK
6
CONTINUOUS
10
134.475
20
-61.8826
11
134.475
21
-61.7344
0
LINE
8
BLACK
6
CONTINUOUS
10
134.475
20
-61.7344
11
134.478
21
-61.7029
0
LINE
8
BLACK
6
CONTINUOUS
10
134.478
20
-61.7029
11
134.49
21
-61.6623
0
LINE
8
BLACK
6
CONTINUOUS
10
134.49
20
-61.6623
11
134.51
21
-61.625
0
LINE
8
BLACK
6
CONTINUOUS
10
134.51
20
-61.625
11
134.537
21
-61.5922
0
LINE
8
BLACK
6
CONTINUOUS
10
134.537
20
-61.5922
11
134.57
21
-61.5654
0
LINE
8
BLACK
6
CONTINUOUS
10
134.57
20
-61.5654
11
134.607
21
-61.5454
0
LINE
8
BLACK
6
CONTINUOUS
10
134.607
20
-61.5454
11
134.648
21
-61.5331
0
LINE
8
BLACK
6
CONTINUOUS
10
134.648
20
-61.5331
11
134.69
21
-61.529
0
LINE
8
BLACK
6
CONTINUOUS
10
134.69
20
-61.529
11
134.732
21
-61.5331
0
LINE
8
BLACK
6
CONTINUOUS
10
134.732
20
-61.5331
11
134.773
21
-61.5454
0
LINE
8
BLACK
6
CONTINUOUS
10
134.773
20
-61.5454
11
134.81
21
-61.5654
0
LINE
8
BLACK
6
CONTINUOUS
10
134.81
20
-61.5654
11
134.843
21
-61.5922
0
LINE
8
BLACK
6
CONTINUOUS
10
134.843
20
-61.5922
11
134.87
21
-61.625
0
LINE
8
BLACK
6
CONTINUOUS
10
134.87
20
-61.625
11
134.89
21
-61.6623
0
LINE
8
BLACK
6
CONTINUOUS
10
134.89
20
-61.6623
11
134.902
21
-61.7029
0
LINE
8
BLACK
6
CONTINUOUS
10
134.902
20
-61.7029
11
134.905
21
-61.7344
0
LINE
8
BLACK
6
CONTINUOUS
10
134.905
20
-61.7344
11
134.905
21
-61.8826
0
LINE
8
BLACK
6
CONTINUOUS
10
134.905
20
-61.8826
11
134.909
21
-61.8838
0
LINE
8
BLACK
6
CONTINUOUS
10
134.909
20
-61.8838
11
134.918
21
-61.8884
0
LINE
8
BLACK
6
CONTINUOUS
10
134.918
20
-61.8884
11
134.925
21
-61.8946
0
LINE
8
BLACK
6
CONTINUOUS
10
134.925
20
-61.8946
11
134.932
21
-61.9022
0
LINE
8
BLACK
6
CONTINUOUS
10
134.932
20
-61.9022
11
134.936
21
-61.9109
0
LINE
8
BLACK
6
CONTINUOUS
10
134.936
20
-61.9109
11
134.939
21
-61.9202
0
LINE
8
BLACK
6
CONTINUOUS
10
134.939
20
-61.9202
11
134.94
21
-61.93
0
LINE
8
BLACK
6
CONTINUOUS
10
134.94
20
-61.93
11
134.94
21
-62.15
0
LINE
8
BLACK
6
CONTINUOUS
10
134.94
20
-62.15
11
135.69
21
-62.15
0
LINE
8
BLACK
6
CONTINUOUS
10
135.69
20
-62.15
11
135.69
21
-61.93
0
LINE
8
BLACK
6
CONTINUOUS
10
135.69
20
-61.93
11
135.691
21
-61.9202
0
LINE
8
BLACK
6
CONTINUOUS
10
135.691
20
-61.9202
11
135.694
21
-61.9109
0
LINE
8
BLACK
6
CONTINUOUS
10
135.694
20
-61.9109
11
135.698
21
-61.9022
0
LINE
8
BLACK
6
CONTINUOUS
10
135.698
20
-61.9022
11
135.705
21
-61.8946
0
LINE
8
BLACK
6
CONTINUOUS
10
135.705
20
-61.8946
11
135.712
21
-61.8884
0
LINE
8
BLACK
6
CONTINUOUS
10
135.712
20
-61.8884
11
135.721
21
-61.8838
0
LINE
8
BLACK
6
CONTINUOUS
10
135.721
20
-61.8838
11
135.725
21
-61.8826
0
LINE
8
BLACK
6
CONTINUOUS
10
135.725
20
-61.8826
11
135.725
21
-61.7344
0
LINE
8
BLACK
6
CONTINUOUS
10
135.725
20
-61.7344
11
135.728
21
-61.7029
0
LINE
8
BLACK
6
CONTINUOUS
10
135.728
20
-61.7029
11
135.74
21
-61.6623
0
LINE
8
BLACK
6
CONTINUOUS
10
135.74
20
-61.6623
11
135.76
21
-61.625
0
LINE
8
BLACK
6
CONTINUOUS
10
135.76
20
-61.625
11
135.787
21
-61.5922
0
LINE
8
BLACK
6
CONTINUOUS
10
135.787
20
-61.5922
11
135.82
21
-61.5654
0
LINE
8
BLACK
6
CONTINUOUS
10
135.82
20
-61.5654
11
135.857
21
-61.5454
0
LINE
8
BLACK
6
CONTINUOUS
10
135.857
20
-61.5454
11
135.898
21
-61.5331
0
LINE
8
BLACK
6
CONTINUOUS
10
135.898
20
-61.5331
11
135.94
21
-61.529
0
LINE
8
BLACK
6
CONTINUOUS
10
135.94
20
-61.529
11
135.982
21
-61.5331
0
LINE
8
BLACK
6
CONTINUOUS
10
135.982
20
-61.5331
11
136.023
21
-61.5454
0
LINE
8
BLACK
6
CONTINUOUS
10
136.023
20
-61.5454
11
136.06
21
-61.5654
0
LINE
8
BLACK
6
CONTINUOUS
10
136.06
20
-61.5654
11
136.093
21
-61.5922
0
LINE
8
BLACK
6
CONTINUOUS
10
136.093
20
-61.5922
11
136.12
21
-61.625
0
LINE
8
BLACK
6
CONTINUOUS
10
136.12
20
-61.625
11
136.14
21
-61.6623
0
LINE
8
BLACK
6
CONTINUOUS
10
136.14
20
-61.6623
11
136.152
21
-61.7029
0
LINE
8
BLACK
6
CONTINUOUS
10
136.152
20
-61.7029
11
136.155
21
-61.7344
0
LINE
8
BLACK
6
CONTINUOUS
10
136.155
20
-61.7344
11
136.155
21
-61.8826
0
LINE
8
BLACK
6
CONTINUOUS
10
136.155
20
-61.8826
11
136.159
21
-61.8838
0
LINE
8
BLACK
6
CONTINUOUS
10
136.159
20
-61.8838
11
136.168
21
-61.8884
0
LINE
8
BLACK
6
CONTINUOUS
10
136.168
20
-61.8884
11
136.175
21
-61.8946
0
LINE
8
BLACK
6
CONTINUOUS
10
136.175
20
-61.8946
11
136.182
21
-61.9022
0
LINE
8
BLACK
6
CONTINUOUS
10
136.182
20
-61.9022
11
136.186
21
-61.9109
0
LINE
8
BLACK
6
CONTINUOUS
10
136.186
20
-61.9109
11
136.189
21
-61.9202
0
LINE
8
BLACK
6
CONTINUOUS
10
136.189
20
-61.9202
11
136.19
21
-61.93
0
LINE
8
BLACK
6
CONTINUOUS
10
136.19
20
-61.93
11
136.19
21
-62.145
0
LINE
8
BLACK
6
CONTINUOUS
10
136.19
20
-62.145
11
136.365
21
-62.145
0
LINE
8
BLACK
6
CONTINUOUS
10
136.365
20
-62.145
11
136.366
21
-62.1451
0
LINE
8
BLACK
6
CONTINUOUS
10
136.366
20
-62.1451
11
136.366
21
-62.1451
0
LINE
8
BLACK
6
CONTINUOUS
10
136.366
20
-62.1451
11
136.366
21
-62.1451
0
LINE
8
BLACK
6
CONTINUOUS
10
136.366
20
-62.1451
11
136.366
21
-62.1451
0
LINE
8
BLACK
6
CONTINUOUS
10
136.366
20
-62.1451
11
136.366
21
-62.1453
0
LINE
8
BLACK
6
CONTINUOUS
10
136.366
20
-62.1453
11
136.367
21
-62.1454
0
LINE
8
BLACK
6
CONTINUOUS
10
136.367
20
-62.1454
11
136.367
21
-62.1454
0
LINE
8
BLACK
6
CONTINUOUS
10
136.367
20
-62.1454
11
136.367
21
-62.1454
0
LINE
8
BLACK
6
CONTINUOUS
10
136.367
20
-62.1454
11
136.367
21
-62.1456
0
LINE
8
BLACK
6
CONTINUOUS
10
136.367
20
-62.1456
11
136.368
21
-62.1458
0
LINE
8
BLACK
6
CONTINUOUS
10
136.368
20
-62.1458
11
136.368
21
-62.1459
0
LINE
8
BLACK
6
CONTINUOUS
10
136.368
20
-62.1459
11
136.368
21
-62.1459
0
LINE
8
BLACK
6
CONTINUOUS
10
136.368
20
-62.1459
11
136.368
21
-62.1462
0
LINE
8
BLACK
6
CONTINUOUS
10
136.368
20
-62.1462
11
136.369
21
-62.1465
0
LINE
8
BLACK
6
CONTINUOUS
10
136.369
20
-62.1465
11
136.369
21
-62.1465
0
LINE
8
BLACK
6
CONTINUOUS
10
136.369
20
-62.1465
11
136.369
21
-62.1465
0
LINE
8
BLACK
6
CONTINUOUS
10
136.369
20
-62.1465
11
136.369
21
-62.1468
0
LINE
8
BLACK
6
CONTINUOUS
10
136.369
20
-62.1468
11
136.369
21
-62.1472
0
LINE
8
BLACK
6
CONTINUOUS
10
136.369
20
-62.1472
11
136.369
21
-62.1472
0
LINE
8
BLACK
6
CONTINUOUS
10
136.369
20
-62.1472
11
136.369
21
-62.1473
0
LINE
8
BLACK
6
CONTINUOUS
10
136.369
20
-62.1473
11
136.369
21
-62.1477
0
LINE
8
BLACK
6
CONTINUOUS
10
136.369
20
-62.1477
11
136.37
21
-62.1481
0
LINE
8
BLACK
6
CONTINUOUS
10
136.37
20
-62.1481
11
136.37
21
-62.1481
0
LINE
8
BLACK
6
CONTINUOUS
10
136.37
20
-62.1481
11
136.37
21
-62.1481
0
LINE
8
BLACK
6
CONTINUOUS
10
136.37
20
-62.1481
11
136.37
21
-62.1486
0
LINE
8
BLACK
6
CONTINUOUS
10
136.37
20
-62.1486
11
136.37
21
-62.149
0
LINE
8
BLACK
6
CONTINUOUS
10
136.37
20
-62.149
11
136.37
21
-62.149
0
LINE
8
BLACK
6
CONTINUOUS
10
136.37
20
-62.149
11
136.37
21
-62.1491
0
LINE
8
BLACK
6
CONTINUOUS
10
136.37
20
-62.1491
11
136.37
21
-62.1495
0
LINE
8
BLACK
6
CONTINUOUS
10
136.37
20
-62.1495
11
136.37
21
-62.15
0
LINE
8
BLACK
6
CONTINUOUS
10
136.37
20
-62.15
11
136.37
21
-62.1525
0
LINE
8
BLACK
6
CONTINUOUS
10
136.37
20
-62.1525
11
136.374
21
-62.1905
0
LINE
8
BLACK
6
CONTINUOUS
10
136.374
20
-62.1905
11
136.386
21
-62.2268
0
LINE
8
BLACK
6
CONTINUOUS
10
136.386
20
-62.2268
11
136.404
21
-62.2602
0
LINE
8
BLACK
6
CONTINUOUS
10
136.404
20
-62.2602
11
136.429
21
-62.2893
0
LINE
8
BLACK
6
CONTINUOUS
10
136.429
20
-62.2893
11
136.458
21
-62.3132
0
LINE
8
BLACK
6
CONTINUOUS
10
136.458
20
-62.3132
11
136.492
21
-62.3308
0
LINE
8
BLACK
6
CONTINUOUS
10
136.492
20
-62.3308
11
136.528
21
-62.3415
0
LINE
8
BLACK
6
CONTINUOUS
10
136.528
20
-62.3415
11
136.566
21
-62.345
0
LINE
8
BLACK
6
CONTINUOUS
10
136.566
20
-62.345
11
136.604
21
-62.341
0
LINE
8
BLACK
6
CONTINUOUS
10
136.604
20
-62.341
11
136.641
21
-62.3297
0
LINE
8
BLACK
6
CONTINUOUS
10
136.641
20
-62.3297
11
136.674
21
-62.3116
0
LINE
8
BLACK
6
CONTINUOUS
10
136.674
20
-62.3116
11
136.703
21
-62.2874
0
LINE
8
BLACK
6
CONTINUOUS
10
136.703
20
-62.2874
11
136.727
21
-62.2579
0
LINE
8
BLACK
6
CONTINUOUS
10
136.727
20
-62.2579
11
136.745
21
-62.2243
0
LINE
8
BLACK
6
CONTINUOUS
10
136.745
20
-62.2243
11
136.756
21
-62.1879
0
LINE
8
BLACK
6
CONTINUOUS
10
136.756
20
-62.1879
11
136.76
21
-62.1495
0
LINE
8
BLACK
6
CONTINUOUS
10
136.76
20
-62.1495
11
136.76
21
-62.1494
0
LINE
8
BLACK
6
CONTINUOUS
10
136.76
20
-62.1494
11
136.76
21
-62.1492
0
LINE
8
BLACK
6
CONTINUOUS
10
136.76
20
-62.1492
11
136.76
21
-62.149
0
LINE
8
BLACK
6
CONTINUOUS
10
136.76
20
-62.149
11
136.76
21
-62.1487
0
LINE
8
BLACK
6
CONTINUOUS
10
136.76
20
-62.1487
11
136.76
21
-62.1485
0
LINE
8
BLACK
6
CONTINUOUS
10
136.76
20
-62.1485
11
136.76
21
-62.1483
0
LINE
8
BLACK
6
CONTINUOUS
10
136.76
20
-62.1483
11
136.76
21
-62.1481
0
LINE
8
BLACK
6
CONTINUOUS
10
136.76
20
-62.1481
11
136.761
21
-62.1478
0
LINE
8
BLACK
6
CONTINUOUS
10
136.761
20
-62.1478
11
136.761
21
-62.1476
0
LINE
8
BLACK
6
CONTINUOUS
10
136.761
20
-62.1476
11
136.761
21
-62.1474
0
LINE
8
BLACK
6
CONTINUOUS
10
136.761
20
-62.1474
11
136.761
21
-62.1472
0
LINE
8
BLACK
6
CONTINUOUS
10
136.761
20
-62.1472
11
136.761
21
-62.147
0
LINE
8
BLACK
6
CONTINUOUS
10
136.761
20
-62.147
11
136.761
21
-62.1468
0
LINE
8
BLACK
6
CONTINUOUS
10
136.761
20
-62.1468
11
136.761
21
-62.1466
0
LINE
8
BLACK
6
CONTINUOUS
10
136.761
20
-62.1466
11
136.761
21
-62.1465
0
LINE
8
BLACK
6
CONTINUOUS
10
136.761
20
-62.1465
11
136.762
21
-62.1463
0
LINE
8
BLACK
6
CONTINUOUS
10
136.762
20
-62.1463
11
136.762
21
-62.1461
0
LINE
8
BLACK
6
CONTINUOUS
10
136.762
20
-62.1461
11
136.762
21
-62.146
0
LINE
8
BLACK
6
CONTINUOUS
10
136.762
20
-62.146
11
136.762
21
-62.1458
0
LINE
8
BLACK
6
CONTINUOUS
10
136.762
20
-62.1458
11
136.762
21
-62.1457
0
LINE
8
BLACK
6
CONTINUOUS
10
136.762
20
-62.1457
11
136.763
21
-62.1456
0
LINE
8
BLACK
6
CONTINUOUS
10
136.763
20
-62.1456
11
136.763
21
-62.1455
0
LINE
8
BLACK
6
CONTINUOUS
10
136.763
20
-62.1455
11
136.763
21
-62.1454
0
LINE
8
BLACK
6
CONTINUOUS
10
136.763
20
-62.1454
11
136.763
21
-62.1453
0
LINE
8
BLACK
6
CONTINUOUS
10
136.763
20
-62.1453
11
136.764
21
-62.1452
0
LINE
8
BLACK
6
CONTINUOUS
10
136.764
20
-62.1452
11
136.764
21
-62.1452
0
LINE
8
BLACK
6
CONTINUOUS
10
136.764
20
-62.1452
11
136.764
21
-62.1451
0
LINE
8
BLACK
6
CONTINUOUS
10
136.764
20
-62.1451
11
136.764
21
-62.1451
0
LINE
8
BLACK
6
CONTINUOUS
10
136.764
20
-62.1451
11
136.765
21
-62.145
0
LINE
8
BLACK
6
CONTINUOUS
10
136.765
20
-62.145
11
136.765
21
-62.145
0
LINE
8
BLACK
6
CONTINUOUS
10
136.765
20
-62.145
11
136.765
21
-62.145
0
LINE
8
BLACK
6
CONTINUOUS
10
136.765
20
-62.145
11
136.94
21
-62.145
0
LINE
8
BLACK
6
CONTINUOUS
10
136.94
20
-62.145
11
136.94
21
-61.93
0
LINE
8
BLACK
6
CONTINUOUS
10
136.94
20
-61.93
11
136.941
21
-61.9202
0
LINE
8
BLACK
6
CONTINUOUS
10
136.941
20
-61.9202
11
136.944
21
-61.9109
0
LINE
8
BLACK
6
CONTINUOUS
10
136.944
20
-61.9109
11
136.948
21
-61.9022
0
LINE
8
BLACK
6
CONTINUOUS
10
136.948
20
-61.9022
11
136.955
21
-61.8946
0
LINE
8
BLACK
6
CONTINUOUS
10
136.955
20
-61.8946
11
136.962
21
-61.8884
0
LINE
8
BLACK
6
CONTINUOUS
10
136.962
20
-61.8884
11
136.971
21
-61.8838
0
LINE
8
BLACK
6
CONTINUOUS
10
136.971
20
-61.8838
11
136.975
21
-61.8826
0
LINE
8
BLACK
6
CONTINUOUS
10
136.975
20
-61.8826
11
136.975
21
-61.7344
0
LINE
8
BLACK
6
CONTINUOUS
10
136.975
20
-61.7344
11
136.978
21
-61.7029
0
LINE
8
BLACK
6
CONTINUOUS
10
136.978
20
-61.7029
11
136.99
21
-61.6623
0
LINE
8
BLACK
6
CONTINUOUS
10
136.99
20
-61.6623
11
137.01
21
-61.625
0
LINE
8
BLACK
6
CONTINUOUS
10
137.01
20
-61.625
11
137.037
21
-61.5922
0
LINE
8
BLACK
6
CONTINUOUS
10
137.037
20
-61.5922
11
137.07
21
-61.5654
0
LINE
8
BLACK
6
CONTINUOUS
10
137.07
20
-61.5654
11
137.107
21
-61.5454
0
LINE
8
BLACK
6
CONTINUOUS
10
137.107
20
-61.5454
11
137.148
21
-61.5331
0
LINE
8
BLACK
6
CONTINUOUS
10
137.148
20
-61.5331
11
137.19
21
-61.529
0
LINE
8
BLACK
6
CONTINUOUS
10
137.19
20
-61.529
11
137.232
21
-61.5331
0
LINE
8
BLACK
6
CONTINUOUS
10
137.232
20
-61.5331
11
137.273
21
-61.5454
0
LINE
8
BLACK
6
CONTINUOUS
10
137.273
20
-61.5454
11
137.31
21
-61.5654
0
LINE
8
BLACK
6
CONTINUOUS
10
137.31
20
-61.5654
11
137.343
21
-61.5922
0
LINE
8
BLACK
6
CONTINUOUS
10
137.343
20
-61.5922
11
137.37
21
-61.625
0
LINE
8
BLACK
6
CONTINUOUS
10
137.37
20
-61.625
11
137.39
21
-61.6623
0
LINE
8
BLACK
6
CONTINUOUS
10
137.39
20
-61.6623
11
137.402
21
-61.7029
0
LINE
8
BLACK
6
CONTINUOUS
10
137.402
20
-61.7029
11
137.405
21
-61.7344
0
LINE
8
BLACK
6
CONTINUOUS
10
137.405
20
-61.7344
11
137.405
21
-61.8826
0
LINE
8
BLACK
6
CONTINUOUS
10
137.405
20
-61.8826
11
137.409
21
-61.8838
0
LINE
8
BLACK
6
CONTINUOUS
10
137.409
20
-61.8838
11
137.418
21
-61.8884
0
LINE
8
BLACK
6
CONTINUOUS
10
137.418
20
-61.8884
11
137.425
21
-61.8946
0
LINE
8
BLACK
6
CONTINUOUS
10
137.425
20
-61.8946
11
137.432
21
-61.9022
0
LINE
8
BLACK
6
CONTINUOUS
10
137.432
20
-61.9022
11
137.436
21
-61.9109
0
LINE
8
BLACK
6
CONTINUOUS
10
137.436
20
-61.9109
11
137.439
21
-61.9202
0
LINE
8
BLACK
6
CONTINUOUS
10
137.439
20
-61.9202
11
137.44
21
-61.93
0
LINE
8
BLACK
6
CONTINUOUS
10
137.44
20
-61.93
11
137.44
21
-62.96
0
LINE
8
BLACK
6
CONTINUOUS
10
137.44
20
-62.96
11
137.76
21
-62.96
0
LINE
8
BLACK
6
CONTINUOUS
10
170.213
20
-61.2546
11
170.376
21
-61.3224
0
LINE
8
BLACK
6
CONTINUOUS
10
170.376
20
-61.3224
11
170.524
21
-61.4209
0
LINE
8
BLACK
6
CONTINUOUS
10
170.524
20
-61.4209
11
170.649
21
-61.5463
0
LINE
8
BLACK
6
CONTINUOUS
10
170.649
20
-61.5463
11
170.748
21
-61.6937
0
LINE
8
BLACK
6
CONTINUOUS
10
170.748
20
-61.6937
11
170.815
21
-61.8575
0
LINE
8
BLACK
6
CONTINUOUS
10
170.815
20
-61.8575
11
170.85
21
-62.0314
0
LINE
8
BLACK
6
CONTINUOUS
10
170.85
20
-62.0314
11
170.85
21
-62.2086
0
LINE
8
BLACK
6
CONTINUOUS
10
170.85
20
-62.2086
11
170.815
21
-62.3825
0
LINE
8
BLACK
6
CONTINUOUS
10
170.815
20
-62.3825
11
170.748
21
-62.5463
0
LINE
8
BLACK
6
CONTINUOUS
10
170.748
20
-62.5463
11
170.649
21
-62.6937
0
LINE
8
BLACK
6
CONTINUOUS
10
170.649
20
-62.6937
11
170.524
21
-62.8191
0
LINE
8
BLACK
6
CONTINUOUS
10
170.524
20
-62.8191
11
170.376
21
-62.9176
0
LINE
8
BLACK
6
CONTINUOUS
10
170.376
20
-62.9176
11
170.213
21
-62.9854
0
LINE
8
BLACK
6
CONTINUOUS
10
170.213
20
-62.9854
11
170.039
21
-63.02
0
LINE
8
BLACK
6
CONTINUOUS
10
170.039
20
-63.02
11
169.861
21
-63.02
0
LINE
8
BLACK
6
CONTINUOUS
10
169.861
20
-63.02
11
169.687
21
-62.9854
0
LINE
8
BLACK
6
CONTINUOUS
10
169.687
20
-62.9854
11
169.524
21
-62.9176
0
LINE
8
BLACK
6
CONTINUOUS
10
169.524
20
-62.9176
11
169.376
21
-62.8191
0
LINE
8
BLACK
6
CONTINUOUS
10
169.376
20
-62.8191
11
169.251
21
-62.6937
0
LINE
8
BLACK
6
CONTINUOUS
10
169.251
20
-62.6937
11
169.152
21
-62.5463
0
LINE
8
BLACK
6
CONTINUOUS
10
169.152
20
-62.5463
11
169.085
21
-62.3825
0
LINE
8
BLACK
6
CONTINUOUS
10
169.085
20
-62.3825
11
169.05
21
-62.2086
0
LINE
8
BLACK
6
CONTINUOUS
10
169.05
20
-62.2086
11
169.05
21
-62.0314
0
LINE
8
BLACK
6
CONTINUOUS
10
169.05
20
-62.0314
11
169.085
21
-61.8575
0
LINE
8
BLACK
6
CONTINUOUS
10
169.085
20
-61.8575
11
169.152
21
-61.6937
0
LINE
8
BLACK
6
CONTINUOUS
10
169.152
20
-61.6937
11
169.251
21
-61.5463
0
LINE
8
BLACK
6
CONTINUOUS
10
169.251
20
-61.5463
11
169.376
21
-61.4209
0
LINE
8
BLACK
6
CONTINUOUS
10
169.376
20
-61.4209
11
169.524
21
-61.3224
0
LINE
8
BLACK
6
CONTINUOUS
10
169.524
20
-61.3224
11
169.687
21
-61.2546
0
LINE
8
BLACK
6
CONTINUOUS
10
169.687
20
-61.2546
11
169.861
21
-61.22
0
LINE
8
BLACK
6
CONTINUOUS
10
169.861
20
-61.22
11
170.039
21
-61.22
0
LINE
8
BLACK
6
CONTINUOUS
10
170.039
20
-61.22
11
170.213
21
-61.2546
0
LINE
8
BLACK
6
CONTINUOUS
10
131.11
20
-62.2814
11
131.128
21
-62.2872
0
LINE
8
BLACK
6
CONTINUOUS
10
131.128
20
-62.2872
11
131.146
21
-62.2965
0
LINE
8
BLACK
6
CONTINUOUS
10
131.146
20
-62.2965
11
131.161
21
-62.3089
0
LINE
8
BLACK
6
CONTINUOUS
10
131.161
20
-62.3089
11
131.174
21
-62.3242
0
LINE
8
BLACK
6
CONTINUOUS
10
131.174
20
-62.3242
11
131.183
21
-62.3415
0
LINE
8
BLACK
6
CONTINUOUS
10
131.183
20
-62.3415
11
131.189
21
-62.3604
0
LINE
8
BLACK
6
CONTINUOUS
10
131.189
20
-62.3604
11
131.19
21
-62.38
0
LINE
8
BLACK
6
CONTINUOUS
10
131.19
20
-62.38
11
131.189
21
-62.3996
0
LINE
8
BLACK
6
CONTINUOUS
10
131.189
20
-62.3996
11
131.183
21
-62.4185
0
LINE
8
BLACK
6
CONTINUOUS
10
131.183
20
-62.4185
11
131.174
21
-62.4358
0
LINE
8
BLACK
6
CONTINUOUS
10
131.174
20
-62.4358
11
131.161
21
-62.4511
0
LINE
8
BLACK
6
CONTINUOUS
10
131.161
20
-62.4511
11
131.146
21
-62.4635
0
LINE
8
BLACK
6
CONTINUOUS
10
131.146
20
-62.4635
11
131.128
21
-62.4728
0
LINE
8
BLACK
6
CONTINUOUS
10
131.128
20
-62.4728
11
131.11
21
-62.4786
0
LINE
8
BLACK
6
CONTINUOUS
10
131.11
20
-62.4786
11
131.095
21
-62.48
0
LINE
8
BLACK
6
CONTINUOUS
10
131.095
20
-62.48
11
130.535
21
-62.48
0
LINE
8
BLACK
6
CONTINUOUS
10
130.535
20
-62.48
11
130.52
21
-62.4786
0
LINE
8
BLACK
6
CONTINUOUS
10
130.52
20
-62.4786
11
130.502
21
-62.4728
0
LINE
8
BLACK
6
CONTINUOUS
10
130.502
20
-62.4728
11
130.484
21
-62.4635
0
LINE
8
BLACK
6
CONTINUOUS
10
130.484
20
-62.4635
11
130.469
21
-62.4511
0
LINE
8
BLACK
6
CONTINUOUS
10
130.469
20
-62.4511
11
130.456
21
-62.4358
0
LINE
8
BLACK
6
CONTINUOUS
10
130.456
20
-62.4358
11
130.447
21
-62.4185
0
LINE
8
BLACK
6
CONTINUOUS
10
130.447
20
-62.4185
11
130.441
21
-62.3996
0
LINE
8
BLACK
6
CONTINUOUS
10
130.441
20
-62.3996
11
130.44
21
-62.38
0
LINE
8
BLACK
6
CONTINUOUS
10
130.44
20
-62.38
11
130.441
21
-62.3604
0
LINE
8
BLACK
6
CONTINUOUS
10
130.441
20
-62.3604
11
130.447
21
-62.3415
0
LINE
8
BLACK
6
CONTINUOUS
10
130.447
20
-62.3415
11
130.456
21
-62.3242
0
LINE
8
BLACK
6
CONTINUOUS
10
130.456
20
-62.3242
11
130.469
21
-62.3089
0
LINE
8
BLACK
6
CONTINUOUS
10
130.469
20
-62.3089
11
130.484
21
-62.2965
0
LINE
8
BLACK
6
CONTINUOUS
10
130.484
20
-62.2965
11
130.502
21
-62.2872
0
LINE
8
BLACK
6
CONTINUOUS
10
130.502
20
-62.2872
11
130.52
21
-62.2814
0
LINE
8
BLACK
6
CONTINUOUS
10
130.52
20
-62.2814
11
130.535
21
-62.28
0
LINE
8
BLACK
6
CONTINUOUS
10
130.535
20
-62.28
11
131.095
21
-62.28
0
LINE
8
BLACK
6
CONTINUOUS
10
131.095
20
-62.28
11
131.11
21
-62.2814
0
LINE
8
BLACK
6
CONTINUOUS
10
131.59
20
-61.5314
11
131.608
21
-61.5372
0
LINE
8
BLACK
6
CONTINUOUS
10
131.608
20
-61.5372
11
131.626
21
-61.5465
0
LINE
8
BLACK
6
CONTINUOUS
10
131.626
20
-61.5465
11
131.641
21
-61.5589
0
LINE
8
BLACK
6
CONTINUOUS
10
131.641
20
-61.5589
11
131.654
21
-61.5742
0
LINE
8
BLACK
6
CONTINUOUS
10
131.654
20
-61.5742
11
131.663
21
-61.5915
0
LINE
8
BLACK
6
CONTINUOUS
10
131.663
20
-61.5915
11
131.669
21
-61.6104
0
LINE
8
BLACK
6
CONTINUOUS
10
131.669
20
-61.6104
11
131.67
21
-61.6251
0
LINE
8
BLACK
6
CONTINUOUS
10
131.67
20
-61.6251
11
131.67
21
-62.1849
0
LINE
8
BLACK
6
CONTINUOUS
10
131.67
20
-62.1849
11
131.669
21
-62.1996
0
LINE
8
BLACK
6
CONTINUOUS
10
131.669
20
-62.1996
11
131.663
21
-62.2185
0
LINE
8
BLACK
6
CONTINUOUS
10
131.663
20
-62.2185
11
131.654
21
-62.2358
0
LINE
8
BLACK
6
CONTINUOUS
10
131.654
20
-62.2358
11
131.641
21
-62.2511
0
LINE
8
BLACK
6
CONTINUOUS
10
131.641
20
-62.2511
11
131.626
21
-62.2635
0
LINE
8
BLACK
6
CONTINUOUS
10
131.626
20
-62.2635
11
131.608
21
-62.2728
0
LINE
8
BLACK
6
CONTINUOUS
10
131.608
20
-62.2728
11
131.59
21
-62.2786
0
LINE
8
BLACK
6
CONTINUOUS
10
131.59
20
-62.2786
11
131.57
21
-62.2805
0
LINE
8
BLACK
6
CONTINUOUS
10
131.57
20
-62.2805
11
131.55
21
-62.2786
0
LINE
8
BLACK
6
CONTINUOUS
10
131.55
20
-62.2786
11
131.532
21
-62.2728
0
LINE
8
BLACK
6
CONTINUOUS
10
131.532
20
-62.2728
11
131.514
21
-62.2635
0
LINE
8
BLACK
6
CONTINUOUS
10
131.514
20
-62.2635
11
131.499
21
-62.2511
0
LINE
8
BLACK
6
CONTINUOUS
10
131.499
20
-62.2511
11
131.486
21
-62.2358
0
LINE
8
BLACK
6
CONTINUOUS
10
131.486
20
-62.2358
11
131.477
21
-62.2185
0
LINE
8
BLACK
6
CONTINUOUS
10
131.477
20
-62.2185
11
131.471
21
-62.1996
0
LINE
8
BLACK
6
CONTINUOUS
10
131.471
20
-62.1996
11
131.47
21
-62.1849
0
LINE
8
BLACK
6
CONTINUOUS
10
131.47
20
-62.1849
11
131.47
21
-61.6251
0
LINE
8
BLACK
6
CONTINUOUS
10
131.47
20
-61.6251
11
131.471
21
-61.6104
0
LINE
8
BLACK
6
CONTINUOUS
10
131.471
20
-61.6104
11
131.477
21
-61.5915
0
LINE
8
BLACK
6
CONTINUOUS
10
131.477
20
-61.5915
11
131.486
21
-61.5742
0
LINE
8
BLACK
6
CONTINUOUS
10
131.486
20
-61.5742
11
131.499
21
-61.5589
0
LINE
8
BLACK
6
CONTINUOUS
10
131.499
20
-61.5589
11
131.514
21
-61.5465
0
LINE
8
BLACK
6
CONTINUOUS
10
131.514
20
-61.5465
11
131.532
21
-61.5372
0
LINE
8
BLACK
6
CONTINUOUS
10
131.532
20
-61.5372
11
131.55
21
-61.5314
0
LINE
8
BLACK
6
CONTINUOUS
10
131.55
20
-61.5314
11
131.57
21
-61.5295
0
LINE
8
BLACK
6
CONTINUOUS
10
131.57
20
-61.5295
11
131.59
21
-61.5314
0
LINE
8
BLACK
6
CONTINUOUS
10
132.09
20
-61.5314
11
132.108
21
-61.5372
0
LINE
8
BLACK
6
CONTINUOUS
10
132.108
20
-61.5372
11
132.126
21
-61.5465
0
LINE
8
BLACK
6
CONTINUOUS
10
132.126
20
-61.5465
11
132.141
21
-61.5589
0
LINE
8
BLACK
6
CONTINUOUS
10
132.141
20
-61.5589
11
132.154
21
-61.5742
0
LINE
8
BLACK
6
CONTINUOUS
10
132.154
20
-61.5742
11
132.163
21
-61.5915
0
LINE
8
BLACK
6
CONTINUOUS
10
132.163
20
-61.5915
11
132.169
21
-61.6104
0
LINE
8
BLACK
6
CONTINUOUS
10
132.169
20
-61.6104
11
132.17
21
-61.6251
0
LINE
8
BLACK
6
CONTINUOUS
10
132.17
20
-61.6251
11
132.17
21
-62.1849
0
LINE
8
BLACK
6
CONTINUOUS
10
132.17
20
-62.1849
11
132.169
21
-62.1996
0
LINE
8
BLACK
6
CONTINUOUS
10
132.169
20
-62.1996
11
132.163
21
-62.2185
0
LINE
8
BLACK
6
CONTINUOUS
10
132.163
20
-62.2185
11
132.154
21
-62.2358
0
LINE
8
BLACK
6
CONTINUOUS
10
132.154
20
-62.2358
11
132.141
21
-62.2511
0
LINE
8
BLACK
6
CONTINUOUS
10
132.141
20
-62.2511
11
132.126
21
-62.2635
0
LINE
8
BLACK
6
CONTINUOUS
10
132.126
20
-62.2635
11
132.108
21
-62.2728
0
LINE
8
BLACK
6
CONTINUOUS
10
132.108
20
-62.2728
11
132.09
21
-62.2786
0
LINE
8
BLACK
6
CONTINUOUS
10
132.09
20
-62.2786
11
132.07
21
-62.2805
0
LINE
8
BLACK
6
CONTINUOUS
10
132.07
20
-62.2805
11
132.05
21
-62.2786
0
LINE
8
BLACK
6
CONTINUOUS
10
132.05
20
-62.2786
11
132.032
21
-62.2728
0
LINE
8
BLACK
6
CONTINUOUS
10
132.032
20
-62.2728
11
132.014
21
-62.2635
0
LINE
8
BLACK
6
CONTINUOUS
10
132.014
20
-62.2635
11
131.999
21
-62.2511
0
LINE
8
BLACK
6
CONTINUOUS
10
131.999
20
-62.2511
11
131.986
21
-62.2358
0
LINE
8
BLACK
6
CONTINUOUS
10
131.986
20
-62.2358
11
131.977
21
-62.2185
0
LINE
8
BLACK
6
CONTINUOUS
10
131.977
20
-62.2185
11
131.971
21
-62.1996
0
LINE
8
BLACK
6
CONTINUOUS
10
131.971
20
-62.1996
11
131.97
21
-62.1849
0
LINE
8
BLACK
6
CONTINUOUS
10
131.97
20
-62.1849
11
131.97
21
-61.6251
0
LINE
8
BLACK
6
CONTINUOUS
10
131.97
20
-61.6251
11
131.971
21
-61.6104
0
LINE
8
BLACK
6
CONTINUOUS
10
131.971
20
-61.6104
11
131.977
21
-61.5915
0
LINE
8
BLACK
6
CONTINUOUS
10
131.977
20
-61.5915
11
131.986
21
-61.5742
0
LINE
8
BLACK
6
CONTINUOUS
10
131.986
20
-61.5742
11
131.999
21
-61.5589
0
LINE
8
BLACK
6
CONTINUOUS
10
131.999
20
-61.5589
11
132.014
21
-61.5465
0
LINE
8
BLACK
6
CONTINUOUS
10
132.014
20
-61.5465
11
132.032
21
-61.5372
0
LINE
8
BLACK
6
CONTINUOUS
10
132.032
20
-61.5372
11
132.05
21
-61.5314
0
LINE
8
BLACK
6
CONTINUOUS
10
132.05
20
-61.5314
11
132.07
21
-61.5295
0
LINE
8
BLACK
6
CONTINUOUS
10
132.07
20
-61.5295
11
132.09
21
-61.5314
0
LINE
8
BLACK
6
CONTINUOUS
10
133.594
20
-58.2948
11
133.641
21
-58.309
0
LINE
8
BLACK
6
CONTINUOUS
10
133.641
20
-58.309
11
133.684
21
-58.3321
0
LINE
8
BLACK
6
CONTINUOUS
10
133.684
20
-58.3321
11
133.722
21
-58.3632
0
LINE
8
BLACK
6
CONTINUOUS
10
133.722
20
-58.3632
11
133.753
21
-58.4011
0
LINE
8
BLACK
6
CONTINUOUS
10
133.753
20
-58.4011
11
133.776
21
-58.4443
0
LINE
8
BLACK
6
CONTINUOUS
10
133.776
20
-58.4443
11
133.79
21
-58.4912
0
LINE
8
BLACK
6
CONTINUOUS
10
133.79
20
-58.4912
11
133.795
21
-58.54
0
LINE
8
BLACK
6
CONTINUOUS
10
133.795
20
-58.54
11
133.795
21
-59.215
0
LINE
8
BLACK
6
CONTINUOUS
10
133.795
20
-59.215
11
133.79
21
-59.2638
0
LINE
8
BLACK
6
CONTINUOUS
10
133.79
20
-59.2638
11
133.776
21
-59.3107
0
LINE
8
BLACK
6
CONTINUOUS
10
133.776
20
-59.3107
11
133.753
21
-59.3539
0
LINE
8
BLACK
6
CONTINUOUS
10
133.753
20
-59.3539
11
133.722
21
-59.3918
0
LINE
8
BLACK
6
CONTINUOUS
10
133.722
20
-59.3918
11
133.684
21
-59.4229
0
LINE
8
BLACK
6
CONTINUOUS
10
133.684
20
-59.4229
11
133.641
21
-59.446
0
LINE
8
BLACK
6
CONTINUOUS
10
133.641
20
-59.446
11
133.594
21
-59.4602
0
LINE
8
BLACK
6
CONTINUOUS
10
133.594
20
-59.4602
11
133.545
21
-59.465
0
LINE
8
BLACK
6
CONTINUOUS
10
133.545
20
-59.465
11
133.195
21
-59.465
0
LINE
8
BLACK
6
CONTINUOUS
10
133.195
20
-59.465
11
133.195
21
-61.9111
0
LINE
8
BLACK
6
CONTINUOUS
10
133.195
20
-61.9111
11
133.193
21
-61.9295
0
LINE
8
BLACK
6
CONTINUOUS
10
133.193
20
-61.9295
11
133.186
21
-61.9531
0
LINE
8
BLACK
6
CONTINUOUS
10
133.186
20
-61.9531
11
133.174
21
-61.9748
0
LINE
8
BLACK
6
CONTINUOUS
10
133.174
20
-61.9748
11
133.17
21
-61.9802
0
LINE
8
BLACK
6
CONTINUOUS
10
133.17
20
-61.9802
11
133.17
21
-62.1849
0
LINE
8
BLACK
6
CONTINUOUS
10
133.17
20
-62.1849
11
133.169
21
-62.1996
0
LINE
8
BLACK
6
CONTINUOUS
10
133.169
20
-62.1996
11
133.163
21
-62.2185
0
LINE
8
BLACK
6
CONTINUOUS
10
133.163
20
-62.2185
11
133.154
21
-62.2358
0
LINE
8
BLACK
6
CONTINUOUS
10
133.154
20
-62.2358
11
133.141
21
-62.2511
0
LINE
8
BLACK
6
CONTINUOUS
10
133.141
20
-62.2511
11
133.126
21
-62.2635
0
LINE
8
BLACK
6
CONTINUOUS
10
133.126
20
-62.2635
11
133.108
21
-62.2728
0
LINE
8
BLACK
6
CONTINUOUS
10
133.108
20
-62.2728
11
133.09
21
-62.2786
0
LINE
8
BLACK
6
CONTINUOUS
10
133.09
20
-62.2786
11
133.07
21
-62.2805
0
LINE
8
BLACK
6
CONTINUOUS
10
133.07
20
-62.2805
11
133.05
21
-62.2786
0
LINE
8
BLACK
6
CONTINUOUS
10
133.05
20
-62.2786
11
133.032
21
-62.2728
0
LINE
8
BLACK
6
CONTINUOUS
10
133.032
20
-62.2728
11
133.014
21
-62.2635
0
LINE
8
BLACK
6
CONTINUOUS
10
133.014
20
-62.2635
11
132.999
21
-62.2511
0
LINE
8
BLACK
6
CONTINUOUS
10
132.999
20
-62.2511
11
132.986
21
-62.2358
0
LINE
8
BLACK
6
CONTINUOUS
10
132.986
20
-62.2358
11
132.977
21
-62.2185
0
LINE
8
BLACK
6
CONTINUOUS
10
132.977
20
-62.2185
11
132.971
21
-62.1996
0
LINE
8
BLACK
6
CONTINUOUS
10
132.971
20
-62.1996
11
132.97
21
-62.1849
0
LINE
8
BLACK
6
CONTINUOUS
10
132.97
20
-62.1849
11
132.97
21
-61.9802
0
LINE
8
BLACK
6
CONTINUOUS
10
132.97
20
-61.9802
11
132.966
21
-61.9748
0
LINE
8
BLACK
6
CONTINUOUS
10
132.966
20
-61.9748
11
132.954
21
-61.9531
0
LINE
8
BLACK
6
CONTINUOUS
10
132.954
20
-61.9531
11
132.947
21
-61.9295
0
LINE
8
BLACK
6
CONTINUOUS
10
132.947
20
-61.9295
11
132.945
21
-61.9111
0
LINE
8
BLACK
6
CONTINUOUS
10
132.945
20
-61.9111
11
132.945
21
-59.465
0
LINE
8
BLACK
6
CONTINUOUS
10
132.945
20
-59.465
11
132.595
21
-59.465
0
LINE
8
BLACK
6
CONTINUOUS
10
132.595
20
-59.465
11
132.546
21
-59.4602
0
LINE
8
BLACK
6
CONTINUOUS
10
132.546
20
-59.4602
11
132.499
21
-59.446
0
LINE
8
BLACK
6
CONTINUOUS
10
132.499
20
-59.446
11
132.456
21
-59.4229
0
LINE
8
BLACK
6
CONTINUOUS
10
132.456
20
-59.4229
11
132.418
21
-59.3918
0
LINE
8
BLACK
6
CONTINUOUS
10
132.418
20
-59.3918
11
132.387
21
-59.3539
0
LINE
8
BLACK
6
CONTINUOUS
10
132.387
20
-59.3539
11
132.364
21
-59.3107
0
LINE
8
BLACK
6
CONTINUOUS
10
132.364
20
-59.3107
11
132.35
21
-59.2638
0
LINE
8
BLACK
6
CONTINUOUS
10
132.35
20
-59.2638
11
132.345
21
-59.215
0
LINE
8
BLACK
6
CONTINUOUS
10
132.345
20
-59.215
11
132.345
21
-58.54
0
LINE
8
BLACK
6
CONTINUOUS
10
132.345
20
-58.54
11
132.35
21
-58.4912
0
LINE
8
BLACK
6
CONTINUOUS
10
132.35
20
-58.4912
11
132.364
21
-58.4443
0
LINE
8
BLACK
6
CONTINUOUS
10
132.364
20
-58.4443
11
132.387
21
-58.4011
0
LINE
8
BLACK
6
CONTINUOUS
10
132.387
20
-58.4011
11
132.418
21
-58.3632
0
LINE
8
BLACK
6
CONTINUOUS
10
132.418
20
-58.3632
11
132.456
21
-58.3321
0
LINE
8
BLACK
6
CONTINUOUS
10
132.456
20
-58.3321
11
132.499
21
-58.309
0
LINE
8
BLACK
6
CONTINUOUS
10
132.499
20
-58.309
11
132.546
21
-58.2948
0
LINE
8
BLACK
6
CONTINUOUS
10
132.546
20
-58.2948
11
132.595
21
-58.29
0
LINE
8
BLACK
6
CONTINUOUS
10
132.595
20
-58.29
11
133.545
21
-58.29
0
LINE
8
BLACK
6
CONTINUOUS
10
133.545
20
-58.29
11
133.594
21
-58.2948
0
LINE
8
BLACK
6
CONTINUOUS
10
133.59
20
-61.5314
11
133.608
21
-61.5372
0
LINE
8
BLACK
6
CONTINUOUS
10
133.608
20
-61.5372
11
133.626
21
-61.5465
0
LINE
8
BLACK
6
CONTINUOUS
10
133.626
20
-61.5465
11
133.641
21
-61.5589
0
LINE
8
BLACK
6
CONTINUOUS
10
133.641
20
-61.5589
11
133.654
21
-61.5742
0
LINE
8
BLACK
6
CONTINUOUS
10
133.654
20
-61.5742
11
133.663
21
-61.5915
0
LINE
8
BLACK
6
CONTINUOUS
10
133.663
20
-61.5915
11
133.669
21
-61.6104
0
LINE
8
BLACK
6
CONTINUOUS
10
133.669
20
-61.6104
11
133.67
21
-61.6251
0
LINE
8
BLACK
6
CONTINUOUS
10
133.67
20
-61.6251
11
133.67
21
-62.1849
0
LINE
8
BLACK
6
CONTINUOUS
10
133.67
20
-62.1849
11
133.669
21
-62.1996
0
LINE
8
BLACK
6
CONTINUOUS
10
133.669
20
-62.1996
11
133.663
21
-62.2185
0
LINE
8
BLACK
6
CONTINUOUS
10
133.663
20
-62.2185
11
133.654
21
-62.2358
0
LINE
8
BLACK
6
CONTINUOUS
10
133.654
20
-62.2358
11
133.641
21
-62.2511
0
LINE
8
BLACK
6
CONTINUOUS
10
133.641
20
-62.2511
11
133.626
21
-62.2635
0
LINE
8
BLACK
6
CONTINUOUS
10
133.626
20
-62.2635
11
133.608
21
-62.2728
0
LINE
8
BLACK
6
CONTINUOUS
10
133.608
20
-62.2728
11
133.59
21
-62.2786
0
LINE
8
BLACK
6
CONTINUOUS
10
133.59
20
-62.2786
11
133.57
21
-62.2805
0
LINE
8
BLACK
6
CONTINUOUS
10
133.57
20
-62.2805
11
133.55
21
-62.2786
0
LINE
8
BLACK
6
CONTINUOUS
10
133.55
20
-62.2786
11
133.532
21
-62.2728
0
LINE
8
BLACK
6
CONTINUOUS
10
133.532
20
-62.2728
11
133.514
21
-62.2635
0
LINE
8
BLACK
6
CONTINUOUS
10
133.514
20
-62.2635
11
133.499
21
-62.2511
0
LINE
8
BLACK
6
CONTINUOUS
10
133.499
20
-62.2511
11
133.486
21
-62.2358
0
LINE
8
BLACK
6
CONTINUOUS
10
133.486
20
-62.2358
11
133.477
21
-62.2185
0
LINE
8
BLACK
6
CONTINUOUS
10
133.477
20
-62.2185
11
133.471
21
-62.1996
0
LINE
8
BLACK
6
CONTINUOUS
10
133.471
20
-62.1996
11
133.47
21
-62.1849
0
LINE
8
BLACK
6
CONTINUOUS
10
133.47
20
-62.1849
11
133.47
21
-61.6251
0
LINE
8
BLACK
6
CONTINUOUS
10
133.47
20
-61.6251
11
133.471
21
-61.6104
0
LINE
8
BLACK
6
CONTINUOUS
10
133.471
20
-61.6104
11
133.477
21
-61.5915
0
LINE
8
BLACK
6
CONTINUOUS
10
133.477
20
-61.5915
11
133.486
21
-61.5742
0
LINE
8
BLACK
6
CONTINUOUS
10
133.486
20
-61.5742
11
133.499
21
-61.5589
0
LINE
8
BLACK
6
CONTINUOUS
10
133.499
20
-61.5589
11
133.514
21
-61.5465
0
LINE
8
BLACK
6
CONTINUOUS
10
133.514
20
-61.5465
11
133.532
21
-61.5372
0
LINE
8
BLACK
6
CONTINUOUS
10
133.532
20
-61.5372
11
133.55
21
-61.5314
0
LINE
8
BLACK
6
CONTINUOUS
10
133.55
20
-61.5314
11
133.57
21
-61.5295
0
LINE
8
BLACK
6
CONTINUOUS
10
133.57
20
-61.5295
11
133.59
21
-61.5314
0
LINE
8
BLACK
6
CONTINUOUS
10
133.594
20
-56.2198
11
133.641
21
-56.234
0
LINE
8
BLACK
6
CONTINUOUS
10
133.641
20
-56.234
11
133.684
21
-56.2571
0
LINE
8
BLACK
6
CONTINUOUS
10
133.684
20
-56.2571
11
133.722
21
-56.2882
0
LINE
8
BLACK
6
CONTINUOUS
10
133.722
20
-56.2882
11
133.753
21
-56.3261
0
LINE
8
BLACK
6
CONTINUOUS
10
133.753
20
-56.3261
11
133.776
21
-56.3693
0
LINE
8
BLACK
6
CONTINUOUS
10
133.776
20
-56.3693
11
133.79
21
-56.4162
0
LINE
8
BLACK
6
CONTINUOUS
10
133.79
20
-56.4162
11
133.795
21
-56.465
0
LINE
8
BLACK
6
CONTINUOUS
10
133.795
20
-56.465
11
133.795
21
-57.14
0
LINE
8
BLACK
6
CONTINUOUS
10
133.795
20
-57.14
11
133.79
21
-57.1888
0
LINE
8
BLACK
6
CONTINUOUS
10
133.79
20
-57.1888
11
133.776
21
-57.2357
0
LINE
8
BLACK
6
CONTINUOUS
10
133.776
20
-57.2357
11
133.753
21
-57.2789
0
LINE
8
BLACK
6
CONTINUOUS
10
133.753
20
-57.2789
11
133.739
21
-57.2952
0
LINE
8
BLACK
6
CONTINUOUS
10
133.739
20
-57.2952
11
134.204
21
-57.7598
0
LINE
8
BLACK
6
CONTINUOUS
10
134.204
20
-57.7598
11
134.209
21
-57.7637
0
LINE
8
BLACK
6
CONTINUOUS
10
134.209
20
-57.7637
11
134.213
21
-57.7685
0
LINE
8
BLACK
6
CONTINUOUS
10
134.213
20
-57.7685
11
134.213
21
-57.7685
0
LINE
8
BLACK
6
CONTINUOUS
10
134.213
20
-57.7685
11
134.222
21
-57.7802
0
LINE
8
BLACK
6
CONTINUOUS
10
134.222
20
-57.7802
11
134.224
21
-57.7827
0
LINE
8
BLACK
6
CONTINUOUS
10
134.224
20
-57.7827
11
134.236
21
-57.8044
0
LINE
8
BLACK
6
CONTINUOUS
10
134.236
20
-57.8044
11
134.243
21
-57.828
0
LINE
8
BLACK
6
CONTINUOUS
10
134.243
20
-57.828
11
134.245
21
-57.8464
0
LINE
8
BLACK
6
CONTINUOUS
10
134.245
20
-57.8464
11
134.245
21
-57.8464
0
LINE
8
BLACK
6
CONTINUOUS
10
134.245
20
-57.8464
11
134.246
21
-57.8525
0
LINE
8
BLACK
6
CONTINUOUS
10
134.246
20
-57.8525
11
134.245
21
-57.8586
0
LINE
8
BLACK
6
CONTINUOUS
10
134.245
20
-57.8586
11
134.245
21
-59.4471
0
LINE
8
BLACK
6
CONTINUOUS
10
134.245
20
-59.4471
11
134.246
21
-59.4532
0
LINE
8
BLACK
6
CONTINUOUS
10
134.246
20
-59.4532
11
134.245
21
-59.4593
0
LINE
8
BLACK
6
CONTINUOUS
10
134.245
20
-59.4593
11
134.245
21
-59.4593
0
LINE
8
BLACK
6
CONTINUOUS
10
134.245
20
-59.4593
11
134.243
21
-59.4777
0
LINE
8
BLACK
6
CONTINUOUS
10
134.243
20
-59.4777
11
134.236
21
-59.5012
0
LINE
8
BLACK
6
CONTINUOUS
10
134.236
20
-59.5012
11
134.224
21
-59.523
0
LINE
8
BLACK
6
CONTINUOUS
10
134.224
20
-59.523
11
134.209
21
-59.542
0
LINE
8
BLACK
6
CONTINUOUS
10
134.209
20
-59.542
11
134.204
21
-59.5459
0
LINE
8
BLACK
6
CONTINUOUS
10
134.204
20
-59.5459
11
134.195
21
-59.555
0
LINE
8
BLACK
6
CONTINUOUS
10
134.195
20
-59.555
11
134.195
21
-61.9111
0
LINE
8
BLACK
6
CONTINUOUS
10
134.195
20
-61.9111
11
134.193
21
-61.9295
0
LINE
8
BLACK
6
CONTINUOUS
10
134.193
20
-61.9295
11
134.186
21
-61.9531
0
LINE
8
BLACK
6
CONTINUOUS
10
134.186
20
-61.9531
11
134.174
21
-61.9748
0
LINE
8
BLACK
6
CONTINUOUS
10
134.174
20
-61.9748
11
134.17
21
-61.9802
0
LINE
8
BLACK
6
CONTINUOUS
10
134.17
20
-61.9802
11
134.17
21
-62.1849
0
LINE
8
BLACK
6
CONTINUOUS
10
134.17
20
-62.1849
11
134.169
21
-62.1996
0
LINE
8
BLACK
6
CONTINUOUS
10
134.169
20
-62.1996
11
134.163
21
-62.2185
0
LINE
8
BLACK
6
CONTINUOUS
10
134.163
20
-62.2185
11
134.154
21
-62.2358
0
LINE
8
BLACK
6
CONTINUOUS
10
134.154
20
-62.2358
11
134.141
21
-62.2511
0
LINE
8
BLACK
6
CONTINUOUS
10
134.141
20
-62.2511
11
134.126
21
-62.2635
0
LINE
8
BLACK
6
CONTINUOUS
10
134.126
20
-62.2635
11
134.108
21
-62.2728
0
LINE
8
BLACK
6
CONTINUOUS
10
134.108
20
-62.2728
11
134.09
21
-62.2786
0
LINE
8
BLACK
6
CONTINUOUS
10
134.09
20
-62.2786
11
134.07
21
-62.2805
0
LINE
8
BLACK
6
CONTINUOUS
10
134.07
20
-62.2805
11
134.05
21
-62.2786
0
LINE
8
BLACK
6
CONTINUOUS
10
134.05
20
-62.2786
11
134.032
21
-62.2728
0
LINE
8
BLACK
6
CONTINUOUS
10
134.032
20
-62.2728
11
134.014
21
-62.2635
0
LINE
8
BLACK
6
CONTINUOUS
10
134.014
20
-62.2635
11
133.999
21
-62.2511
0
LINE
8
BLACK
6
CONTINUOUS
10
133.999
20
-62.2511
11
133.986
21
-62.2358
0
LINE
8
BLACK
6
CONTINUOUS
10
133.986
20
-62.2358
11
133.977
21
-62.2185
0
LINE
8
BLACK
6
CONTINUOUS
10
133.977
20
-62.2185
11
133.971
21
-62.1996
0
LINE
8
BLACK
6
CONTINUOUS
10
133.971
20
-62.1996
11
133.97
21
-62.1849
0
LINE
8
BLACK
6
CONTINUOUS
10
133.97
20
-62.1849
11
133.97
21
-61.9802
0
LINE
8
BLACK
6
CONTINUOUS
10
133.97
20
-61.9802
11
133.966
21
-61.9748
0
LINE
8
BLACK
6
CONTINUOUS
10
133.966
20
-61.9748
11
133.954
21
-61.9531
0
LINE
8
BLACK
6
CONTINUOUS
10
133.954
20
-61.9531
11
133.947
21
-61.9295
0
LINE
8
BLACK
6
CONTINUOUS
10
133.947
20
-61.9295
11
133.945
21
-61.9111
0
LINE
8
BLACK
6
CONTINUOUS
10
133.945
20
-61.9111
11
133.945
21
-59.5093
0
LINE
8
BLACK
6
CONTINUOUS
10
133.945
20
-59.5093
11
133.944
21
-59.5032
0
LINE
8
BLACK
6
CONTINUOUS
10
133.944
20
-59.5032
11
133.947
21
-59.4787
0
LINE
8
BLACK
6
CONTINUOUS
10
133.947
20
-59.4787
11
133.954
21
-59.4551
0
LINE
8
BLACK
6
CONTINUOUS
10
133.954
20
-59.4551
11
133.966
21
-59.4334
0
LINE
8
BLACK
6
CONTINUOUS
10
133.966
20
-59.4334
11
133.977
21
-59.4191
0
LINE
8
BLACK
6
CONTINUOUS
10
133.977
20
-59.4191
11
133.977
21
-59.4191
0
LINE
8
BLACK
6
CONTINUOUS
10
133.977
20
-59.4191
11
133.981
21
-59.4144
0
LINE
8
BLACK
6
CONTINUOUS
10
133.981
20
-59.4144
11
133.986
21
-59.4105
0
LINE
8
BLACK
6
CONTINUOUS
10
133.986
20
-59.4105
11
133.995
21
-59.4014
0
LINE
8
BLACK
6
CONTINUOUS
10
133.995
20
-59.4014
11
133.995
21
-57.9043
0
LINE
8
BLACK
6
CONTINUOUS
10
133.995
20
-57.9043
11
133.481
21
-57.39
0
LINE
8
BLACK
6
CONTINUOUS
10
133.481
20
-57.39
11
132.595
21
-57.39
0
LINE
8
BLACK
6
CONTINUOUS
10
132.595
20
-57.39
11
132.546
21
-57.3852
0
LINE
8
BLACK
6
CONTINUOUS
10
132.546
20
-57.3852
11
132.499
21
-57.371
0
LINE
8
BLACK
6
CONTINUOUS
10
132.499
20
-57.371
11
132.456
21
-57.3479
0
LINE
8
BLACK
6
CONTINUOUS
10
132.456
20
-57.3479
11
132.418
21
-57.3168
0
LINE
8
BLACK
6
CONTINUOUS
10
132.418
20
-57.3168
11
132.387
21
-57.2789
0
LINE
8
BLACK
6
CONTINUOUS
10
132.387
20
-57.2789
11
132.364
21
-57.2357
0
LINE
8
BLACK
6
CONTINUOUS
10
132.364
20
-57.2357
11
132.35
21
-57.1888
0
LINE
8
BLACK
6
CONTINUOUS
10
132.35
20
-57.1888
11
132.345
21
-57.14
0
LINE
8
BLACK
6
CONTINUOUS
10
132.345
20
-57.14
11
132.345
21
-56.465
0
LINE
8
BLACK
6
CONTINUOUS
10
132.345
20
-56.465
11
132.35
21
-56.4162
0
LINE
8
BLACK
6
CONTINUOUS
10
132.35
20
-56.4162
11
132.364
21
-56.3693
0
LINE
8
BLACK
6
CONTINUOUS
10
132.364
20
-56.3693
11
132.387
21
-56.3261
0
LINE
8
BLACK
6
CONTINUOUS
10
132.387
20
-56.3261
11
132.418
21
-56.2882
0
LINE
8
BLACK
6
CONTINUOUS
10
132.418
20
-56.2882
11
132.456
21
-56.2571
0
LINE
8
BLACK
6
CONTINUOUS
10
132.456
20
-56.2571
11
132.499
21
-56.234
0
LINE
8
BLACK
6
CONTINUOUS
10
132.499
20
-56.234
11
132.546
21
-56.2198
0
LINE
8
BLACK
6
CONTINUOUS
10
132.546
20
-56.2198
11
132.595
21
-56.215
0
LINE
8
BLACK
6
CONTINUOUS
10
132.595
20
-56.215
11
133.545
21
-56.215
0
LINE
8
BLACK
6
CONTINUOUS
10
133.545
20
-56.215
11
133.594
21
-56.2198
0
LINE
8
BLACK
6
CONTINUOUS
10
112.673
20
-59.4146
11
112.836
21
-59.4824
0
LINE
8
BLACK
6
CONTINUOUS
10
112.836
20
-59.4824
11
112.984
21
-59.5809
0
LINE
8
BLACK
6
CONTINUOUS
10
112.984
20
-59.5809
11
113.109
21
-59.7063
0
LINE
8
BLACK
6
CONTINUOUS
10
113.109
20
-59.7063
11
113.208
21
-59.8537
0
LINE
8
BLACK
6
CONTINUOUS
10
113.208
20
-59.8537
11
113.275
21
-60.0175
0
LINE
8
BLACK
6
CONTINUOUS
10
113.275
20
-60.0175
11
113.31
21
-60.1914
0
LINE
8
BLACK
6
CONTINUOUS
10
113.31
20
-60.1914
11
113.31
21
-60.3686
0
LINE
8
BLACK
6
CONTINUOUS
10
113.31
20
-60.3686
11
113.275
21
-60.5425
0
LINE
8
BLACK
6
CONTINUOUS
10
113.275
20
-60.5425
11
113.208
21
-60.7063
0
LINE
8
BLACK
6
CONTINUOUS
10
113.208
20
-60.7063
11
113.109
21
-60.8537
0
LINE
8
BLACK
6
CONTINUOUS
10
113.109
20
-60.8537
11
112.984
21
-60.9791
0
LINE
8
BLACK
6
CONTINUOUS
10
112.984
20
-60.9791
11
112.836
21
-61.0776
0
LINE
8
BLACK
6
CONTINUOUS
10
112.836
20
-61.0776
11
112.673
21
-61.1454
0
LINE
8
BLACK
6
CONTINUOUS
10
112.673
20
-61.1454
11
112.499
21
-61.18
0
LINE
8
BLACK
6
CONTINUOUS
10
112.499
20
-61.18
11
112.321
21
-61.18
0
LINE
8
BLACK
6
CONTINUOUS
10
112.321
20
-61.18
11
112.147
21
-61.1454
0
LINE
8
BLACK
6
CONTINUOUS
10
112.147
20
-61.1454
11
111.984
21
-61.0776
0
LINE
8
BLACK
6
CONTINUOUS
10
111.984
20
-61.0776
11
111.836
21
-60.9791
0
LINE
8
BLACK
6
CONTINUOUS
10
111.836
20
-60.9791
11
111.711
21
-60.8537
0
LINE
8
BLACK
6
CONTINUOUS
10
111.711
20
-60.8537
11
111.612
21
-60.7063
0
LINE
8
BLACK
6
CONTINUOUS
10
111.612
20
-60.7063
11
111.545
21
-60.5425
0
LINE
8
BLACK
6
CONTINUOUS
10
111.545
20
-60.5425
11
111.51
21
-60.3686
0
LINE
8
BLACK
6
CONTINUOUS
10
111.51
20
-60.3686
11
111.51
21
-60.1914
0
LINE
8
BLACK
6
CONTINUOUS
10
111.51
20
-60.1914
11
111.545
21
-60.0175
0
LINE
8
BLACK
6
CONTINUOUS
10
111.545
20
-60.0175
11
111.612
21
-59.8537
0
LINE
8
BLACK
6
CONTINUOUS
10
111.612
20
-59.8537
11
111.711
21
-59.7063
0
LINE
8
BLACK
6
CONTINUOUS
10
111.711
20
-59.7063
11
111.836
21
-59.5809
0
LINE
8
BLACK
6
CONTINUOUS
10
111.836
20
-59.5809
11
111.984
21
-59.4824
0
LINE
8
BLACK
6
CONTINUOUS
10
111.984
20
-59.4824
11
112.147
21
-59.4146
0
LINE
8
BLACK
6
CONTINUOUS
10
112.147
20
-59.4146
11
112.321
21
-59.38
0
LINE
8
BLACK
6
CONTINUOUS
10
112.321
20
-59.38
11
112.499
21
-59.38
0
LINE
8
BLACK
6
CONTINUOUS
10
112.499
20
-59.38
11
112.673
21
-59.4146
0
LINE
8
BLACK
6
CONTINUOUS
10
160.88
20
-57.775
11
148.56
21
-57.775
0
LINE
8
BLACK
6
CONTINUOUS
10
148.56
20
-57.775
11
148.56
21
-53.775
0
LINE
8
BLACK
6
CONTINUOUS
10
148.56
20
-53.775
11
160.88
21
-53.775
0
LINE
8
BLACK
6
CONTINUOUS
10
160.88
20
-53.775
11
160.88
21
-57.775
0
LINE
8
BLACK
6
CONTINUOUS
10
112.673
20
-54.4146
11
112.836
21
-54.4824
0
LINE
8
BLACK
6
CONTINUOUS
10
112.836
20
-54.4824
11
112.984
21
-54.5809
0
LINE
8
BLACK
6
CONTINUOUS
10
112.984
20
-54.5809
11
113.109
21
-54.7063
0
LINE
8
BLACK
6
CONTINUOUS
10
113.109
20
-54.7063
11
113.208
21
-54.8537
0
LINE
8
BLACK
6
CONTINUOUS
10
113.208
20
-54.8537
11
113.275
21
-55.0175
0
LINE
8
BLACK
6
CONTINUOUS
10
113.275
20
-55.0175
11
113.31
21
-55.1914
0
LINE
8
BLACK
6
CONTINUOUS
10
113.31
20
-55.1914
11
113.31
21
-55.3686
0
LINE
8
BLACK
6
CONTINUOUS
10
113.31
20
-55.3686
11
113.275
21
-55.5425
0
LINE
8
BLACK
6
CONTINUOUS
10
113.275
20
-55.5425
11
113.208
21
-55.7063
0
LINE
8
BLACK
6
CONTINUOUS
10
113.208
20
-55.7063
11
113.109
21
-55.8537
0
LINE
8
BLACK
6
CONTINUOUS
10
113.109
20
-55.8537
11
112.984
21
-55.9791
0
LINE
8
BLACK
6
CONTINUOUS
10
112.984
20
-55.9791
11
112.836
21
-56.0776
0
LINE
8
BLACK
6
CONTINUOUS
10
112.836
20
-56.0776
11
112.673
21
-56.1454
0
LINE
8
BLACK
6
CONTINUOUS
10
112.673
20
-56.1454
11
112.499
21
-56.18
0
LINE
8
BLACK
6
CONTINUOUS
10
112.499
20
-56.18
11
112.321
21
-56.18
0
LINE
8
BLACK
6
CONTINUOUS
10
112.321
20
-56.18
11
112.147
21
-56.1454
0
LINE
8
BLACK
6
CONTINUOUS
10
112.147
20
-56.1454
11
111.984
21
-56.0776
0
LINE
8
BLACK
6
CONTINUOUS
10
111.984
20
-56.0776
11
111.836
21
-55.9791
0
LINE
8
BLACK
6
CONTINUOUS
10
111.836
20
-55.9791
11
111.711
21
-55.8537
0
LINE
8
BLACK
6
CONTINUOUS
10
111.711
20
-55.8537
11
111.612
21
-55.7063
0
LINE
8
BLACK
6
CONTINUOUS
10
111.612
20
-55.7063
11
111.545
21
-55.5425
0
LINE
8
BLACK
6
CONTINUOUS
10
111.545
20
-55.5425
11
111.51
21
-55.3686
0
LINE
8
BLACK
6
CONTINUOUS
10
111.51
20
-55.3686
11
111.51
21
-55.1914
0
LINE
8
BLACK
6
CONTINUOUS
10
111.51
20
-55.1914
11
111.545
21
-55.0175
0
LINE
8
BLACK
6
CONTINUOUS
10
111.545
20
-55.0175
11
111.612
21
-54.8537
0
LINE
8
BLACK
6
CONTINUOUS
10
111.612
20
-54.8537
11
111.711
21
-54.7063
0
LINE
8
BLACK
6
CONTINUOUS
10
111.711
20
-54.7063
11
111.836
21
-54.5809
0
LINE
8
BLACK
6
CONTINUOUS
10
111.836
20
-54.5809
11
111.984
21
-54.4824
0
LINE
8
BLACK
6
CONTINUOUS
10
111.984
20
-54.4824
11
112.147
21
-54.4146
0
LINE
8
BLACK
6
CONTINUOUS
10
112.147
20
-54.4146
11
112.321
21
-54.38
0
LINE
8
BLACK
6
CONTINUOUS
10
112.321
20
-54.38
11
112.499
21
-54.38
0
LINE
8
BLACK
6
CONTINUOUS
10
112.499
20
-54.38
11
112.673
21
-54.4146
  0
ENDSEC
  0
EOF
